<svg xmlns="http://www.w3.org/2000/svg" version="1.1" width="300" height="300">
<rect x="0" y="0" width="300" height="300" fill="#6a555a" />
<g transform="scale(1.171875) translate(0.5 0.5)">
<polygon fill="#ffffff" fill-opacity="0.501961" points="212,78 -16,61 4,197" />
<polygon fill="#020000" fill-opacity="0.501961" points="6,174 271,250 -16,271" />
<polygon fill="#2c020c" fill-opacity="0.501961" points="271,103 249,271 107,93" />
<polygon fill="#ffffff" fill-opacity="0.501961" points="27,151 141,77 -5,60" />
<polygon fill="#000009" fill-opacity="0.501961" points="-16,61 4,-16 182,16" />
<polygon fill="#d4c698" fill-opacity="0.501961" points="196,222 78,89 24,169" />
<polygon fill="#120013" fill-opacity="0.501961" points="271,36 234,-16 104,56" />
<polygon fill="#b3b3a7" fill-opacity="0.501961" points="211,69 126,58 201,128" />
<polygon fill="#ffffff" fill-opacity="0.501961" points="57,174 39,133 -16,184" />
<polygon fill="#fffffc" fill-opacity="0.501961" points="236,75 271,57 248,31" />
<polygon fill="#221d56" fill-opacity="0.501961" points="62,170 47,125 72,112" />
<polygon fill="#ffffff" fill-opacity="0.501961" points="125,21 109,38 141,43" />
<polygon fill="#3a0012" fill-opacity="0.501961" points="115,271 -8,230 119,154" />
<polygon fill="#2b0011" fill-opacity="0.501961" points="172,271 231,43 244,260" />
<polygon fill="#fffffe" fill-opacity="0.501961" points="28,133 -2,62 138,76" />
<polygon fill="#d5d7c5" fill-opacity="0.501961" points="237,135 254,135 243,190" />
<polygon fill="#ffffff" fill-opacity="0.501961" points="199,59 235,56 214,50" />
<polygon fill="#dde9cc" fill-opacity="0.501961" points="6,81 136,110 109,157" />
<polygon fill="#643936" fill-opacity="0.501961" points="139,77 152,195 231,137" />
<polygon fill="#462620" fill-opacity="0.501961" points="-11,160 52,155 15,148" />
<polygon fill="#cea45c" fill-opacity="0.501961" points="58,175 130,166 216,235" />
<polygon fill="#6baede" fill-opacity="0.501961" points="40,58 -4,39 81,51" />
<polygon fill="#020015" fill-opacity="0.501961" points="22,46 76,60 -16,61" />
<polygon fill="#180021" fill-opacity="0.501961" points="59,48 136,57 40,-16" />
<polygon fill="#ccb79f" fill-opacity="0.501961" points="163,100 220,111 198,67" />
<polygon fill="#1c1652" fill-opacity="0.501961" points="140,59 126,-16 220,69" />
<polygon fill="#080027" fill-opacity="0.501961" points="14,152 13,130 -11,130" />
<polygon fill="#2e0013" fill-opacity="0.501961" points="271,258 43,179 68,269" />
<polygon fill="#060000" fill-opacity="0.501961" points="257,80 211,67 203,82" />
<polygon fill="#130014" fill-opacity="0.501961" points="143,154 177,121 121,126" />
<polygon fill="#73c1f4" fill-opacity="0.501961" points="96,63 69,48 135,59" />
<polygon fill="#04000a" fill-opacity="0.501961" points="106,104 169,104 148,91" />
<polygon fill="#1e335e" fill-opacity="0.501961" points="148,63 89,61 148,81" />
<polygon fill="#afa6a2" fill-opacity="0.501961" points="179,18 210,-16 149,8" />
<polygon fill="#34081c" fill-opacity="0.501961" points="271,8 236,49 111,22" />
<polygon fill="#ffffee" fill-opacity="0.501961" points="137,30 110,33 132,49" />
<polygon fill="#ffffde" fill-opacity="0.501961" points="-1,152 47,153 44,128" />
<polygon fill="#f7ffff" fill-opacity="0.501961" points="-16,158 78,166 9,181" />
<polygon fill="#1d0015" fill-opacity="0.501961" points="256,179 271,58 241,75" />
<polygon fill="#20001f" fill-opacity="0.501961" points="-16,42 -16,-5 148,3" />
<polygon fill="#23010c" fill-opacity="0.501961" points="149,184 153,161 182,193" />
<polygon fill="#9e7062" fill-opacity="0.501961" points="224,85 187,121 130,120" />
<polygon fill="#3a6e15" fill-opacity="0.501961" points="18,105 -16,97 5,116" />
<polygon fill="#9c6555" fill-opacity="0.501961" points="229,143 230,124 159,141" />
<polygon fill="#e1ece5" fill-opacity="0.501961" points="93,148 64,171 76,106" />
<polygon fill="#e3ce74" fill-opacity="0.501961" points="174,192 101,187 183,217" />
<polygon fill="#2c0822" fill-opacity="0.501961" points="4,271 -16,183 58,178" />
<polygon fill="#19031b" fill-opacity="0.501961" points="217,219 271,257 203,115" />
<polygon fill="#251425" fill-opacity="0.501961" points="52,148 66,156 33,156" />
<polygon fill="#000000" fill-opacity="0.501961" points="119,170 117,154 105,153" />
<polygon fill="#f7ffff" fill-opacity="0.501961" points="217,103 211,108 206,92" />
<polygon fill="#ffffff" fill-opacity="0.501961" points="130,74 -16,63 86,110" />
<polygon fill="#1a002c" fill-opacity="0.501961" points="54,122 72,114 72,122" />
<polygon fill="#ffffff" fill-opacity="0.501961" points="227,54 204,55 215,62" />
<polygon fill="#784230" fill-opacity="0.501961" points="171,227 271,259 180,200" />
<polygon fill="#bda270" fill-opacity="0.501961" points="188,195 161,214 190,174" />
<polygon fill="#c0c7ac" fill-opacity="0.501961" points="235,60 256,30 237,94" />
<polygon fill="#363a69" fill-opacity="0.501961" points="188,29 214,70 107,45" />
<polygon fill="#a7e9ff" fill-opacity="0.501961" points="38,41 62,51 23,46" />
<polygon fill="#2b3257" fill-opacity="0.501961" points="115,71 36,65 82,54" />
<polygon fill="#dfe7ca" fill-opacity="0.501961" points="77,120 136,120 130,105" />
<polygon fill="#2a1330" fill-opacity="0.501961" points="66,-10 112,55 3,39" />
<polygon fill="#7e4f44" fill-opacity="0.501961" points="122,140 143,150 136,186" />
<polygon fill="#b4ffff" fill-opacity="0.501961" points="-2,37 -1,44 15,43" />
<polygon fill="#a8acab" fill-opacity="0.501961" points="163,103 211,66 149,66" />
<polygon fill="#78190a" fill-opacity="0.501961" points="207,89 193,89 202,110" />
<polygon fill="#87828a" fill-opacity="0.501961" points="56,176 85,189 50,107" />
<polygon fill="#7b4b53" fill-opacity="0.501961" points="58,264 30,238 58,231" />
<polygon fill="#1a031f" fill-opacity="0.501961" points="271,187 258,271 244,153" />
<polygon fill="#cd7c5e" fill-opacity="0.501961" points="229,126 207,156 215,130" />
<polygon fill="#f8fff9" fill-opacity="0.501961" points="44,156 -16,162 53,180" />
<polygon fill="#31071e" fill-opacity="0.501961" points="233,48 211,92 241,132" />
<polygon fill="#c2c6ba" fill-opacity="0.501961" points="126,158 107,96 82,139" />
<polygon fill="#ffffe8" fill-opacity="0.501961" points="46,151 47,74 13,154" />
<polygon fill="#5c1a20" fill-opacity="0.501961" points="119,185 118,171 85,187" />
<polygon fill="#edffe6" fill-opacity="0.501961" points="136,95 106,94 133,84" />
<polygon fill="#fffff0" fill-opacity="0.501961" points="58,173 61,157 66,184" />
<polygon fill="#15051c" fill-opacity="0.501961" points="107,96 113,106 143,98" />
<polygon fill="#a4e2f4" fill-opacity="0.501961" points="61,49 97,55 68,58" />
<polygon fill="#401319" fill-opacity="0.501961" points="109,-12 155,6 153,55" />
<polygon fill="#22143f" fill-opacity="0.501961" points="34,64 20,47 82,56" />
<polygon fill="#17021a" fill-opacity="0.501961" points="222,103 193,130 271,127" />
<polygon fill="#371321" fill-opacity="0.501961" points="154,128 180,198 184,148" />
<polygon fill="#ffffff" fill-opacity="0.501961" points="114,39 122,26 139,35" />
<polygon fill="#2e1326" fill-opacity="0.501961" points="-6,158 30,156 12,151" />
<polygon fill="#f9fff1" fill-opacity="0.501961" points="205,88 186,80 204,72" />
<polygon fill="#ac6248" fill-opacity="0.501961" points="141,153 181,153 134,169" />
<polygon fill="#1c0015" fill-opacity="0.501961" points="204,231 235,114 237,235" />
<polygon fill="#e37e4c" fill-opacity="0.501961" points="184,159 209,151 201,161" />
<polygon fill="#77625e" fill-opacity="0.501961" points="186,97 197,95 185,73" />
<polygon fill="#e3dcba" fill-opacity="0.501961" points="239,152 239,138 254,134" />
<polygon fill="#eaf8e0" fill-opacity="0.501961" points="128,-11 183,4 216,-16" />
<polygon fill="#ba482b" fill-opacity="0.501961" points="209,90 238,94 227,82" />
<polygon fill="#a19e93" fill-opacity="0.501961" points="239,55 263,30 239,39" />
<polygon fill="#501b27" fill-opacity="0.501961" points="177,9 249,-16 271,35" />
<polygon fill="#fff3ce" fill-opacity="0.501961" points="21,110 51,132 -9,124" />
<polygon fill="#e8e8b3" fill-opacity="0.501961" points="-16,82 71,91 15,106" />
<polygon fill="#82757e" fill-opacity="0.501961" points="18,135 -15,149 21,146" />
<polygon fill="#57353b" fill-opacity="0.501961" points="-16,184 39,178 36,205" />
<polygon fill="#222c6c" fill-opacity="0.501961" points="123,57 196,65 219,39" />
</g>
</svg>