<svg xmlns="http://www.w3.org/2000/svg" version="1.1" width="300" height="300">
<rect x="0" y="0" width="300" height="300" fill="#a59782" />
<g transform="scale(1.171875) translate(0.5 0.5)">
<polygon fill="#000000" fill-opacity="0.501961" points="151,124 186,245 10,230" />
<polygon fill="#f7e9c6" fill-opacity="0.501961" points="246,-16 271,194 -16,68" />
<polygon fill="#000000" fill-opacity="0.501961" points="-16,48 -9,-5 160,-2" />
<polygon fill="#000002" fill-opacity="0.501961" points="186,146 93,270 47,167" />
<polygon fill="#fffdcc" fill-opacity="0.501961" points="144,139 -16,70 -8,161" />
<polygon fill="#ebcca1" fill-opacity="0.501961" points="50,271 -16,200 42,106" />
<polygon fill="#1e0016" fill-opacity="0.501961" points="70,155 81,271 53,250" />
<polygon fill="#05061f" fill-opacity="0.501961" points="151,5 -16,40 -15,-5" />
<polygon fill="#d4c3a2" fill-opacity="0.501961" points="157,177 271,137 234,261" />
<polygon fill="#0f0218" fill-opacity="0.501961" points="102,159 182,194 149,263" />
<polygon fill="#dfd0b0" fill-opacity="0.501961" points="128,151 223,-6 46,28" />
<polygon fill="#110c20" fill-opacity="0.501961" points="151,132 184,169 80,189" />
<polygon fill="#fffff3" fill-opacity="0.501961" points="103,130 45,122 108,90" />
<polygon fill="#e8bd9a" fill-opacity="0.501961" points="151,223 106,248 123,271" />
<polygon fill="#c2b296" fill-opacity="0.501961" points="271,224 254,-16 166,271" />
<polygon fill="#020114" fill-opacity="0.501961" points="61,192 122,163 45,166" />
<polygon fill="#918a8e" fill-opacity="0.501961" points="159,115 119,155 61,167" />
<polygon fill="#000012" fill-opacity="0.501961" points="176,191 71,221 120,244" />
<polygon fill="#d9caad" fill-opacity="0.501961" points="224,180 201,157 147,184" />
<polygon fill="#c0ab8e" fill-opacity="0.501961" points="-16,237 55,271 0,57" />
<polygon fill="#010214" fill-opacity="0.501961" points="-15,49 38,34 11,7" />
<polygon fill="#d8c9a6" fill-opacity="0.501961" points="22,40 196,162 82,18" />
<polygon fill="#ffffe5" fill-opacity="0.501961" points="33,10 34,-16 19,-16" />
<polygon fill="#482833" fill-opacity="0.501961" points="136,270 184,217 170,186" />
<polygon fill="#5e2f35" fill-opacity="0.501961" points="49,186 106,260 58,271" />
<polygon fill="#f9e6ae" fill-opacity="0.501961" points="21,154 118,139 157,87" />
<polygon fill="#cbbca0" fill-opacity="0.501961" points="208,271 201,99 174,187" />
<polygon fill="#020313" fill-opacity="0.501961" points="138,149 154,142 153,126" />
<polygon fill="#cbbda5" fill-opacity="0.501961" points="154,144 229,155 171,-16" />
<polygon fill="#312d35" fill-opacity="0.501961" points="38,159 101,179 99,216" />
<polygon fill="#bb6853" fill-opacity="0.501961" points="49,182 37,212 56,259" />
<polygon fill="#dabe9c" fill-opacity="0.501961" points="142,267 175,232 174,271" />
<polygon fill="#705959" fill-opacity="0.501961" points="42,153 78,165 101,151" />
<polygon fill="#aca9a5" fill-opacity="0.501961" points="110,156 139,143 155,114" />
<polygon fill="#f5d985" fill-opacity="0.501961" points="52,96 121,84 11,137" />
<polygon fill="#c9bca8" fill-opacity="0.501961" points="160,68 49,22 5,111" />
<polygon fill="#f1d0ad" fill-opacity="0.501961" points="40,185 22,190 39,249" />
<polygon fill="#474547" fill-opacity="0.501961" points="8,58 -4,50 28,52" />
<polygon fill="#58343b" fill-opacity="0.501961" points="135,242 184,240 178,199" />
<polygon fill="#ffe7b6" fill-opacity="0.501961" points="131,248 101,245 128,267" />
<polygon fill="#171c36" fill-opacity="0.501961" points="73,-7 142,1 121,15" />
<polygon fill="#221d29" fill-opacity="0.501961" points="139,210 173,147 140,146" />
<polygon fill="#deded5" fill-opacity="0.501961" points="67,166 28,153 21,133" />
<polygon fill="#565354" fill-opacity="0.501961" points="121,183 79,187 86,201" />
<polygon fill="#cec0a9" fill-opacity="0.501961" points="179,120 216,8 94,16" />
<polygon fill="#c1b69f" fill-opacity="0.501961" points="57,192 -14,141 35,147" />
<polygon fill="#b5886b" fill-opacity="0.501961" points="136,234 107,242 150,258" />
<polygon fill="#eecd7d" fill-opacity="0.501961" points="60,146 71,121 18,132" />
<polygon fill="#edd590" fill-opacity="0.501961" points="155,111 120,82 93,139" />
<polygon fill="#dbccae" fill-opacity="0.501961" points="155,185 184,183 155,177" />
<polygon fill="#0e0f18" fill-opacity="0.501961" points="66,170 99,194 142,149" />
<polygon fill="#bba988" fill-opacity="0.501961" points="170,251 250,264 263,169" />
<polygon fill="#c2b499" fill-opacity="0.501961" points="236,224 168,138 271,113" />
<polygon fill="#533740" fill-opacity="0.501961" points="62,196 37,214 85,240" />
<polygon fill="#1d1823" fill-opacity="0.501961" points="93,213 73,184 57,271" />
<polygon fill="#563240" fill-opacity="0.501961" points="175,172 181,158 161,146" />
<polygon fill="#b3a180" fill-opacity="0.501961" points="46,222 11,271 -16,176" />
<polygon fill="#70665e" fill-opacity="0.501961" points="138,9 165,2 150,-12" />
<polygon fill="#f4f8f1" fill-opacity="0.501961" points="85,143 31,143 56,152" />
<polygon fill="#6a5a3e" fill-opacity="0.501961" points="79,-16 105,-16 62,25" />
<polygon fill="#958a82" fill-opacity="0.501961" points="109,159 137,130 59,166" />
<polygon fill="#c47556" fill-opacity="0.501961" points="77,261 90,267 80,231" />
<polygon fill="#6c595c" fill-opacity="0.501961" points="153,219 163,231 109,246" />
<polygon fill="#f3f8e9" fill-opacity="0.501961" points="107,97 81,131 62,110" />
<polygon fill="#cfc0a4" fill-opacity="0.501961" points="132,13 247,-16 271,42" />
<polygon fill="#c0b09d" fill-opacity="0.501961" points="-15,75 48,86 -16,180" />
<polygon fill="#0d0f18" fill-opacity="0.501961" points="136,147 106,160 132,233" />
<polygon fill="#f4d097" fill-opacity="0.501961" points="50,239 30,261 37,223" />
<polygon fill="#685e5a" fill-opacity="0.501961" points="54,26 29,-3 44,5" />
<polygon fill="#1b1c22" fill-opacity="0.501961" points="66,23 114,-16 106,12" />
<polygon fill="#111221" fill-opacity="0.501961" points="-8,46 37,6 46,27" />
<polygon fill="#1f1720" fill-opacity="0.501961" points="65,185 87,171 43,161" />
<polygon fill="#e9ece2" fill-opacity="0.501961" points="147,116 106,138 126,138" />
<polygon fill="#d2c4ac" fill-opacity="0.501961" points="194,49 88,19 20,47" />
<polygon fill="#5a5f9a" fill-opacity="0.501961" points="112,5 104,-16 167,-16" />
<polygon fill="#0d0d16" fill-opacity="0.501961" points="168,187 116,182 125,236" />
<polygon fill="#f1e9be" fill-opacity="0.501961" points="147,84 164,104 104,83" />
<polygon fill="#545463" fill-opacity="0.501961" points="19,14 33,17 11,-4" />
<polygon fill="#554647" fill-opacity="0.501961" points="40,158 58,167 53,181" />
<polygon fill="#beaf98" fill-opacity="0.501961" points="271,58 228,6 249,198" />
<polygon fill="#d7ac8f" fill-opacity="0.501961" points="171,240 179,233 170,233" />
<polygon fill="#d49b60" fill-opacity="0.501961" points="58,250 40,271 43,236" />
<polygon fill="#f4f9f8" fill-opacity="0.501961" points="107,138 73,145 90,147" />
<polygon fill="#e6cb8f" fill-opacity="0.501961" points="118,131 115,113 61,145" />
<polygon fill="#a59e94" fill-opacity="0.501961" points="109,141 133,145 163,119" />
<polygon fill="#cabb9f" fill-opacity="0.501961" points="213,97 178,183 192,271" />
<polygon fill="#846d65" fill-opacity="0.501961" points="89,164 79,151 40,152" />
<polygon fill="#cdbfa5" fill-opacity="0.501961" points="160,20 155,145 205,135" />
<polygon fill="#1d191f" fill-opacity="0.501961" points="37,-8 55,27 72,-5" />
<polygon fill="#4d4c4e" fill-opacity="0.501961" points="23,54 25,49 39,47" />
<polygon fill="#f2fbf1" fill-opacity="0.501961" points="84,129 108,112 104,98" />
<polygon fill="#e1c67d" fill-opacity="0.501961" points="21,128 34,139 69,100" />
<polygon fill="#f3f6de" fill-opacity="0.501961" points="37,149 22,126 20,140" />
<polygon fill="#e6e3c1" fill-opacity="0.501961" points="95,87 70,86 44,104" />
<polygon fill="#d2c5a9" fill-opacity="0.501961" points="49,29 8,54 40,45" />
<polygon fill="#0d0a16" fill-opacity="0.501961" points="99,241 73,224 138,229" />
<polygon fill="#753b3c" fill-opacity="0.501961" points="110,257 100,241 73,236" />
<polygon fill="#251d28" fill-opacity="0.501961" points="164,238 175,222 154,181" />
<polygon fill="#cabd9c" fill-opacity="0.501961" points="195,249 161,251 160,241" />
<polygon fill="#d0c5ac" fill-opacity="0.501961" points="26,-16 16,1 -9,-10" />
</g>
</svg>