<svg xmlns="http://www.w3.org/2000/svg" version="1.1" width="300" height="300">
<rect x="0" y="0" width="300" height="300" fill="#8f725e" />
<g transform="scale(1.171875) translate(0.5 0.5)">
<polygon fill="#f7fccf" fill-opacity="0.501961" points="34,149 140,-16 232,240" />
<polygon fill="#000000" fill-opacity="0.501961" points="-2,269 -16,110 196,271" />
<polygon fill="#34000a" fill-opacity="0.501961" points="-16,209 104,271 146,159" />
<polygon fill="#604808" fill-opacity="0.501961" points="156,97 86,28 50,117" />
<polygon fill="#e6ffff" fill-opacity="0.501961" points="10,125 190,100 101,178" />
<polygon fill="#000000" fill-opacity="0.501961" points="49,-16 -2,104 -5,-5" />
<polygon fill="#ffffff" fill-opacity="0.501961" points="187,85 121,7 60,13" />
<polygon fill="#973c24" fill-opacity="0.501961" points="211,-16 271,165 161,151" />
<polygon fill="#370000" fill-opacity="0.501961" points="271,191 232,271 223,144" />
<polygon fill="#ffeb97" fill-opacity="0.501961" points="231,235 168,139 141,233" />
<polygon fill="#32001a" fill-opacity="0.501961" points="1,270 70,261 -16,37" />
<polygon fill="#c8e7b9" fill-opacity="0.501961" points="9,108 79,9 18,49" />
<polygon fill="#923f2e" fill-opacity="0.501961" points="269,-6 264,74 53,-16" />
<polygon fill="#49111e" fill-opacity="0.501961" points="142,271 129,172 -9,173" />
<polygon fill="#020000" fill-opacity="0.501961" points="220,237 254,271 123,271" />
<polygon fill="#e6fef2" fill-opacity="0.501961" points="81,174 9,90 34,152" />
<polygon fill="#fdffff" fill-opacity="0.501961" points="175,127 122,168 46,160" />
<polygon fill="#380015" fill-opacity="0.501961" points="97,5 14,-16 -16,29" />
<polygon fill="#5fa048" fill-opacity="0.501961" points="27,15 76,86 114,39" />
<polygon fill="#f0ffdc" fill-opacity="0.501961" points="175,112 79,5 170,52" />
<polygon fill="#dfb15a" fill-opacity="0.501961" points="204,241 231,198 202,151" />
<polygon fill="#f2d174" fill-opacity="0.501961" points="200,249 150,240 131,189" />
<polygon fill="#552425" fill-opacity="0.501961" points="109,219 155,149 10,235" />
<polygon fill="#77302f" fill-opacity="0.501961" points="200,158 271,205 271,85" />
<polygon fill="#ad7149" fill-opacity="0.501961" points="200,73 253,106 143,163" />
<polygon fill="#b4b79f" fill-opacity="0.501961" points="15,119 48,146 153,103" />
<polygon fill="#2d0018" fill-opacity="0.501961" points="8,13 -16,79 13,146" />
<polygon fill="#6d2426" fill-opacity="0.501961" points="55,91 98,74 129,105" />
<polygon fill="#b6744b" fill-opacity="0.501961" points="226,41 180,111 166,31" />
<polygon fill="#e3ffdf" fill-opacity="0.501961" points="164,39 96,6 50,18" />
<polygon fill="#0b0a00" fill-opacity="0.501961" points="42,25 65,51 49,16" />
<polygon fill="#e9cd81" fill-opacity="0.501961" points="65,69 127,80 114,62" />
<polygon fill="#53180f" fill-opacity="0.501961" points="24,109 30,82 62,113" />
<polygon fill="#ffffad" fill-opacity="0.501961" points="136,184 144,231 133,210" />
<polygon fill="#36081f" fill-opacity="0.501961" points="234,188 222,223 271,243" />
<polygon fill="#4f2429" fill-opacity="0.501961" points="-5,161 125,177 19,227" />
<polygon fill="#e8fdf6" fill-opacity="0.501961" points="176,84 164,135 66,169" />
<polygon fill="#519700" fill-opacity="0.501961" points="87,20 97,39 73,23" />
<polygon fill="#2d061a" fill-opacity="0.501961" points="164,254 -16,255 125,212" />
<polygon fill="#dac372" fill-opacity="0.501961" points="137,173 184,150 228,180" />
<polygon fill="#d19f6b" fill-opacity="0.501961" points="87,69 95,108 59,63" />
<polygon fill="#b46c42" fill-opacity="0.501961" points="169,53 174,-10 116,-11" />
<polygon fill="#e8fcfa" fill-opacity="0.501961" points="82,172 156,145 28,141" />
<polygon fill="#171a1c" fill-opacity="0.501961" points="65,35 91,64 74,64" />
<polygon fill="#73001c" fill-opacity="0.501961" points="145,80 124,76 131,95" />
<polygon fill="#b47029" fill-opacity="0.501961" points="220,223 192,243 220,200" />
<polygon fill="#ebe0b0" fill-opacity="0.501961" points="215,176 158,233 146,182" />
<polygon fill="#7d4141" fill-opacity="0.501961" points="154,-16 271,117 222,-14" />
<polygon fill="#56191a" fill-opacity="0.501961" points="82,113 57,80 89,93" />
<polygon fill="#3c031d" fill-opacity="0.501961" points="246,248 159,271 214,235" />
<polygon fill="#9fc65b" fill-opacity="0.501961" points="73,101 29,69 57,110" />
<polygon fill="#3f1522" fill-opacity="0.501961" points="8,117 58,179 -16,180" />
<polygon fill="#c9c8a7" fill-opacity="0.501961" points="61,55 13,69 32,35" />
<polygon fill="#b5f0ad" fill-opacity="0.501961" points="46,17 89,39 72,17" />
<polygon fill="#ebf6e6" fill-opacity="0.501961" points="168,101 128,14 159,41" />
<polygon fill="#441528" fill-opacity="0.501961" points="-16,106 11,-11 37,25" />
<polygon fill="#d1d1b3" fill-opacity="0.501961" points="44,149 11,78 15,118" />
<polygon fill="#e4f1e8" fill-opacity="0.501961" points="176,147 143,164 191,156" />
<polygon fill="#a06446" fill-opacity="0.501961" points="248,186 169,130 183,59" />
<polygon fill="#dcc263" fill-opacity="0.501961" points="142,226 161,163 135,178" />
<polygon fill="#512324" fill-opacity="0.501961" points="12,201 133,164 130,236" />
<polygon fill="#dbe592" fill-opacity="0.501961" points="107,53 136,43 161,92" />
<polygon fill="#6a221b" fill-opacity="0.501961" points="106,104 87,73 100,61" />
<polygon fill="#ad734d" fill-opacity="0.501961" points="177,109 174,56 269,-10" />
<polygon fill="#eeffff" fill-opacity="0.501961" points="231,229 230,237 212,226" />
<polygon fill="#b68454" fill-opacity="0.501961" points="251,83 192,153 150,149" />
<polygon fill="#9dc06e" fill-opacity="0.501961" points="105,103 112,74 130,94" />
<polygon fill="#ece3b8" fill-opacity="0.501961" points="219,173 200,159 227,200" />
<polygon fill="#783a34" fill-opacity="0.501961" points="271,93 205,141 235,210" />
<polygon fill="#642b2a" fill-opacity="0.501961" points="53,-16 15,10 109,8" />
<polygon fill="#d8b46a" fill-opacity="0.501961" points="165,247 177,186 206,242" />
<polygon fill="#320018" fill-opacity="0.501961" points="208,247 166,249 135,271" />
<polygon fill="#c19453" fill-opacity="0.501961" points="271,22 271,52 216,-7" />
<polygon fill="#e6f5ec" fill-opacity="0.501961" points="167,81 111,172 149,151" />
<polygon fill="#d9ece1" fill-opacity="0.501961" points="22,136 59,166 101,144" />
<polygon fill="#ad5a24" fill-opacity="0.501961" points="184,242 204,233 159,233" />
<polygon fill="#783d3d" fill-opacity="0.501961" points="233,26 197,113 271,43" />
<polygon fill="#e0ffa7" fill-opacity="0.501961" points="126,79 105,76 114,63" />
<polygon fill="#f4fdec" fill-opacity="0.501961" points="201,205 194,179 182,205" />
<polygon fill="#532d05" fill-opacity="0.501961" points="47,61 59,59 63,78" />
<polygon fill="#8a3739" fill-opacity="0.501961" points="123,85 126,61 156,100" />
<polygon fill="#461925" fill-opacity="0.501961" points="271,191 226,195 233,246" />
<polygon fill="#8a4a41" fill-opacity="0.501961" points="234,171 224,127 183,151" />
<polygon fill="#d7b45d" fill-opacity="0.501961" points="221,182 186,160 225,216" />
<polygon fill="#b2853b" fill-opacity="0.501961" points="147,204 143,220 162,238" />
<polygon fill="#794042" fill-opacity="0.501961" points="237,11 170,62 191,-16" />
<polygon fill="#e3ecd4" fill-opacity="0.501961" points="142,165 136,183 165,154" />
<polygon fill="#592727" fill-opacity="0.501961" points="102,173 146,163 59,254" />
<polygon fill="#d2c3ac" fill-opacity="0.501961" points="44,59 14,67 10,94" />
<polygon fill="#899a2d" fill-opacity="0.501961" points="109,36 113,67 77,26" />
<polygon fill="#894940" fill-opacity="0.501961" points="214,95 160,139 179,106" />
<polygon fill="#3b1623" fill-opacity="0.501961" points="-16,140 0,110 55,169" />
<polygon fill="#dde6d0" fill-opacity="0.501961" points="158,74 74,11 120,13" />
<polygon fill="#cbd2b5" fill-opacity="0.501961" points="154,121 146,96 64,142" />
<polygon fill="#809a96" fill-opacity="0.501961" points="232,262 250,266 271,213" />
<polygon fill="#ad714d" fill-opacity="0.501961" points="218,81 132,-14 189,98" />
<polygon fill="#a4b888" fill-opacity="0.501961" points="31,72 35,18 60,50" />
<polygon fill="#b6df63" fill-opacity="0.501961" points="43,71 54,85 52,64" />
<polygon fill="#310d1d" fill-opacity="0.501961" points="56,182 56,167 112,180" />
<polygon fill="#dd524c" fill-opacity="0.501961" points="64,67 59,81 77,87" />
</g>
</svg>