<svg xmlns="http://www.w3.org/2000/svg" version="1.1" width="300" height="300">
<rect x="0" y="0" width="300" height="300" fill="#9b8861" />
<g transform="scale(1.171875) translate(0.5 0.5)">
<polygon fill="#dbf0e8" fill-opacity="0.501961" points="-13,271 108,53 239,163" />
<polygon fill="#000009" fill-opacity="0.501961" points="271,34 160,-16 -16,26" />
<polygon fill="#000000" fill-opacity="0.501961" points="271,125 257,73 89,68" />
<polygon fill="#000000" fill-opacity="0.501961" points="-16,64 136,70 17,110" />
<polygon fill="#ffffff" fill-opacity="0.501961" points="93,124 96,227 20,141" />
<polygon fill="#175267" fill-opacity="0.501961" points="177,107 72,173 160,184" />
<polygon fill="#fff3b0" fill-opacity="0.501961" points="271,36 22,32 149,71" />
<polygon fill="#000000" fill-opacity="0.501961" points="12,-16 40,45 -16,52" />
<polygon fill="#281000" fill-opacity="0.501961" points="179,223 66,241 263,153" />
<polygon fill="#e8a126" fill-opacity="0.501961" points="12,92 80,258 -16,258" />
<polygon fill="#eca529" fill-opacity="0.501961" points="271,165 41,271 271,269" />
<polygon fill="#4d1200" fill-opacity="0.501961" points="255,72 148,70 265,185" />
<polygon fill="#ffffdc" fill-opacity="0.501961" points="131,74 180,93 87,142" />
<polygon fill="#002f78" fill-opacity="0.501961" points="136,25 248,-16 271,34" />
<polygon fill="#ebffff" fill-opacity="0.501961" points="86,225 204,133 240,164" />
<polygon fill="#eabd75" fill-opacity="0.501961" points="219,72 38,65 32,8" />
<polygon fill="#210000" fill-opacity="0.501961" points="38,168 66,190 68,213" />
<polygon fill="#e99c22" fill-opacity="0.501961" points="113,103 -16,94 32,142" />
<polygon fill="#c97610" fill-opacity="0.501961" points="271,109 170,107 258,173" />
<polygon fill="#ddf3ff" fill-opacity="0.501961" points="97,216 105,111 24,153" />
<polygon fill="#000000" fill-opacity="0.501961" points="41,30 -16,58 6,-16" />
<polygon fill="#2c0000" fill-opacity="0.501961" points="-11,105 -11,65 136,72" />
<polygon fill="#1d0e00" fill-opacity="0.501961" points="68,265 76,234 158,211" />
<polygon fill="#1a0400" fill-opacity="0.501961" points="77,23 175,-16 191,33" />
<polygon fill="#050200" fill-opacity="0.501961" points="269,116 114,70 267,74" />
<polygon fill="#3a6066" fill-opacity="0.501961" points="110,124 91,155 174,124" />
<polygon fill="#ffffff" fill-opacity="0.501961" points="112,218 69,197 68,238" />
<polygon fill="#f1fcff" fill-opacity="0.501961" points="185,185 173,118 231,151" />
<polygon fill="#f8d46a" fill-opacity="0.501961" points="146,124 65,113 96,79" />
<polygon fill="#0c4b64" fill-opacity="0.501961" points="106,183 171,152 168,173" />
<polygon fill="#381600" fill-opacity="0.501961" points="-16,68 94,69 70,105" />
<polygon fill="#ffffff" fill-opacity="0.501961" points="153,80 175,107 112,109" />
<polygon fill="#89552a" fill-opacity="0.501961" points="87,-8 25,9 94,33" />
<polygon fill="#040000" fill-opacity="0.501961" points="236,107 179,105 171,83" />
<polygon fill="#cca14f" fill-opacity="0.501961" points="6,95 -16,251 86,271" />
<polygon fill="#3b2000" fill-opacity="0.501961" points="241,162 257,180 174,201" />
<polygon fill="#246791" fill-opacity="0.501961" points="271,4 178,-16 199,34" />
<polygon fill="#abbfc9" fill-opacity="0.501961" points="108,132 96,219 76,101" />
<polygon fill="#e3cfa6" fill-opacity="0.501961" points="33,49 36,22 132,51" />
<polygon fill="#dcac49" fill-opacity="0.501961" points="83,253 207,197 181,271" />
<polygon fill="#a47439" fill-opacity="0.501961" points="233,118 240,271 271,227" />
<polygon fill="#995500" fill-opacity="0.501961" points="170,117 217,136 181,105" />
<polygon fill="#00000c" fill-opacity="0.501961" points="24,-16 29,45 -16,51" />
<polygon fill="#faffff" fill-opacity="0.501961" points="39,168 38,137 107,133" />
<polygon fill="#e0b172" fill-opacity="0.501961" points="271,31 173,60 249,61" />
<polygon fill="#000000" fill-opacity="0.501961" points="247,33 255,-16 271,32" />
<polygon fill="#97b7d5" fill-opacity="0.501961" points="171,127 158,190 189,168" />
<polygon fill="#bd892e" fill-opacity="0.501961" points="68,196 -16,220 66,221" />
<polygon fill="#c57b10" fill-opacity="0.501961" points="75,99 -15,95 76,129" />
<polygon fill="#395047" fill-opacity="0.501961" points="134,127 182,113 150,150" />
<polygon fill="#dfb364" fill-opacity="0.501961" points="39,38 136,64 -4,64" />
<polygon fill="#08140f" fill-opacity="0.501961" points="171,191 137,220 212,185" />
<polygon fill="#fcd77b" fill-opacity="0.501961" points="74,105 152,82 102,78" />
<polygon fill="#4b2e0d" fill-opacity="0.501961" points="78,32 93,-16 168,31" />
<polygon fill="#ffe686" fill-opacity="0.501961" points="178,96 121,123 171,115" />
<polygon fill="#edd9b3" fill-opacity="0.501961" points="197,39 75,30 125,54" />
<polygon fill="#c29a4d" fill-opacity="0.501961" points="93,69 193,65 125,49" />
<polygon fill="#d1dfef" fill-opacity="0.501961" points="62,234 203,178 114,185" />
<polygon fill="#89a5a4" fill-opacity="0.501961" points="80,165 137,133 97,209" />
<polygon fill="#f3fdfe" fill-opacity="0.501961" points="37,143 106,189 67,194" />
<polygon fill="#353010" fill-opacity="0.501961" points="39,167 67,192 44,188" />
<polygon fill="#e6bf4f" fill-opacity="0.501961" points="147,119 104,120 84,94" />
<polygon fill="#c39f5b" fill-opacity="0.501961" points="83,124 22,106 4,148" />
<polygon fill="#effaff" fill-opacity="0.501961" points="178,121 166,143 217,141" />
<polygon fill="#381600" fill-opacity="0.501961" points="147,69 110,75 160,81" />
<polygon fill="#134c4e" fill-opacity="0.501961" points="136,179 113,178 108,163" />
<polygon fill="#d3af63" fill-opacity="0.501961" points="34,163 82,271 -16,158" />
<polygon fill="#181806" fill-opacity="0.501961" points="159,201 68,245 119,236" />
<polygon fill="#95784e" fill-opacity="0.501961" points="46,34 90,14 25,8" />
<polygon fill="#90a9a5" fill-opacity="0.501961" points="155,160 112,149 126,174" />
<polygon fill="#f3fffe" fill-opacity="0.501961" points="175,103 112,96 125,112" />
<polygon fill="#000810" fill-opacity="0.501961" points="37,42 3,-16 -16,49" />
<polygon fill="#fae7a2" fill-opacity="0.501961" points="178,103 166,85 126,79" />
<polygon fill="#d4ddd5" fill-opacity="0.501961" points="88,86 83,137 76,97" />
<polygon fill="#3a1d00" fill-opacity="0.501961" points="79,99 69,69 -16,94" />
<polygon fill="#000c15" fill-opacity="0.501961" points="222,186 195,186 235,168" />
<polygon fill="#e8c263" fill-opacity="0.501961" points="20,249 65,271 68,220" />
<polygon fill="#a7773b" fill-opacity="0.501961" points="32,139 -16,149 31,159" />
<polygon fill="#f4fefe" fill-opacity="0.501961" points="102,222 66,233 73,187" />
<polygon fill="#00010c" fill-opacity="0.501961" points="155,165 128,177 142,176" />
<polygon fill="#2a1800" fill-opacity="0.501961" points="215,71 153,74 191,108" />
<polygon fill="#9d660f" fill-opacity="0.501961" points="141,221 77,250 115,245" />
<polygon fill="#3e2100" fill-opacity="0.501961" points="71,89 132,70 51,66" />
<polygon fill="#d18a22" fill-opacity="0.501961" points="27,50 -7,48 3,65" />
<polygon fill="#9a6235" fill-opacity="0.501961" points="271,49 271,73 201,72" />
<polygon fill="#cbb08e" fill-opacity="0.501961" points="157,34 256,32 252,59" />
<polygon fill="#000a26" fill-opacity="0.501961" points="166,33 164,-12 187,0" />
<polygon fill="#b06107" fill-opacity="0.501961" points="4,95 73,99 -16,118" />
<polygon fill="#b08642" fill-opacity="0.501961" points="248,175 262,246 180,211" />
<polygon fill="#efffff" fill-opacity="0.501961" points="31,155 103,136 57,179" />
<polygon fill="#c99d46" fill-opacity="0.501961" points="69,208 -6,271 38,177" />
<polygon fill="#335c4f" fill-opacity="0.501961" points="114,132 106,149 102,139" />
<polygon fill="#25476f" fill-opacity="0.501961" points="246,32 179,33 255,-2" />
<polygon fill="#518282" fill-opacity="0.501961" points="109,171 85,177 136,183" />
<polygon fill="#1b2f39" fill-opacity="0.501961" points="158,125 174,122 176,108" />
<polygon fill="#95b3c1" fill-opacity="0.501961" points="159,180 87,203 104,181" />
<polygon fill="#a27140" fill-opacity="0.501961" points="249,168 266,136 205,129" />
<polygon fill="#833b04" fill-opacity="0.501961" points="219,130 252,108 271,134" />
<polygon fill="#321b06" fill-opacity="0.501961" points="162,-16 169,30 86,6" />
<polygon fill="#e3d2a9" fill-opacity="0.501961" points="89,32 37,48 149,52" />
</g>
</svg>