<svg xmlns="http://www.w3.org/2000/svg" version="1.1" width="300" height="300">
<rect x="0" y="0" width="300" height="300" fill="#715c57" />
<g transform="scale(1.171875) translate(0.5 0.5)">
<polygon fill="#c6ddc2" fill-opacity="0.501961" points="185,232 15,183 34,-16" />
<polygon fill="#5b0000" fill-opacity="0.501961" points="234,-16 148,267 271,255" />
<polygon fill="#000000" fill-opacity="0.501961" points="177,259 -5,170 -15,263" />
<polygon fill="#ff000d" fill-opacity="0.501961" points="247,203 140,109 271,75" />
<polygon fill="#172e3c" fill-opacity="0.501961" points="58,64 101,170 170,131" />
<polygon fill="#ffffda" fill-opacity="0.501961" points="111,243 107,157 177,176" />
<polygon fill="#00040d" fill-opacity="0.501961" points="72,265 271,261 271,174" />
<polygon fill="#00020f" fill-opacity="0.501961" points="86,271 35,234 99,162" />
<polygon fill="#8a9b8e" fill-opacity="0.501961" points="-16,-16 161,22 29,127" />
<polygon fill="#ffffff" fill-opacity="0.501961" points="40,113 93,132 11,155" />
<polygon fill="#ffffff" fill-opacity="0.501961" points="39,197 78,189 10,152" />
<polygon fill="#4c5b57" fill-opacity="0.501961" points="-16,119 165,116 101,59" />
<polygon fill="#001116" fill-opacity="0.501961" points="141,129 271,247 213,264" />
<polygon fill="#20534e" fill-opacity="0.501961" points="271,-8 271,114 116,-16" />
<polygon fill="#e80008" fill-opacity="0.501961" points="212,195 161,145 190,71" />
<polygon fill="#f5f2a3" fill-opacity="0.501961" points="125,238 145,154 177,211" />
<polygon fill="#ffbd23" fill-opacity="0.501961" points="21,156 70,130 66,184" />
<polygon fill="#040011" fill-opacity="0.501961" points="96,135 89,179 146,138" />
<polygon fill="#d5ffff" fill-opacity="0.501961" points="154,160 115,158 175,198" />
<polygon fill="#ffefe9" fill-opacity="0.501961" points="96,152 64,114 75,191" />
<polygon fill="#d2eeeb" fill-opacity="0.501961" points="129,110 96,128 115,139" />
<polygon fill="#00273f" fill-opacity="0.501961" points="21,186 -16,163 5,79" />
<polygon fill="#1f2324" fill-opacity="0.501961" points="75,188 132,250 -16,249" />
<polygon fill="#07191d" fill-opacity="0.501961" points="271,191 171,186 172,271" />
<polygon fill="#a5a89f" fill-opacity="0.501961" points="38,12 133,35 -16,92" />
<polygon fill="#637062" fill-opacity="0.501961" points="159,124 -16,111 211,8" />
<polygon fill="#ee0b28" fill-opacity="0.501961" points="186,83 271,96 271,198" />
<polygon fill="#e6ffff" fill-opacity="0.501961" points="106,224 96,203 136,235" />
<polygon fill="#e8ffff" fill-opacity="0.501961" points="25,130 45,196 13,165" />
<polygon fill="#e29b02" fill-opacity="0.501961" points="146,177 164,205 149,227" />
<polygon fill="#202727" fill-opacity="0.501961" points="172,170 166,136 89,135" />
<polygon fill="#e0ffff" fill-opacity="0.501961" points="93,194 106,165 156,165" />
<polygon fill="#feffff" fill-opacity="0.501961" points="26,186 58,196 89,175" />
<polygon fill="#7aaea5" fill-opacity="0.501961" points="183,90 228,33 190,57" />
<polygon fill="#001e1f" fill-opacity="0.501961" points="213,69 168,85 227,83" />
<polygon fill="#eaffff" fill-opacity="0.501961" points="55,114 17,137 94,138" />
<polygon fill="#252529" fill-opacity="0.501961" points="51,271 109,192 43,196" />
<polygon fill="#5d3f12" fill-opacity="0.501961" points="205,154 269,114 192,135" />
<polygon fill="#1e1821" fill-opacity="0.501961" points="257,45 271,-13 190,-16" />
<polygon fill="#365053" fill-opacity="0.501961" points="30,123 -16,184 6,50" />
<polygon fill="#c46600" fill-opacity="0.501961" points="35,141 61,181 33,166" />
<polygon fill="#17191e" fill-opacity="0.501961" points="14,261 89,224 206,255" />
<polygon fill="#393e4f" fill-opacity="0.501961" points="92,136 48,99 93,86" />
<polygon fill="#f5ba31" fill-opacity="0.501961" points="145,175 113,184 130,200" />
<polygon fill="#df0011" fill-opacity="0.501961" points="271,151 176,165 198,186" />
<polygon fill="#5a6f69" fill-opacity="0.501961" points="256,49 211,28 241,99" />
<polygon fill="#c2bdbb" fill-opacity="0.501961" points="76,78 75,32 106,22" />
<polygon fill="#171d1f" fill-opacity="0.501961" points="238,249 101,271 218,176" />
<polygon fill="#faf6b8" fill-opacity="0.501961" points="98,213 156,229 125,190" />
<polygon fill="#bef1ff" fill-opacity="0.501961" points="157,165 167,219 172,189" />
<polygon fill="#000000" fill-opacity="0.501961" points="254,98 271,53 253,-11" />
<polygon fill="#e8c369" fill-opacity="0.501961" points="75,133 33,141 77,180" />
<polygon fill="#0c0910" fill-opacity="0.501961" points="91,199 101,170 67,198" />
<polygon fill="#f40029" fill-opacity="0.501961" points="163,122 180,89 271,100" />
<polygon fill="#a48c67" fill-opacity="0.501961" points="121,-7 120,120 138,58" />
<polygon fill="#343834" fill-opacity="0.501961" points="105,160 135,107 168,151" />
<polygon fill="#222932" fill-opacity="0.501961" points="27,187 -4,271 1,132" />
<polygon fill="#87afb5" fill-opacity="0.501961" points="112,140 97,104 90,128" />
<polygon fill="#191c1e" fill-opacity="0.501961" points="173,231 190,167 170,170" />
<polygon fill="#000d06" fill-opacity="0.501961" points="228,136 208,128 217,143" />
<polygon fill="#e2b72e" fill-opacity="0.501961" points="153,217 144,233 122,225" />
<polygon fill="#db0117" fill-opacity="0.501961" points="221,197 271,159 235,114" />
<polygon fill="#d99522" fill-opacity="0.501961" points="232,127 212,119 196,130" />
<polygon fill="#5a685a" fill-opacity="0.501961" points="130,-6 145,144 193,50" />
<polygon fill="#262a21" fill-opacity="0.501961" points="163,63 180,90 197,83" />
<polygon fill="#747f73" fill-opacity="0.501961" points="160,-8 53,-8 41,56" />
<polygon fill="#242124" fill-opacity="0.501961" points="28,188 181,261 90,256" />
<polygon fill="#e10019" fill-opacity="0.501961" points="162,114 203,84 186,170" />
<polygon fill="#edffff" fill-opacity="0.501961" points="64,195 29,182 86,177" />
<polygon fill="#e7ffff" fill-opacity="0.501961" points="54,116 85,126 18,147" />
<polygon fill="#d8faff" fill-opacity="0.501961" points="152,161 127,156 93,197" />
<polygon fill="#7fa597" fill-opacity="0.501961" points="173,69 196,27 166,55" />
<polygon fill="#10131a" fill-opacity="0.501961" points="88,114 100,146 82,121" />
<polygon fill="#c7faff" fill-opacity="0.501961" points="131,233 141,228 149,231" />
<polygon fill="#d38320" fill-opacity="0.501961" points="221,153 227,123 236,137" />
<polygon fill="#0b2c2b" fill-opacity="0.501961" points="-12,1 4,15 8,-9" />
<polygon fill="#dcf2ff" fill-opacity="0.501961" points="93,144 88,173 82,128" />
<polygon fill="#1c2241" fill-opacity="0.501961" points="110,162 90,186 93,134" />
<polygon fill="#e1aa23" fill-opacity="0.501961" points="112,195 120,224 110,207" />
<polygon fill="#686159" fill-opacity="0.501961" points="105,83 20,129 19,96" />
<polygon fill="#f2f8db" fill-opacity="0.501961" points="119,195 154,209 123,223" />
<polygon fill="#8a8377" fill-opacity="0.501961" points="153,61 16,100 75,56" />
<polygon fill="#e5ffff" fill-opacity="0.501961" points="17,146 24,178 42,120" />
<polygon fill="#c5eeff" fill-opacity="0.501961" points="104,221 97,205 113,214" />
<polygon fill="#a0b3ab" fill-opacity="0.501961" points="185,56 213,54 199,75" />
<polygon fill="#4d706b" fill-opacity="0.501961" points="245,69 231,106 251,81" />
<polygon fill="#394947" fill-opacity="0.501961" points="206,69 236,-3 230,87" />
<polygon fill="#001721" fill-opacity="0.501961" points="105,207 96,198 105,192" />
<polygon fill="#defcff" fill-opacity="0.501961" points="170,183 109,172 154,163" />
<polygon fill="#313737" fill-opacity="0.501961" points="159,166 122,141 167,130" />
<polygon fill="#aaab9d" fill-opacity="0.501961" points="70,65 31,82 -7,21" />
<polygon fill="#efffff" fill-opacity="0.501961" points="18,167 77,185 50,196" />
<polygon fill="#bae4f3" fill-opacity="0.501961" points="123,234 142,233 106,224" />
<polygon fill="#d3e8eb" fill-opacity="0.501961" points="123,127 108,122 111,137" />
<polygon fill="#c69767" fill-opacity="0.501961" points="82,155 62,181 89,168" />
<polygon fill="#d79d21" fill-opacity="0.501961" points="137,198 163,200 156,188" />
<polygon fill="#e76721" fill-opacity="0.501961" points="205,126 212,152 197,135" />
<polygon fill="#74939c" fill-opacity="0.501961" points="124,116 111,99 92,114" />
<polygon fill="#495851" fill-opacity="0.501961" points="152,151 165,120 124,86" />
<polygon fill="#13171a" fill-opacity="0.501961" points="169,209 269,183 255,271" />
</g>
</svg>