<svg xmlns="http://www.w3.org/2000/svg" version="1.1" width="300" height="300">
<rect x="0" y="0" width="300" height="300" fill="#616761" />
<g transform="scale(1.171875) translate(0.5 0.5)">
<polygon fill="#ecffff" fill-opacity="0.501961" points="56,158 156,175 144,-16" />
<polygon fill="#000000" fill-opacity="0.501961" points="271,150 -16,174 249,271" />
<polygon fill="#ffffff" fill-opacity="0.501961" points="-16,175 14,-16 45,152" />
<polygon fill="#fff683" fill-opacity="0.501961" points="-16,1 118,45 220,-16" />
<polygon fill="#000000" fill-opacity="0.501961" points="4,271 -16,155 77,227" />
<polygon fill="#ffffab" fill-opacity="0.501961" points="60,270 80,202 191,271" />
<polygon fill="#000119" fill-opacity="0.501961" points="271,260 253,-16 153,266" />
<polygon fill="#ffffff" fill-opacity="0.501961" points="41,59 -16,57 24,167" />
<polygon fill="#000000" fill-opacity="0.501961" points="36,68 114,76 74,18" />
<polygon fill="#afd6f8" fill-opacity="0.501961" points="164,173 109,177 133,7" />
<polygon fill="#4783ab" fill-opacity="0.501961" points="180,189 174,18 255,101" />
<polygon fill="#c4d5ec" fill-opacity="0.501961" points="62,39 -16,30 31,-16" />
<polygon fill="#000000" fill-opacity="0.501961" points="12,49 66,42 -16,31" />
<polygon fill="#000000" fill-opacity="0.501961" points="16,271 62,159 -16,168" />
<polygon fill="#000000" fill-opacity="0.501961" points="118,129 128,110 145,130" />
<polygon fill="#000001" fill-opacity="0.501961" points="172,15 144,34 175,137" />
<polygon fill="#fff560" fill-opacity="0.501961" points="27,80 136,98 80,68" />
<polygon fill="#ecffff" fill-opacity="0.501961" points="43,74 -16,49 -1,188" />
<polygon fill="#ffe153" fill-opacity="0.501961" points="192,0 21,-16 131,34" />
<polygon fill="#c9540b" fill-opacity="0.501961" points="52,163 51,271 84,230" />
<polygon fill="#e0ffe4" fill-opacity="0.501961" points="117,133 144,42 71,116" />
<polygon fill="#000000" fill-opacity="0.501961" points="271,217 107,216 193,271" />
<polygon fill="#4c321a" fill-opacity="0.501961" points="31,149 79,128 43,53" />
<polygon fill="#0a0a12" fill-opacity="0.501961" points="21,38 131,47 96,77" />
<polygon fill="#112c47" fill-opacity="0.501961" points="271,193 190,1 257,-16" />
<polygon fill="#cbffff" fill-opacity="0.501961" points="56,161 65,130 32,158" />
<polygon fill="#fff1bd" fill-opacity="0.501961" points="119,271 63,192 129,233" />
<polygon fill="#000000" fill-opacity="0.501961" points="-16,271 53,253 22,157" />
<polygon fill="#131110" fill-opacity="0.501961" points="183,91 170,185 157,91" />
<polygon fill="#3b1517" fill-opacity="0.501961" points="134,34 155,25 107,28" />
<polygon fill="#bfcef6" fill-opacity="0.501961" points="101,46 147,32 81,29" />
<polygon fill="#070400" fill-opacity="0.501961" points="187,191 270,271 258,105" />
<polygon fill="#21261d" fill-opacity="0.501961" points="130,234 69,157 113,153" />
<polygon fill="#b9ebff" fill-opacity="0.501961" points="147,119 149,170 109,173" />
<polygon fill="#4e1300" fill-opacity="0.501961" points="66,17 97,27 48,-5" />
<polygon fill="#000001" fill-opacity="0.501961" points="90,105 36,92 83,88" />
<polygon fill="#280400" fill-opacity="0.501961" points="76,204 0,244 79,228" />
<polygon fill="#ffd76a" fill-opacity="0.501961" points="90,219 52,247 115,271" />
<polygon fill="#e6c984" fill-opacity="0.501961" points="31,104 97,114 74,99" />
<polygon fill="#defdff" fill-opacity="0.501961" points="4,159 -8,47 45,50" />
<polygon fill="#000011" fill-opacity="0.501961" points="54,157 37,132 52,127" />
<polygon fill="#1b244e" fill-opacity="0.501961" points="36,59 -3,55 23,50" />
<polygon fill="#83b0a6" fill-opacity="0.501961" points="131,136 51,132 128,184" />
<polygon fill="#ba7d00" fill-opacity="0.501961" points="115,79 76,69 100,89" />
<polygon fill="#ffdd6c" fill-opacity="0.501961" points="155,113 190,120 181,111" />
<polygon fill="#000008" fill-opacity="0.501961" points="174,85 196,112 155,106" />
<polygon fill="#c7e1fb" fill-opacity="0.501961" points="145,55 106,57 144,130" />
<polygon fill="#f9ffff" fill-opacity="0.501961" points="43,-16 39,36 28,24" />
<polygon fill="#a0edff" fill-opacity="0.501961" points="38,128 39,158 -16,165" />
<polygon fill="#6a8997" fill-opacity="0.501961" points="153,117 142,27 166,65" />
<polygon fill="#141412" fill-opacity="0.501961" points="201,159 233,191 85,205" />
<polygon fill="#3a5a89" fill-opacity="0.501961" points="195,199 122,202 141,223" />
<polygon fill="#5892c8" fill-opacity="0.501961" points="176,115 181,167 212,118" />
<polygon fill="#ebb44d" fill-opacity="0.501961" points="66,114 53,130 39,115" />
<polygon fill="#98a9b1" fill-opacity="0.501961" points="204,100 173,22 177,91" />
<polygon fill="#fca225" fill-opacity="0.501961" points="57,1 116,-16 86,24" />
<polygon fill="#3a657a" fill-opacity="0.501961" points="204,166 255,95 188,-16" />
<polygon fill="#dafff2" fill-opacity="0.501961" points="85,91 116,129 146,85" />
<polygon fill="#0a0511" fill-opacity="0.501961" points="62,89 33,126 39,86" />
<polygon fill="#fff28c" fill-opacity="0.501961" points="115,28 179,12 84,-16" />
<polygon fill="#ff8305" fill-opacity="0.501961" points="47,235 71,233 71,271" />
<polygon fill="#546383" fill-opacity="0.501961" points="48,-16 39,28 69,34" />
<polygon fill="#010314" fill-opacity="0.501961" points="50,50 -16,44 10,33" />
<polygon fill="#96d894" fill-opacity="0.501961" points="108,100 76,106 84,175" />
<polygon fill="#949a96" fill-opacity="0.501961" points="26,37 35,-16 -16,5" />
<polygon fill="#868681" fill-opacity="0.501961" points="180,176 155,173 151,136" />
<polygon fill="#0e0d13" fill-opacity="0.501961" points="93,68 76,17 38,71" />
<polygon fill="#000000" fill-opacity="0.501961" points="129,113 120,128 142,129" />
<polygon fill="#090100" fill-opacity="0.501961" points="62,164 -15,195 16,161" />
<polygon fill="#ffd759" fill-opacity="0.501961" points="81,90 36,81 94,73" />
<polygon fill="#000000" fill-opacity="0.501961" points="163,155 178,161 174,119" />
<polygon fill="#000014" fill-opacity="0.501961" points="34,139 39,148 26,147" />
<polygon fill="#e5f9e6" fill-opacity="0.501961" points="73,164 53,129 53,154" />
<polygon fill="#0e0905" fill-opacity="0.501961" points="171,19 150,24 176,98" />
<polygon fill="#e20413" fill-opacity="0.501961" points="271,253 250,242 235,247" />
<polygon fill="#dfd9b4" fill-opacity="0.501961" points="71,195 94,199 63,203" />
<polygon fill="#dcf0d6" fill-opacity="0.501961" points="64,148 79,138 63,175" />
<polygon fill="#0b0906" fill-opacity="0.501961" points="103,183 156,247 58,185" />
<polygon fill="#efffff" fill-opacity="0.501961" points="-16,66 15,154 42,80" />
<polygon fill="#090000" fill-opacity="0.501961" points="38,160 55,271 -16,259" />
<polygon fill="#b55547" fill-opacity="0.501961" points="44,200 74,223 58,179" />
<polygon fill="#d9783d" fill-opacity="0.501961" points="129,232 192,271 130,262" />
<polygon fill="#a2a3a1" fill-opacity="0.501961" points="45,-4 61,49 70,22" />
<polygon fill="#011317" fill-opacity="0.501961" points="71,34 39,26 63,25" />
<polygon fill="#13171e" fill-opacity="0.501961" points="40,43 120,64 75,71" />
<polygon fill="#00000b" fill-opacity="0.501961" points="33,56 70,70 56,54" />
<polygon fill="#060d13" fill-opacity="0.501961" points="150,174 154,216 128,172" />
<polygon fill="#ffc241" fill-opacity="0.501961" points="196,-2 115,-16 168,18" />
<polygon fill="#ecffff" fill-opacity="0.501961" points="4,160 50,158 44,147" />
<polygon fill="#6d8287" fill-opacity="0.501961" points="151,93 163,128 153,163" />
<polygon fill="#0d1e27" fill-opacity="0.501961" points="79,51 127,57 121,45" />
<polygon fill="#e6fff2" fill-opacity="0.501961" points="109,64 125,71 120,112" />
<polygon fill="#000223" fill-opacity="0.501961" points="53,122 78,129 74,119" />
<polygon fill="#cdd2c7" fill-opacity="0.501961" points="-6,10 55,35 1,35" />
<polygon fill="#001057" fill-opacity="0.501961" points="95,145 88,146 93,134" />
<polygon fill="#72e7d6" fill-opacity="0.501961" points="-1,148 4,175 22,147" />
<polygon fill="#00000b" fill-opacity="0.501961" points="73,160 60,179 88,178" />
<polygon fill="#f1ece7" fill-opacity="0.501961" points="162,146 162,165 154,168" />
<polygon fill="#e1ffff" fill-opacity="0.501961" points="41,59 32,121 -3,56" />
<polygon fill="#adb2b5" fill-opacity="0.501961" points="150,92 120,32 146,29" />
</g>
</svg>