<svg xmlns="http://www.w3.org/2000/svg" version="1.1" width="300" height="300">
<rect x="0" y="0" width="300" height="300" fill="#766954" />
<g transform="scale(1.171875) translate(0.5 0.5)">
<polygon fill="#ffffe0" fill-opacity="0.501961" points="142,39 186,233 -16,84" />
<polygon fill="#000000" fill-opacity="0.501961" points="130,10 213,271 271,23" />
<polygon fill="#ffecb2" fill-opacity="0.501961" points="5,76 68,270 150,37" />
<polygon fill="#000000" fill-opacity="0.501961" points="25,257 264,271 271,188" />
<polygon fill="#000000" fill-opacity="0.501961" points="-16,257 -16,14 65,271" />
<polygon fill="#1e1614" fill-opacity="0.501961" points="1,76 229,15 -15,14" />
<polygon fill="#e5c68f" fill-opacity="0.501961" points="141,47 63,246 189,209" />
<polygon fill="#352825" fill-opacity="0.501961" points="244,271 166,268 264,-16" />
<polygon fill="#f5d9a9" fill-opacity="0.501961" points="90,177 44,208 15,77" />
<polygon fill="#a29067" fill-opacity="0.501961" points="97,208 124,147 60,81" />
<polygon fill="#2d221b" fill-opacity="0.501961" points="97,-14 150,57 148,-12" />
<polygon fill="#eddcb3" fill-opacity="0.501961" points="188,206 70,64 141,47" />
<polygon fill="#a7a69d" fill-opacity="0.501961" points="233,151 245,154 226,195" />
<polygon fill="#d2d7d6" fill-opacity="0.501961" points="175,-16 201,15 182,16" />
<polygon fill="#1b1111" fill-opacity="0.501961" points="221,-6 191,5 241,31" />
<polygon fill="#1f1712" fill-opacity="0.501961" points="52,-16 98,34 42,6" />
<polygon fill="#2a1f19" fill-opacity="0.501961" points="233,271 217,205 -1,263" />
<polygon fill="#7e6a4a" fill-opacity="0.501961" points="95,235 134,192 96,166" />
<polygon fill="#ffffff" fill-opacity="0.501961" points="47,14 33,-10 36,12" />
<polygon fill="#feffff" fill-opacity="0.501961" points="109,24 99,-2 105,-16" />
<polygon fill="#f9fdff" fill-opacity="0.501961" points="264,-2 254,-8 246,22" />
<polygon fill="#ffffff" fill-opacity="0.501961" points="24,12 30,14 25,-2" />
<polygon fill="#d0b589" fill-opacity="0.501961" points="189,209 148,106 141,224" />
<polygon fill="#ffffff" fill-opacity="0.501961" points="18,-14 11,10 7,-5" />
<polygon fill="#e2cfa2" fill-opacity="0.501961" points="125,101 16,110 42,174" />
<polygon fill="#392e29" fill-opacity="0.501961" points="235,-16 235,178 271,118" />
<polygon fill="#4c4037" fill-opacity="0.501961" points="188,53 158,-7 141,54" />
<polygon fill="#2b1e19" fill-opacity="0.501961" points="-16,263 63,265 23,144" />
<polygon fill="#2b2119" fill-opacity="0.501961" points="183,184 200,227 271,188" />
<polygon fill="#372c21" fill-opacity="0.501961" points="107,26 114,-16 208,49" />
<polygon fill="#e1e3d6" fill-opacity="0.501961" points="228,177 233,167 229,188" />
<polygon fill="#e3eae9" fill-opacity="0.501961" points="163,-16 168,17 172,-16" />
<polygon fill="#6c6963" fill-opacity="0.501961" points="251,215 228,234 226,210" />
<polygon fill="#a9aca6" fill-opacity="0.501961" points="250,179 239,152 242,177" />
<polygon fill="#ffffff" fill-opacity="0.501961" points="153,12 154,-3 148,-11" />
<polygon fill="#adb1b3" fill-opacity="0.501961" points="252,142 254,192 268,192" />
<polygon fill="#b89369" fill-opacity="0.501961" points="58,245 37,181 86,239" />
<polygon fill="#372f29" fill-opacity="0.501961" points="106,41 100,-11 90,15" />
<polygon fill="#e6ebf0" fill-opacity="0.501961" points="248,5 251,-6 234,15" />
<polygon fill="#ddc498" fill-opacity="0.501961" points="59,220 96,238 77,138" />
<polygon fill="#2d221d" fill-opacity="0.501961" points="26,16 21,1 -16,30" />
<polygon fill="#f2f9fd" fill-opacity="0.501961" points="233,14 226,-7 232,-7" />
<polygon fill="#3a2c26" fill-opacity="0.501961" points="171,22 246,11 271,171" />
<polygon fill="#bda981" fill-opacity="0.501961" points="50,129 104,109 46,98" />
<polygon fill="#30241d" fill-opacity="0.501961" points="238,116 168,135 206,253" />
<polygon fill="#3b2e24" fill-opacity="0.501961" points="-4,60 -16,148 38,176" />
<polygon fill="#6b5839" fill-opacity="0.501961" points="119,142 117,167 110,150" />
<polygon fill="#120500" fill-opacity="0.501961" points="186,10 182,-4 187,-2" />
<polygon fill="#cbb283" fill-opacity="0.501961" points="112,172 47,214 37,172" />
<polygon fill="#ecd9b7" fill-opacity="0.501961" points="147,43 72,98 13,74" />
<polygon fill="#e1c999" fill-opacity="0.501961" points="143,222 159,218 124,173" />
<polygon fill="#2f2622" fill-opacity="0.501961" points="190,11 198,11 194,-3" />
<polygon fill="#2c231e" fill-opacity="0.501961" points="232,176 231,223 268,196" />
<polygon fill="#c9cdcb" fill-opacity="0.501961" points="92,9 85,15 92,-4" />
<polygon fill="#ffffff" fill-opacity="0.501961" points="71,-16 67,-8 74,8" />
<polygon fill="#e7d5a8" fill-opacity="0.501961" points="42,158 12,107 110,145" />
<polygon fill="#948264" fill-opacity="0.501961" points="137,225 84,240 114,209" />
<polygon fill="#352e2a" fill-opacity="0.501961" points="178,28 178,-16 170,7" />
<polygon fill="#cbaf72" fill-opacity="0.501961" points="137,40 119,44 144,57" />
<polygon fill="#282323" fill-opacity="0.501961" points="82,11 63,-16 90,0" />
<polygon fill="#41372c" fill-opacity="0.501961" points="22,125 27,150 -16,99" />
<polygon fill="#2c241f" fill-opacity="0.501961" points="254,123 239,142 249,182" />
<polygon fill="#e2e6e2" fill-opacity="0.501961" points="200,-15 203,0 172,0" />
<polygon fill="#f9fcf3" fill-opacity="0.501961" points="26,14 29,-10 23,-1" />
<polygon fill="#937b51" fill-opacity="0.501961" points="92,108 94,98 87,89" />
<polygon fill="#7a674b" fill-opacity="0.501961" points="89,177 90,154 81,155" />
<polygon fill="#3e352a" fill-opacity="0.501961" points="-16,63 125,25 59,8" />
<polygon fill="#e1d19e" fill-opacity="0.501961" points="163,121 127,177 112,112" />
<polygon fill="#e7d8ae" fill-opacity="0.501961" points="154,123 147,67 75,126" />
<polygon fill="#7f6042" fill-opacity="0.501961" points="56,237 60,247 77,241" />
<polygon fill="#3b3127" fill-opacity="0.501961" points="164,-10 136,41 165,40" />
<polygon fill="#ab976f" fill-opacity="0.501961" points="93,90 64,83 81,82" />
<polygon fill="#ffffff" fill-opacity="0.501961" points="187,15 192,15 187,1" />
<polygon fill="#33292a" fill-opacity="0.501961" points="5,16 -6,-16 11,-12" />
<polygon fill="#f7f5ed" fill-opacity="0.501961" points="5,6 13,9 12,2" />
<polygon fill="#f8fbec" fill-opacity="0.501961" points="106,21 103,4 108,13" />
<polygon fill="#907f59" fill-opacity="0.501961" points="96,125 98,140 87,142" />
<polygon fill="#241d17" fill-opacity="0.501961" points="254,148 256,173 271,180" />
<polygon fill="#7e796c" fill-opacity="0.501961" points="141,40 161,49 149,53" />
<polygon fill="#302720" fill-opacity="0.501961" points="190,211 5,263 268,262" />
<polygon fill="#7d7a76" fill-opacity="0.501961" points="227,231 232,234 230,249" />
<polygon fill="#ffffff" fill-opacity="0.501961" points="49,13 38,12 48,10" />
<polygon fill="#3e3328" fill-opacity="0.501961" points="109,3 212,24 107,33" />
<polygon fill="#b6b7b0" fill-opacity="0.501961" points="228,13 242,13 242,8" />
<polygon fill="#312c2d" fill-opacity="0.501961" points="35,0 31,15 26,-10" />
<polygon fill="#836f4f" fill-opacity="0.501961" points="62,106 82,100 66,98" />
<polygon fill="#e9ebe5" fill-opacity="0.501961" points="191,13 197,10 207,14" />
<polygon fill="#765e3d" fill-opacity="0.501961" points="54,122 47,116 48,107" />
<polygon fill="#d8c191" fill-opacity="0.501961" points="105,186 40,147 35,180" />
<polygon fill="#a8a69b" fill-opacity="0.501961" points="234,152 242,150 229,174" />
<polygon fill="#3e362d" fill-opacity="0.501961" points="39,10 44,-16 69,9" />
<polygon fill="#291f1b" fill-opacity="0.501961" points="271,240 233,271 230,218" />
<polygon fill="#322923" fill-opacity="0.501961" points="249,206 231,198 236,152" />
<polygon fill="#88867f" fill-opacity="0.501961" points="258,172 246,179 223,174" />
<polygon fill="#e5d0ad" fill-opacity="0.501961" points="3,76 64,121 58,63" />
<polygon fill="#756246" fill-opacity="0.501961" points="94,190 97,220 113,206" />
<polygon fill="#fffffb" fill-opacity="0.501961" points="181,2 180,12 185,18" />
<polygon fill="#41372d" fill-opacity="0.501961" points="-6,181 16,118 0,64" />
<polygon fill="#372b23" fill-opacity="0.501961" points="247,41 255,6 270,85" />
<polygon fill="#aba9a1" fill-opacity="0.501961" points="227,217 230,226 227,232" />
</g>
</svg>