<svg xmlns="http://www.w3.org/2000/svg" version="1.1" width="300" height="300">
<rect x="0" y="0" width="300" height="300" fill="#5d5e5d" />
<g transform="scale(1.171875) translate(0.5 0.5)">
<polygon fill="#feeed1" fill-opacity="0.501961" points="263,160 259,-16 -16,35" />
<polygon fill="#000000" fill-opacity="0.501961" points="3,271 271,248 -16,84" />
<polygon fill="#000004" fill-opacity="0.501961" points="-16,251 220,145 271,259" />
<polygon fill="#ffffff" fill-opacity="0.501961" points="73,1 209,89 148,-14" />
<polygon fill="#702305" fill-opacity="0.501961" points="37,35 210,103 62,-7" />
<polygon fill="#e6fcff" fill-opacity="0.501961" points="208,144 120,178 116,146" />
<polygon fill="#001b30" fill-opacity="0.501961" points="151,-6 228,75 184,-16" />
<polygon fill="#e3f8ff" fill-opacity="0.501961" points="135,103 14,51 118,52" />
<polygon fill="#f2ffff" fill-opacity="0.501961" points="242,94 230,158 271,216" />
<polygon fill="#381e1a" fill-opacity="0.501961" points="211,79 170,83 202,163" />
<polygon fill="#dfefd8" fill-opacity="0.501961" points="-15,-16 11,53 47,15" />
<polygon fill="#f1ffff" fill-opacity="0.501961" points="246,60 183,-16 271,4" />
<polygon fill="#00000b" fill-opacity="0.501961" points="5,271 237,191 -12,168" />
<polygon fill="#ffffff" fill-opacity="0.501961" points="68,153 87,148 77,172" />
<polygon fill="#f4fffe" fill-opacity="0.501961" points="179,181 192,148 173,120" />
<polygon fill="#00000e" fill-opacity="0.501961" points="151,160 166,228 170,142" />
<polygon fill="#0e1d2b" fill-opacity="0.501961" points="62,73 59,143 2,47" />
<polygon fill="#e9ffff" fill-opacity="0.501961" points="207,66 188,28 103,37" />
<polygon fill="#ff4d00" fill-opacity="0.501961" points="35,23 63,54 111,36" />
<polygon fill="#000814" fill-opacity="0.501961" points="98,26 23,2 75,-3" />
<polygon fill="#000000" fill-opacity="0.501961" points="213,122 222,112 243,122" />
<polygon fill="#8c4310" fill-opacity="0.501961" points="174,96 148,47 124,82" />
<polygon fill="#a5988c" fill-opacity="0.501961" points="69,122 14,127 110,147" />
<polygon fill="#001b38" fill-opacity="0.501961" points="169,75 98,36 130,69" />
<polygon fill="#ffffff" fill-opacity="0.501961" points="122,153 144,151 120,177" />
<polygon fill="#536558" fill-opacity="0.501961" points="204,34 259,72 208,84" />
<polygon fill="#ffe3b2" fill-opacity="0.501961" points="173,115 133,101 145,67" />
<polygon fill="#000008" fill-opacity="0.501961" points="185,9 169,30 169,-16" />
<polygon fill="#b7d5d2" fill-opacity="0.501961" points="147,62 86,-16 103,37" />
<polygon fill="#010b20" fill-opacity="0.501961" points="271,256 59,262 214,152" />
<polygon fill="#000000" fill-opacity="0.501961" points="210,139 183,125 198,117" />
<polygon fill="#001934" fill-opacity="0.501961" points="51,68 94,105 150,112" />
<polygon fill="#fffe5a" fill-opacity="0.501961" points="82,43 69,18 63,48" />
<polygon fill="#180a04" fill-opacity="0.501961" points="54,114 104,142 129,133" />
<polygon fill="#ffcc8a" fill-opacity="0.501961" points="215,116 173,121 194,104" />
<polygon fill="#ffd800" fill-opacity="0.501961" points="240,126 217,122 239,140" />
<polygon fill="#e1fbe2" fill-opacity="0.501961" points="231,165 271,170 253,90" />
<polygon fill="#d7d8bb" fill-opacity="0.501961" points="176,83 260,67 149,57" />
<polygon fill="#4a6a79" fill-opacity="0.501961" points="13,85 169,113 151,151" />
<polygon fill="#e0e6b8" fill-opacity="0.501961" points="158,96 191,98 190,88" />
<polygon fill="#fcffff" fill-opacity="0.501961" points="248,201 271,221 252,192" />
<polygon fill="#00000a" fill-opacity="0.501961" points="148,40 155,74 145,60" />
<polygon fill="#e3f3f7" fill-opacity="0.501961" points="96,46 103,89 127,63" />
<polygon fill="#620000" fill-opacity="0.501961" points="122,59 77,30 89,17" />
<polygon fill="#6a675f" fill-opacity="0.501961" points="31,170 88,171 56,143" />
<polygon fill="#ff720f" fill-opacity="0.501961" points="168,88 141,66 127,87" />
<polygon fill="#0e151b" fill-opacity="0.501961" points="7,119 57,122 5,81" />
<polygon fill="#c50000" fill-opacity="0.501961" points="56,19 39,26 87,39" />
<polygon fill="#ddfaff" fill-opacity="0.501961" points="164,156 153,152 157,122" />
<polygon fill="#000211" fill-opacity="0.501961" points="105,199 110,130 54,216" />
<polygon fill="#000000" fill-opacity="0.501961" points="162,114 169,134 142,109" />
<polygon fill="#cfcba5" fill-opacity="0.501961" points="270,142 240,77 196,89" />
<polygon fill="#a0c8cb" fill-opacity="0.501961" points="128,123 161,133 131,108" />
<polygon fill="#d6e8f1" fill-opacity="0.501961" points="151,174 146,148 102,142" />
<polygon fill="#b5beb2" fill-opacity="0.501961" points="75,72 9,0 -7,43" />
<polygon fill="#000012" fill-opacity="0.501961" points="148,197 152,155 169,159" />
<polygon fill="#eafeff" fill-opacity="0.501961" points="210,65 153,64 150,11" />
<polygon fill="#9baa00" fill-opacity="0.501961" points="251,119 250,139 271,118" />
<polygon fill="#ff4100" fill-opacity="0.501961" points="215,108 184,114 182,104" />
<polygon fill="#001226" fill-opacity="0.501961" points="178,89 201,77 224,80" />
<polygon fill="#747b8b" fill-opacity="0.501961" points="39,160 10,142 7,160" />
<polygon fill="#fcf800" fill-opacity="0.501961" points="185,131 177,123 185,143" />
<polygon fill="#000009" fill-opacity="0.501961" points="227,120 218,122 225,100" />
<polygon fill="#2c4f65" fill-opacity="0.501961" points="234,186 271,175 232,212" />
<polygon fill="#96ba94" fill-opacity="0.501961" points="25,-11 70,-16 66,9" />
<polygon fill="#000a16" fill-opacity="0.501961" points="132,79 131,57 122,71" />
<polygon fill="#000712" fill-opacity="0.501961" points="14,-10 50,17 101,20" />
<polygon fill="#ffffff" fill-opacity="0.501961" points="71,15 70,32 76,26" />
<polygon fill="#f52500" fill-opacity="0.501961" points="83,52 76,19 104,35" />
<polygon fill="#f2af00" fill-opacity="0.501961" points="224,122 211,142 213,123" />
<polygon fill="#9daa9b" fill-opacity="0.501961" points="204,-8 183,3 229,57" />
<polygon fill="#4e6679" fill-opacity="0.501961" points="102,128 117,177 121,149" />
<polygon fill="#ffffff" fill-opacity="0.501961" points="85,156 82,150 65,155" />
<polygon fill="#649082" fill-opacity="0.501961" points="235,157 233,138 202,135" />
<polygon fill="#ffffff" fill-opacity="0.501961" points="66,133 57,131 66,123" />
<polygon fill="#000216" fill-opacity="0.501961" points="231,77 256,67 268,73" />
<polygon fill="#cdd4d1" fill-opacity="0.501961" points="142,63 157,5 69,-14" />
<polygon fill="#000610" fill-opacity="0.501961" points="105,170 4,271 -13,176" />
<polygon fill="#09131f" fill-opacity="0.501961" points="-16,41 96,87 29,79" />
<polygon fill="#0d121f" fill-opacity="0.501961" points="129,169 177,271 271,215" />
<polygon fill="#000722" fill-opacity="0.501961" points="207,62 202,28 214,43" />
<polygon fill="#00000d" fill-opacity="0.501961" points="188,101 198,100 195,79" />
<polygon fill="#46353b" fill-opacity="0.501961" points="157,150 128,123 103,140" />
<polygon fill="#c0c2ba" fill-opacity="0.501961" points="118,94 -1,45 95,50" />
<polygon fill="#fff6e8" fill-opacity="0.501961" points="236,120 224,101 271,101" />
<polygon fill="#4a5d65" fill-opacity="0.501961" points="129,109 19,99 25,65" />
<polygon fill="#dceefe" fill-opacity="0.501961" points="155,109 103,82 154,93" />
<polygon fill="#bdcdcb" fill-opacity="0.501961" points="16,63 2,66 -16,52" />
<polygon fill="#ffffff" fill-opacity="0.501961" points="138,138 120,159 124,178" />
<polygon fill="#e98e3b" fill-opacity="0.501961" points="85,132 89,146 100,135" />
<polygon fill="#e51700" fill-opacity="0.501961" points="51,47 42,28 70,17" />
<polygon fill="#919578" fill-opacity="0.501961" points="174,74 248,64 218,55" />
<polygon fill="#000217" fill-opacity="0.501961" points="21,132 54,136 38,166" />
<polygon fill="#ffffff" fill-opacity="0.501961" points="220,130 228,126 225,139" />
<polygon fill="#000819" fill-opacity="0.501961" points="14,103 18,56 32,60" />
<polygon fill="#dee8e3" fill-opacity="0.501961" points="209,122 191,115 221,111" />
<polygon fill="#00081a" fill-opacity="0.501961" points="163,77 165,69 139,62" />
<polygon fill="#ffce00" fill-opacity="0.501961" points="168,132 172,129 172,144" />
<polygon fill="#dceded" fill-opacity="0.501961" points="162,70 198,29 206,64" />
<polygon fill="#4b697a" fill-opacity="0.501961" points="246,168 242,202 229,163" />
</g>
</svg>