<svg xmlns="http://www.w3.org/2000/svg" version="1.1" width="300" height="300">
<rect x="0" y="0" width="300" height="300" fill="#9d8975" />
<g transform="scale(1.171875) translate(0.5 0.5)">
<polygon fill="#110000" fill-opacity="0.501961" points="114,-16 -2,214 -12,-1" />
<polygon fill="#ffffd2" fill-opacity="0.501961" points="271,126 22,229 236,271" />
<polygon fill="#6c2200" fill-opacity="0.501961" points="82,90 98,193 251,126" />
<polygon fill="#fffed3" fill-opacity="0.501961" points="83,97 5,175 102,271" />
<polygon fill="#f2ffee" fill-opacity="0.501961" points="125,101 74,42 271,82" />
<polygon fill="#050000" fill-opacity="0.501961" points="-7,261 1,184 70,271" />
<polygon fill="#f0e5b8" fill-opacity="0.501961" points="210,63 270,32 254,230" />
<polygon fill="#360025" fill-opacity="0.501961" points="94,100 92,141 240,99" />
<polygon fill="#3d4865" fill-opacity="0.501961" points="271,1 233,54 59,-16" />
<polygon fill="#eebf40" fill-opacity="0.501961" points="103,135 105,169 223,124" />
<polygon fill="#55180b" fill-opacity="0.501961" points="230,115 217,156 103,178" />
<polygon fill="#030000" fill-opacity="0.501961" points="-16,71 -16,149 51,80" />
<polygon fill="#000000" fill-opacity="0.501961" points="-15,152 71,107 11,163" />
<polygon fill="#e5fffb" fill-opacity="0.501961" points="83,40 181,35 132,21" />
<polygon fill="#ded9b0" fill-opacity="0.501961" points="73,271 271,210 19,198" />
<polygon fill="#dfffff" fill-opacity="0.501961" points="91,51 177,49 115,84" />
<polygon fill="#ffae63" fill-opacity="0.501961" points="38,56 -16,83 -16,40" />
<polygon fill="#968d81" fill-opacity="0.501961" points="135,85 215,84 219,-16" />
<polygon fill="#401a2c" fill-opacity="0.501961" points="166,15 8,48 7,-7" />
<polygon fill="#9a6552" fill-opacity="0.501961" points="84,27 94,97 5,139" />
<polygon fill="#630100" fill-opacity="0.501961" points="127,53 92,47 151,39" />
<polygon fill="#bb782f" fill-opacity="0.501961" points="132,100 158,153 235,121" />
<polygon fill="#0c1122" fill-opacity="0.501961" points="271,20 235,47 244,-16" />
<polygon fill="#e8f1e1" fill-opacity="0.501961" points="83,97 84,109 125,91" />
<polygon fill="#853534" fill-opacity="0.501961" points="20,156 -16,182 27,250" />
<polygon fill="#fff8c6" fill-opacity="0.501961" points="244,100 142,94 190,82" />
<polygon fill="#feffea" fill-opacity="0.501961" points="271,65 224,67 251,38" />
<polygon fill="#ccc29a" fill-opacity="0.501961" points="246,271 221,130 271,114" />
<polygon fill="#5a312d" fill-opacity="0.501961" points="216,84 271,98 243,82" />
<polygon fill="#290015" fill-opacity="0.501961" points="22,64 57,88 -16,121" />
<polygon fill="#2e0424" fill-opacity="0.501961" points="-16,258 73,264 29,227" />
<polygon fill="#705d4c" fill-opacity="0.501961" points="143,84 207,39 174,82" />
<polygon fill="#ceb457" fill-opacity="0.501961" points="187,157 153,182 100,184" />
<polygon fill="#f6deb3" fill-opacity="0.501961" points="212,50 253,88 178,75" />
<polygon fill="#28062d" fill-opacity="0.501961" points="82,117 154,109 96,142" />
<polygon fill="#885a49" fill-opacity="0.501961" points="71,45 65,-1 183,-12" />
<polygon fill="#453248" fill-opacity="0.501961" points="118,89 102,80 78,103" />
<polygon fill="#b9aa85" fill-opacity="0.501961" points="17,113 24,131 54,112" />
<polygon fill="#180823" fill-opacity="0.501961" points="-1,5 80,-16 28,39" />
<polygon fill="#635766" fill-opacity="0.501961" points="206,71 173,53 174,-16" />
<polygon fill="#d9cea8" fill-opacity="0.501961" points="48,245 19,192 177,263" />
<polygon fill="#d0d6bf" fill-opacity="0.501961" points="14,18 -5,12 -16,32" />
<polygon fill="#cee7e2" fill-opacity="0.501961" points="89,68 130,97 172,40" />
<polygon fill="#dcdbbd" fill-opacity="0.501961" points="78,104 43,133 107,241" />
<polygon fill="#310523" fill-opacity="0.501961" points="90,187 170,159 129,157" />
<polygon fill="#b9731e" fill-opacity="0.501961" points="221,106 135,129 226,136" />
<polygon fill="#a6735c" fill-opacity="0.501961" points="99,98 47,56 31,74" />
<polygon fill="#7c8b82" fill-opacity="0.501961" points="58,42 44,32 40,-2" />
<polygon fill="#d5eade" fill-opacity="0.501961" points="113,24 173,24 156,41" />
<polygon fill="#ffffc9" fill-opacity="0.501961" points="27,104 40,98 39,105" />
<polygon fill="#230020" fill-opacity="0.501961" points="151,166 182,142 227,138" />
<polygon fill="#2a001b" fill-opacity="0.501961" points="58,101 47,79 38,119" />
<polygon fill="#b2b697" fill-opacity="0.501961" points="271,159 174,161 74,234" />
<polygon fill="#8f989f" fill-opacity="0.501961" points="198,61 192,-16 238,-9" />
<polygon fill="#16001b" fill-opacity="0.501961" points="-16,180 -11,146 60,117" />
<polygon fill="#afd4e3" fill-opacity="0.501961" points="5,132 20,131 -8,141" />
<polygon fill="#160018" fill-opacity="0.501961" points="-16,140 19,127 3,76" />
<polygon fill="#e0dbb5" fill-opacity="0.501961" points="58,251 267,162 153,271" />
<polygon fill="#dcd4ae" fill-opacity="0.501961" points="245,193 271,99 227,88" />
<polygon fill="#cdcb81" fill-opacity="0.501961" points="120,149 155,127 96,145" />
<polygon fill="#400c2c" fill-opacity="0.501961" points="97,136 93,176 106,191" />
<polygon fill="#500d0c" fill-opacity="0.501961" points="229,99 210,113 175,110" />
<polygon fill="#6b2004" fill-opacity="0.501961" points="95,50 119,38 147,46" />
<polygon fill="#66554f" fill-opacity="0.501961" points="211,73 187,58 224,69" />
<polygon fill="#bca776" fill-opacity="0.501961" points="269,258 206,271 252,197" />
<polygon fill="#676175" fill-opacity="0.501961" points="198,52 235,56 250,17" />
<polygon fill="#2c0f16" fill-opacity="0.501961" points="77,71 58,-16 52,40" />
<polygon fill="#a08c82" fill-opacity="0.501961" points="138,22 114,26 122,-16" />
<polygon fill="#1d001c" fill-opacity="0.501961" points="61,108 24,158 5,150" />
<polygon fill="#411723" fill-opacity="0.501961" points="41,10 26,72 50,44" />
<polygon fill="#d8f0f8" fill-opacity="0.501961" points="141,50 117,80 88,55" />
<polygon fill="#c8cba4" fill-opacity="0.501961" points="84,39 112,26 90,63" />
<polygon fill="#d2caa7" fill-opacity="0.501961" points="145,238 30,221 46,133" />
<polygon fill="#855739" fill-opacity="0.501961" points="64,81 80,31 92,72" />
<polygon fill="#5e454c" fill-opacity="0.501961" points="138,-16 133,23 176,19" />
<polygon fill="#f0eac5" fill-opacity="0.501961" points="167,82 203,98 109,97" />
<polygon fill="#55dc49" fill-opacity="0.501961" points="239,14 244,6 223,-16" />
<polygon fill="#2d0c28" fill-opacity="0.501961" points="140,131 124,98 83,115" />
<polygon fill="#82484f" fill-opacity="0.501961" points="121,100 188,98 161,121" />
<polygon fill="#ffefc1" fill-opacity="0.501961" points="196,58 209,51 221,66" />
<polygon fill="#230010" fill-opacity="0.501961" points="271,100 238,88 271,88" />
<polygon fill="#a2491a" fill-opacity="0.501961" points="202,108 235,125 173,133" />
<polygon fill="#5a2c31" fill-opacity="0.501961" points="36,234 -16,256 9,175" />
<polygon fill="#c7b142" fill-opacity="0.501961" points="199,111 132,132 168,132" />
<polygon fill="#bdcfca" fill-opacity="0.501961" points="27,131 40,119 13,131" />
<polygon fill="#af8c70" fill-opacity="0.501961" points="96,94 71,110 47,93" />
<polygon fill="#502b51" fill-opacity="0.501961" points="92,159 103,101 87,107" />
<polygon fill="#9f6939" fill-opacity="0.501961" points="25,94 42,116 25,125" />
<polygon fill="#b68639" fill-opacity="0.501961" points="167,167 201,149 233,154" />
<polygon fill="#a56851" fill-opacity="0.501961" points="22,157 -3,170 21,200" />
<polygon fill="#bec091" fill-opacity="0.501961" points="33,60 20,48 -6,48" />
<polygon fill="#cacba5" fill-opacity="0.501961" points="138,59 173,35 168,69" />
<polygon fill="#b58132" fill-opacity="0.501961" points="212,133 112,166 152,131" />
<polygon fill="#cfc1a7" fill-opacity="0.501961" points="47,116 66,99 63,90" />
<polygon fill="#70412f" fill-opacity="0.501961" points="194,79 186,84 208,84" />
<polygon fill="#e0dbb2" fill-opacity="0.501961" points="253,126 223,159 226,130" />
<polygon fill="#2b0018" fill-opacity="0.501961" points="19,69 61,93 -16,94" />
<polygon fill="#2f1122" fill-opacity="0.501961" points="26,48 28,20 -10,46" />
<polygon fill="#d6cda9" fill-opacity="0.501961" points="37,230 84,271 144,214" />
<polygon fill="#87674c" fill-opacity="0.501961" points="161,83 161,69 193,83" />
</g>
</svg>