<svg xmlns="http://www.w3.org/2000/svg" version="1.1" width="300" height="300">
<rect x="0" y="0" width="300" height="300" fill="#7a574c" />
<g transform="scale(1.171875) translate(0.5 0.5)">
<polygon fill="#ffdfb2" fill-opacity="0.501961" points="169,271 238,99 45,62" />
<polygon fill="#000007" fill-opacity="0.501961" points="5,-16 86,267 -16,257" />
<polygon fill="#15000b" fill-opacity="0.501961" points="256,-16 -16,3 268,92" />
<polygon fill="#cfe3e8" fill-opacity="0.501961" points="220,166 114,235 48,184" />
<polygon fill="#35151c" fill-opacity="0.501961" points="0,-16 -8,248 88,46" />
<polygon fill="#f9b17d" fill-opacity="0.501961" points="175,177 59,57 177,58" />
<polygon fill="#230e17" fill-opacity="0.501961" points="-16,269 221,252 12,210" />
<polygon fill="#6d271b" fill-opacity="0.501961" points="256,207 196,95 259,45" />
<polygon fill="#e5f0f7" fill-opacity="0.501961" points="218,160 116,186 206,205" />
<polygon fill="#00000e" fill-opacity="0.501961" points="228,245 256,271 271,170" />
<polygon fill="#af9989" fill-opacity="0.501961" points="115,234 57,92 171,237" />
<polygon fill="#d98a6b" fill-opacity="0.501961" points="49,132 70,209 34,149" />
<polygon fill="#913620" fill-opacity="0.501961" points="112,254 218,261 232,204" />
<polygon fill="#7d3d32" fill-opacity="0.501961" points="45,97 148,23 66,-16" />
<polygon fill="#e4854c" fill-opacity="0.501961" points="66,75 73,143 170,174" />
<polygon fill="#df8756" fill-opacity="0.501961" points="178,61 231,128 176,172" />
<polygon fill="#ccd2d1" fill-opacity="0.501961" points="211,198 176,232 115,234" />
<polygon fill="#7e786f" fill-opacity="0.501961" points="100,218 155,227 208,188" />
<polygon fill="#1b1b26" fill-opacity="0.501961" points="127,247 -16,152 5,271" />
<polygon fill="#e7d9bc" fill-opacity="0.501961" points="77,94 109,73 195,121" />
<polygon fill="#321f24" fill-opacity="0.501961" points="235,122 269,-16 150,9" />
<polygon fill="#5f3b37" fill-opacity="0.501961" points="16,48 123,213 36,153" />
<polygon fill="#a25a41" fill-opacity="0.501961" points="193,168 142,170 244,114" />
<polygon fill="#fcc593" fill-opacity="0.501961" points="226,261 236,220 208,271" />
<polygon fill="#cf6c3e" fill-opacity="0.501961" points="200,78 141,96 108,52" />
<polygon fill="#e8fffe" fill-opacity="0.501961" points="223,140 223,119 212,157" />
<polygon fill="#e4a77e" fill-opacity="0.501961" points="255,207 233,216 246,187" />
<polygon fill="#f0f3f7" fill-opacity="0.501961" points="119,201 166,202 220,151" />
<polygon fill="#989281" fill-opacity="0.501961" points="176,220 45,169 81,218" />
<polygon fill="#733428" fill-opacity="0.501961" points="225,233 271,61 224,67" />
<polygon fill="#824132" fill-opacity="0.501961" points="109,242 202,226 233,271" />
<polygon fill="#e0b68b" fill-opacity="0.501961" points="193,152 202,104 68,97" />
<polygon fill="#302227" fill-opacity="0.501961" points="54,-12 7,237 -13,-16" />
<polygon fill="#a6a59e" fill-opacity="0.501961" points="213,163 198,215 155,222" />
<polygon fill="#291f25" fill-opacity="0.501961" points="42,170 -16,247 118,271" />
<polygon fill="#d1af8e" fill-opacity="0.501961" points="67,130 103,162 64,97" />
<polygon fill="#2e1f26" fill-opacity="0.501961" points="214,90 271,-8 155,45" />
<polygon fill="#c29076" fill-opacity="0.501961" points="183,69 218,93 224,121" />
<polygon fill="#893a26" fill-opacity="0.501961" points="215,156 215,230 245,125" />
<polygon fill="#794135" fill-opacity="0.501961" points="143,49 42,71 90,12" />
<polygon fill="#0f1521" fill-opacity="0.501961" points="242,211 271,266 231,244" />
<polygon fill="#e5ded1" fill-opacity="0.501961" points="213,191 191,219 214,160" />
<polygon fill="#bf6a41" fill-opacity="0.501961" points="113,162 161,172 72,121" />
<polygon fill="#ac5537" fill-opacity="0.501961" points="190,166 211,96 219,139" />
<polygon fill="#c3beaf" fill-opacity="0.501961" points="82,199 102,228 60,196" />
<polygon fill="#d58859" fill-opacity="0.501961" points="63,93 152,55 94,56" />
<polygon fill="#6c6058" fill-opacity="0.501961" points="142,214 109,204 168,204" />
<polygon fill="#e0c4a2" fill-opacity="0.501961" points="116,141 169,127 152,158" />
<polygon fill="#d0d3d9" fill-opacity="0.501961" points="122,167 164,180 117,200" />
<polygon fill="#874532" fill-opacity="0.501961" points="244,121 199,219 219,268" />
<polygon fill="#001325" fill-opacity="0.501961" points="265,219 256,175 249,194" />
<polygon fill="#5d2f2a" fill-opacity="0.501961" points="80,3 59,118 4,73" />
<polygon fill="#371d20" fill-opacity="0.501961" points="53,148 76,175 61,127" />
<polygon fill="#e69361" fill-opacity="0.501961" points="253,165 271,146 247,191" />
<polygon fill="#e6d9bd" fill-opacity="0.501961" points="188,107 179,126 175,89" />
<polygon fill="#7a3b2d" fill-opacity="0.501961" points="215,94 237,140 242,49" />
<polygon fill="#a7614c" fill-opacity="0.501961" points="77,184 42,168 40,135" />
<polygon fill="#8d4d3c" fill-opacity="0.501961" points="101,43 61,43 53,102" />
<polygon fill="#d0c4b3" fill-opacity="0.501961" points="135,236 171,225 100,226" />
<polygon fill="#834535" fill-opacity="0.501961" points="191,223 221,271 113,248" />
<polygon fill="#867f79" fill-opacity="0.501961" points="51,181 108,200 112,163" />
<polygon fill="#2d1f24" fill-opacity="0.501961" points="92,271 124,235 51,211" />
<polygon fill="#e5ddca" fill-opacity="0.501961" points="130,106 125,82 89,86" />
<polygon fill="#1f1d25" fill-opacity="0.501961" points="250,168 244,183 233,169" />
<polygon fill="#9d8c7e" fill-opacity="0.501961" points="154,227 112,228 200,185" />
<polygon fill="#c87347" fill-opacity="0.501961" points="131,62 99,63 173,106" />
<polygon fill="#492728" fill-opacity="0.501961" points="215,94 176,54 222,43" />
<polygon fill="#dec6a5" fill-opacity="0.501961" points="234,262 228,240 212,271" />
<polygon fill="#725652" fill-opacity="0.501961" points="64,121 101,169 80,181" />
<polygon fill="#d89a69" fill-opacity="0.501961" points="173,161 191,151 156,101" />
<polygon fill="#db9565" fill-opacity="0.501961" points="91,148 88,67 63,97" />
<polygon fill="#593231" fill-opacity="0.501961" points="108,54 153,53 119,-16" />
<polygon fill="#191c25" fill-opacity="0.501961" points="267,5 240,49 216,-16" />
<polygon fill="#dfd5be" fill-opacity="0.501961" points="117,110 125,127 139,116" />
<polygon fill="#65352d" fill-opacity="0.501961" points="270,134 215,161 251,55" />
<polygon fill="#b45735" fill-opacity="0.501961" points="221,117 206,88 184,82" />
<polygon fill="#c6b6a2" fill-opacity="0.501961" points="159,62 185,69 167,57" />
<polygon fill="#f0a56e" fill-opacity="0.501961" points="240,212 231,233 233,218" />
<polygon fill="#292026" fill-opacity="0.501961" points="47,169 15,271 76,239" />
<polygon fill="#d8d5cf" fill-opacity="0.501961" points="156,234 188,221 199,201" />
<polygon fill="#231e27" fill-opacity="0.501961" points="240,271 230,240 271,191" />
<polygon fill="#402528" fill-opacity="0.501961" points="37,168 -4,69 42,-16" />
<polygon fill="#e8eeed" fill-opacity="0.501961" points="193,170 213,151 213,164" />
<polygon fill="#894937" fill-opacity="0.501961" points="177,228 250,180 218,255" />
<polygon fill="#83493b" fill-opacity="0.501961" points="115,53 75,69 75,14" />
<polygon fill="#a49f96" fill-opacity="0.501961" points="192,211 211,162 156,228" />
<polygon fill="#ae6245" fill-opacity="0.501961" points="167,172 128,163 199,158" />
<polygon fill="#a4998c" fill-opacity="0.501961" points="240,212 264,207 245,201" />
<polygon fill="#d7a073" fill-opacity="0.501961" points="164,130 139,126 127,73" />
<polygon fill="#d78551" fill-opacity="0.501961" points="133,128 141,151 116,132" />
<polygon fill="#e3ac7a" fill-opacity="0.501961" points="180,83 149,79 201,108" />
<polygon fill="#bab0a0" fill-opacity="0.501961" points="74,206 62,176 51,178" />
<polygon fill="#a8a29f" fill-opacity="0.501961" points="106,158 108,208 130,170" />
<polygon fill="#231e26" fill-opacity="0.501961" points="5,-16 -16,58 37,27" />
<polygon fill="#d3dbd2" fill-opacity="0.501961" points="219,106 225,119 220,118" />
<polygon fill="#aa8873" fill-opacity="0.501961" points="68,111 57,118 52,132" />
<polygon fill="#d18354" fill-opacity="0.501961" points="87,105 121,117 88,144" />
<polygon fill="#dfe1e5" fill-opacity="0.501961" points="160,202 134,205 152,176" />
<polygon fill="#d5a783" fill-opacity="0.501961" points="156,57 138,61 124,54" />
<polygon fill="#c59270" fill-opacity="0.501961" points="176,73 192,72 216,97" />
</g>
</svg>