<svg xmlns="http://www.w3.org/2000/svg" version="1.1" width="300" height="300">
<rect x="0" y="0" width="300" height="300" fill="#897060" />
<g transform="scale(1.171875) translate(0.5 0.5)">
<polygon fill="#ffffca" fill-opacity="0.501961" points="271,234 234,-16 130,52" />
<polygon fill="#fffffe" fill-opacity="0.501961" points="168,246 84,220 169,78" />
<polygon fill="#000010" fill-opacity="0.501961" points="15,-16 -16,122 195,115" />
<polygon fill="#120000" fill-opacity="0.501961" points="-16,139 -16,271 164,271" />
<polygon fill="#ffffec" fill-opacity="0.501961" points="97,243 112,108 171,233" />
<polygon fill="#ffff00" fill-opacity="0.501961" points="24,111 83,145 28,188" />
<polygon fill="#080f66" fill-opacity="0.501961" points="179,128 163,267 242,195" />
<polygon fill="#080000" fill-opacity="0.501961" points="103,271 44,200 84,138" />
<polygon fill="#44011a" fill-opacity="0.501961" points="-13,-16 173,-16 -5,153" />
<polygon fill="#ffffd3" fill-opacity="0.501961" points="206,111 248,34 148,-16" />
<polygon fill="#ffffb1" fill-opacity="0.501961" points="86,137 169,237 171,130" />
<polygon fill="#b48f50" fill-opacity="0.501961" points="95,124 271,81 173,156" />
<polygon fill="#030000" fill-opacity="0.501961" points="271,-15 270,79 224,-16" />
<polygon fill="#241c4f" fill-opacity="0.501961" points="-1,91 128,45 175,126" />
<polygon fill="#000021" fill-opacity="0.501961" points="186,243 81,240 159,271" />
<polygon fill="#362b4f" fill-opacity="0.501961" points="185,73 146,13 158,69" />
<polygon fill="#e4fdff" fill-opacity="0.501961" points="147,11 134,42 160,95" />
<polygon fill="#ffe60d" fill-opacity="0.501961" points="8,146 62,178 63,119" />
<polygon fill="#120e49" fill-opacity="0.501961" points="88,139 98,21 20,96" />
<polygon fill="#f4ffff" fill-opacity="0.501961" points="226,89 142,72 180,99" />
<polygon fill="#210015" fill-opacity="0.501961" points="31,271 -16,260 3,95" />
<polygon fill="#ce6c4a" fill-opacity="0.501961" points="180,264 270,159 271,269" />
<polygon fill="#ab6c06" fill-opacity="0.501961" points="235,-16 198,-15 237,46" />
<polygon fill="#8b4016" fill-opacity="0.501961" points="136,15 135,77 64,-7" />
<polygon fill="#e59b3a" fill-opacity="0.501961" points="83,213 109,210 90,121" />
<polygon fill="#270024" fill-opacity="0.501961" points="102,249 83,173 23,183" />
<polygon fill="#fdfad8" fill-opacity="0.501961" points="167,240 98,240 151,122" />
<polygon fill="#d7a146" fill-opacity="0.501961" points="193,102 206,152 145,87" />
<polygon fill="#a05232" fill-opacity="0.501961" points="59,-7 -7,61 94,1" />
<polygon fill="#efc916" fill-opacity="0.501961" points="17,120 72,164 19,173" />
<polygon fill="#892825" fill-opacity="0.501961" points="18,244 108,271 16,176" />
<polygon fill="#915a1a" fill-opacity="0.501961" points="271,33 214,107 264,80" />
<polygon fill="#f1efb2" fill-opacity="0.501961" points="162,-16 230,20 168,66" />
<polygon fill="#eace8f" fill-opacity="0.501961" points="135,111 96,191 95,140" />
<polygon fill="#380426" fill-opacity="0.501961" points="149,24 160,48 166,11" />
<polygon fill="#e5d28f" fill-opacity="0.501961" points="245,181 271,78 196,147" />
<polygon fill="#3a4260" fill-opacity="0.501961" points="202,152 145,85 105,88" />
<polygon fill="#170016" fill-opacity="0.501961" points="81,173 73,125 89,118" />
<polygon fill="#b8e1e6" fill-opacity="0.501961" points="138,24 199,-11 165,-16" />
<polygon fill="#f0ffff" fill-opacity="0.501961" points="153,85 136,52 203,101" />
<polygon fill="#ffe02b" fill-opacity="0.501961" points="75,154 45,184 39,112" />
<polygon fill="#d1f3e6" fill-opacity="0.501961" points="190,98 246,67 246,33" />
<polygon fill="#040037" fill-opacity="0.501961" points="44,113 19,90 -16,137" />
<polygon fill="#3b3a5f" fill-opacity="0.501961" points="75,131 146,103 65,80" />
<polygon fill="#fbd38f" fill-opacity="0.501961" points="173,136 170,175 115,114" />
<polygon fill="#2c173f" fill-opacity="0.501961" points="208,225 176,259 170,180" />
<polygon fill="#5a1102" fill-opacity="0.501961" points="129,29 128,65 146,89" />
<polygon fill="#5b5f77" fill-opacity="0.501961" points="246,192 175,132 170,182" />
<polygon fill="#b27439" fill-opacity="0.501961" points="96,32 140,79 114,19" />
<polygon fill="#e7c680" fill-opacity="0.501961" points="254,253 226,246 260,225" />
<polygon fill="#474e61" fill-opacity="0.501961" points="169,75 189,66 187,82" />
<polygon fill="#430601" fill-opacity="0.501961" points="271,18 241,-16 251,64" />
<polygon fill="#c85f48" fill-opacity="0.501961" points="10,271 67,237 82,256" />
<polygon fill="#f3f3d1" fill-opacity="0.501961" points="105,230 175,154 104,157" />
<polygon fill="#902009" fill-opacity="0.501961" points="80,203 93,160 92,223" />
<polygon fill="#dfb74f" fill-opacity="0.501961" points="177,22 182,-11 244,-16" />
<polygon fill="#652923" fill-opacity="0.501961" points="-16,1 127,-9 0,107" />
<polygon fill="#d6e0db" fill-opacity="0.501961" points="170,50 143,70 140,49" />
<polygon fill="#020011" fill-opacity="0.501961" points="-7,259 -8,207 48,269" />
<polygon fill="#dece83" fill-opacity="0.501961" points="176,68 249,45 241,16" />
<polygon fill="#8d736f" fill-opacity="0.501961" points="7,153 17,177 47,184" />
<polygon fill="#b27b54" fill-opacity="0.501961" points="249,171 269,234 225,173" />
<polygon fill="#3d0c13" fill-opacity="0.501961" points="130,42 134,-16 153,-9" />
<polygon fill="#220437" fill-opacity="0.501961" points="105,271 80,239 188,245" />
<polygon fill="#953107" fill-opacity="0.501961" points="185,102 141,82 156,100" />
<polygon fill="#c69d6c" fill-opacity="0.501961" points="161,124 104,149 130,116" />
<polygon fill="#f5fddd" fill-opacity="0.501961" points="217,14 184,19 192,99" />
<polygon fill="#c7be8b" fill-opacity="0.501961" points="17,125 63,123 35,115" />
<polygon fill="#1d1740" fill-opacity="0.501961" points="33,80 149,91 90,29" />
<polygon fill="#d4c48c" fill-opacity="0.501961" points="55,180 74,157 73,132" />
<polygon fill="#8f3e3e" fill-opacity="0.501961" points="271,209 174,261 219,259" />
<polygon fill="#300618" fill-opacity="0.501961" points="251,26 271,-16 213,-16" />
<polygon fill="#bea967" fill-opacity="0.501961" points="271,87 166,105 199,146" />
<polygon fill="#d9e9d5" fill-opacity="0.501961" points="247,62 227,88 169,61" />
<polygon fill="#dfcd5b" fill-opacity="0.501961" points="87,162 86,132 98,123" />
<polygon fill="#250924" fill-opacity="0.501961" points="43,190 81,241 85,152" />
<polygon fill="#4c1523" fill-opacity="0.501961" points="34,180 15,239 -16,145" />
<polygon fill="#ffffff" fill-opacity="0.501961" points="180,72 185,76 173,79" />
<polygon fill="#c2bc97" fill-opacity="0.501961" points="16,157 16,135 6,160" />
<polygon fill="#953518" fill-opacity="0.501961" points="100,125 93,135 128,126" />
<polygon fill="#331c2b" fill-opacity="0.501961" points="150,50 162,49 162,25" />
<polygon fill="#41414e" fill-opacity="0.501961" points="159,114 100,117 137,76" />
<polygon fill="#3b2f3c" fill-opacity="0.501961" points="180,72 165,52 161,62" />
<polygon fill="#cedbcf" fill-opacity="0.501961" points="164,77 140,21 135,43" />
<polygon fill="#f1efb9" fill-opacity="0.501961" points="113,127 99,136 95,168" />
<polygon fill="#caac56" fill-opacity="0.501961" points="94,212 101,180 105,240" />
<polygon fill="#3c0819" fill-opacity="0.501961" points="68,31 3,92 -9,61" />
<polygon fill="#ffffde" fill-opacity="0.501961" points="158,124 147,126 169,133" />
<polygon fill="#9a5a40" fill-opacity="0.501961" points="32,37 89,1 79,-16" />
<polygon fill="#a77d27" fill-opacity="0.501961" points="229,53 239,30 233,9" />
<polygon fill="#160127" fill-opacity="0.501961" points="27,87 -8,186 -16,121" />
<polygon fill="#fff22e" fill-opacity="0.501961" points="69,168 66,133 45,118" />
<polygon fill="#f0dc98" fill-opacity="0.501961" points="180,62 160,20 221,59" />
<polygon fill="#bd946a" fill-opacity="0.501961" points="194,244 217,245 242,195" />
<polygon fill="#5e3517" fill-opacity="0.501961" points="246,59 253,18 269,84" />
<polygon fill="#ab480d" fill-opacity="0.501961" points="103,125 95,152 94,132" />
<polygon fill="#cfba18" fill-opacity="0.501961" points="15,162 44,181 22,127" />
<polygon fill="#8e4a33" fill-opacity="0.501961" points="40,69 -16,102 11,99" />
<polygon fill="#545772" fill-opacity="0.501961" points="183,173 163,107 227,179" />
<polygon fill="#d7c997" fill-opacity="0.501961" points="195,140 271,94 230,181" />
</g>
</svg>