<svg xmlns="http://www.w3.org/2000/svg" version="1.1" width="300" height="300">
<rect x="0" y="0" width="300" height="300" fill="#6a555a" />
<g transform="scale(1.171875) translate(0.5 0.5)">
<polygon fill="#ffffff" fill-opacity="0.501961" points="-15,60 211,81 4,197" />
<polygon fill="#000000" fill-opacity="0.501961" points="6,175 271,252 -16,268" />
<polygon fill="#2c020b" fill-opacity="0.501961" points="250,271 108,95 271,96" />
<polygon fill="#ffffff" fill-opacity="0.501961" points="-5,61 143,77 25,149" />
<polygon fill="#0a001b" fill-opacity="0.501961" points="271,32 -16,62 5,-16" />
<polygon fill="#d6c89c" fill-opacity="0.501961" points="83,98 192,220 7,164" />
<polygon fill="#ffffff" fill-opacity="0.501961" points="144,38 107,42 122,21" />
<polygon fill="#bab8a9" fill-opacity="0.501961" points="201,61 219,116 112,80" />
<polygon fill="#211b54" fill-opacity="0.501961" points="63,168 46,123 72,115" />
<polygon fill="#3c0011" fill-opacity="0.501961" points="115,271 8,226 119,150" />
<polygon fill="#fffffd" fill-opacity="0.501961" points="248,34 271,58 234,75" />
<polygon fill="#ffffff" fill-opacity="0.501961" points="5,158 86,165 -16,187" />
<polygon fill="#1b001e" fill-opacity="0.501961" points="207,-16 167,66 271,25" />
<polygon fill="#649cc8" fill-opacity="0.501961" points="-13,36 44,62 104,55" />
<polygon fill="#d9decd" fill-opacity="0.501961" points="242,180 237,135 255,135" />
<polygon fill="#fffffd" fill-opacity="0.501961" points="-10,58 32,130 129,80" />
<polygon fill="#2a0011" fill-opacity="0.501961" points="231,39 180,257 246,271" />
<polygon fill="#e2f1d7" fill-opacity="0.501961" points="63,125 136,102 116,153" />
<polygon fill="#ffffff" fill-opacity="0.501961" points="231,53 217,65 205,51" />
<polygon fill="#775753" fill-opacity="0.501961" points="236,139 129,61 167,143" />
<polygon fill="#101d68" fill-opacity="0.501961" points="182,37 222,70 96,52" />
<polygon fill="#e7bd59" fill-opacity="0.501961" points="206,232 88,185 173,191" />
<polygon fill="#130a2c" fill-opacity="0.501961" points="13,130 -4,134 15,159" />
<polygon fill="#1f0018" fill-opacity="0.501961" points="-6,39 3,-16 200,21" />
<polygon fill="#0e001b" fill-opacity="0.501961" points="31,65 91,62 6,43" />
<polygon fill="#fffff0" fill-opacity="0.501961" points="108,32 131,51 135,30" />
<polygon fill="#aab0af" fill-opacity="0.501961" points="209,70 186,116 122,57" />
<polygon fill="#0c0005" fill-opacity="0.501961" points="172,105 107,104 150,89" />
<polygon fill="#260319" fill-opacity="0.501961" points="118,125 226,118 138,149" />
<polygon fill="#2b0002" fill-opacity="0.501961" points="186,191 149,187 151,163" />
<polygon fill="#340116" fill-opacity="0.501961" points="260,247 67,271 29,176" />
<polygon fill="#15000b" fill-opacity="0.501961" points="203,81 217,64 271,84" />
<polygon fill="#fffff2" fill-opacity="0.501961" points="48,66 13,152 46,151" />
<polygon fill="#1f071f" fill-opacity="0.501961" points="50,150 70,158 30,155" />
<polygon fill="#f9ffff" fill-opacity="0.501961" points="-16,178 47,155 66,178" />
<polygon fill="#2e0621" fill-opacity="0.501961" points="-9,180 4,271 55,181" />
<polygon fill="#a4eaff" fill-opacity="0.501961" points="63,50 85,61 112,57" />
<polygon fill="#000000" fill-opacity="0.501961" points="13,153 27,156 -1,159" />
<polygon fill="#b4afa9" fill-opacity="0.501961" points="206,-16 149,10 180,16" />
<polygon fill="#417419" fill-opacity="0.501961" points="-16,100 6,117 18,103" />
<polygon fill="#d4dfce" fill-opacity="0.501961" points="138,114 66,171 72,96" />
<polygon fill="#a88e73" fill-opacity="0.501961" points="48,155 64,185 154,175" />
<polygon fill="#b1eef7" fill-opacity="0.501961" points="51,56 28,44 77,52" />
<polygon fill="#c56043" fill-opacity="0.501961" points="193,165 233,134 224,123" />
<polygon fill="#370f20" fill-opacity="0.501961" points="151,2 104,-16 156,61" />
<polygon fill="#251b41" fill-opacity="0.501961" points="50,67 14,46 101,58" />
<polygon fill="#f7ffec" fill-opacity="0.501961" points="218,104 206,92 206,110" />
<polygon fill="#fffffd" fill-opacity="0.501961" points="-9,61 79,114 130,75" />
<polygon fill="#41111f" fill-opacity="0.501961" points="271,-5 233,55 180,6" />
<polygon fill="#b7bca3" fill-opacity="0.501961" points="265,24 235,92 238,42" />
<polygon fill="#21031a" fill-opacity="0.501961" points="271,61 240,74 257,184" />
<polygon fill="#723c2c" fill-opacity="0.501961" points="257,250 179,195 183,232" />
<polygon fill="#223e6d" fill-opacity="0.501961" points="148,80 89,60 148,63" />
<polygon fill="#19021b" fill-opacity="0.501961" points="222,148 271,251 206,226" />
<polygon fill="#2a0f26" fill-opacity="0.501961" points="83,22 156,60 -8,37" />
<polygon fill="#9b6b59" fill-opacity="0.501961" points="140,120 201,122 208,83" />
<polygon fill="#d6c5a2" fill-opacity="0.501961" points="187,173 181,191 186,193" />
<polygon fill="#ffffff" fill-opacity="0.501961" points="210,62 205,54 228,52" />
<polygon fill="#0f0017" fill-opacity="0.501961" points="235,119 204,135 203,106" />
<polygon fill="#fffff2" fill-opacity="0.501961" points="199,73 186,82 210,88" />
<polygon fill="#edefc3" fill-opacity="0.501961" points="91,94 -16,80 40,128" />
<polygon fill="#c3c5b9" fill-opacity="0.501961" points="78,152 124,151 89,101" />
<polygon fill="#7c4550" fill-opacity="0.501961" points="59,232 53,271 31,236" />
<polygon fill="#fcffff" fill-opacity="0.501961" points="52,158 -8,186 -16,160" />
<polygon fill="#8c4e3d" fill-opacity="0.501961" points="209,158 124,147 134,169" />
<polygon fill="#c39c77" fill-opacity="0.501961" points="204,138 175,131 177,142" />
<polygon fill="#bcffff" fill-opacity="0.501961" points="-16,34 -4,44 15,43" />
<polygon fill="#d8f3e4" fill-opacity="0.501961" points="217,136 212,142 214,124" />
<polygon fill="#2e3b7c" fill-opacity="0.501961" points="174,67 147,31 221,45" />
<polygon fill="#ffffff" fill-opacity="0.501961" points="110,37 125,27 140,37" />
<polygon fill="#1e0824" fill-opacity="0.501961" points="243,151 259,271 271,196" />
<polygon fill="#fffff2" fill-opacity="0.501961" points="46,153 44,91 7,119" />
<polygon fill="#1a0b24" fill-opacity="0.501961" points="64,225 57,160 45,232" />
<polygon fill="#00000a" fill-opacity="0.501961" points="109,152 120,157 113,170" />
<polygon fill="#593938" fill-opacity="0.501961" points="186,95 191,87 185,70" />
<polygon fill="#56363b" fill-opacity="0.501961" points="41,177 -16,186 33,207" />
<polygon fill="#c3beb8" fill-opacity="0.501961" points="241,197 241,157 247,176" />
<polygon fill="#00000e" fill-opacity="0.501961" points="242,135 218,103 251,123" />
<polygon fill="#ddc979" fill-opacity="0.501961" points="190,197 135,182 131,202" />
<polygon fill="#5f220c" fill-opacity="0.501961" points="138,181 130,188 136,160" />
<polygon fill="#47314f" fill-opacity="0.501961" points="68,113 49,133 77,118" />
<polygon fill="#ebf7ef" fill-opacity="0.501961" points="-16,183 45,156 64,174" />
<polygon fill="#9ddaf0" fill-opacity="0.501961" points="98,62 90,53 125,59" />
<polygon fill="#fffff7" fill-opacity="0.501961" points="81,128 83,153 63,122" />
<polygon fill="#b9a898" fill-opacity="0.501961" points="197,102 151,61 162,102" />
<polygon fill="#604145" fill-opacity="0.501961" points="235,196 244,242 249,175" />
<polygon fill="#1f051a" fill-opacity="0.501961" points="181,208 233,212 236,126" />
<polygon fill="#892e22" fill-opacity="0.501961" points="252,87 206,81 213,97" />
<polygon fill="#7f6052" fill-opacity="0.501961" points="89,45 135,39 134,51" />
<polygon fill="#d4cbaf" fill-opacity="0.501961" points="254,134 241,154 239,136" />
<polygon fill="#475d8e" fill-opacity="0.501961" points="205,71 203,60 242,59" />
<polygon fill="#d2d0b2" fill-opacity="0.501961" points="138,119 127,103 80,140" />
<polygon fill="#000014" fill-opacity="0.501961" points="62,157 65,168 62,174" />
<polygon fill="#aea28e" fill-opacity="0.501961" points="244,93 237,75 240,113" />
<polygon fill="#d6decc" fill-opacity="0.501961" points="189,5 119,-12 216,-15" />
<polygon fill="#2d0d22" fill-opacity="0.501961" points="140,154 206,150 125,126" />
<polygon fill="#d7ead3" fill-opacity="0.501961" points="142,70 130,97 108,88" />
<polygon fill="#000000" fill-opacity="0.501961" points="8,157 -3,154 -4,158" />
<polygon fill="#453242" fill-opacity="0.501961" points="98,119 102,132 94,120" />
<polygon fill="#936449" fill-opacity="0.501961" points="108,159 84,186 83,154" />
</g>
</svg>