<svg xmlns="http://www.w3.org/2000/svg" version="1.1" width="300" height="300">
<rect x="0" y="0" width="300" height="300" fill="#c8bca9" />
<g transform="scale(1.171875) translate(0.5 0.5)">
<polygon fill="#ad6a5c" fill-opacity="0.501961" points="131,187 208,117 36,96" />
<polygon fill="#cb3700" fill-opacity="0.501961" points="77,70 39,35 -16,49" />
<polygon fill="#a64636" fill-opacity="0.501961" points="91,142 83,87 47,140" />
<polygon fill="#dcdbd8" fill-opacity="0.501961" points="114,271 34,47 -16,156" />
<polygon fill="#f1eedd" fill-opacity="0.501961" points="116,103 160,118 104,155" />
<polygon fill="#6e4434" fill-opacity="0.501961" points="171,89 140,115 132,86" />
<polygon fill="#945c4a" fill-opacity="0.501961" points="176,106 185,161 105,162" />
<polygon fill="#d7d7b9" fill-opacity="0.501961" points="240,-16 271,192 69,17" />
<polygon fill="#d6dbda" fill-opacity="0.501961" points="141,162 52,171 134,271" />
<polygon fill="#871e0b" fill-opacity="0.501961" points="61,93 48,141 66,140" />
<polygon fill="#860e00" fill-opacity="0.501961" points="101,179 95,144 107,122" />
<polygon fill="#000000" fill-opacity="0.501961" points="178,263 162,271 169,237" />
<polygon fill="#f0e044" fill-opacity="0.501961" points="90,57 81,25 132,31" />
<polygon fill="#daddd0" fill-opacity="0.501961" points="64,46 174,76 65,108" />
<polygon fill="#3c0000" fill-opacity="0.501961" points="175,168 174,126 166,148" />
<polygon fill="#ffffff" fill-opacity="0.501961" points="148,124 147,152 155,138" />
<polygon fill="#b1a784" fill-opacity="0.501961" points="-8,251 49,271 64,162" />
<polygon fill="#e4e9dd" fill-opacity="0.501961" points="166,133 144,198 167,183" />
<polygon fill="#e4e9d9" fill-opacity="0.501961" points="101,134 96,120 55,133" />
<polygon fill="#000000" fill-opacity="0.501961" points="181,75 179,97 186,80" />
<polygon fill="#aa3217" fill-opacity="0.501961" points="65,144 36,135 99,132" />
<polygon fill="#650c01" fill-opacity="0.501961" points="161,127 156,164 139,178" />
<polygon fill="#ebe6dc" fill-opacity="0.501961" points="93,137 68,153 110,234" />
<polygon fill="#021018" fill-opacity="0.501961" points="198,230 188,231 189,215" />
<polygon fill="#91392e" fill-opacity="0.501961" points="81,131 84,106 113,99" />
<polygon fill="#cd3c00" fill-opacity="0.501961" points="66,56 38,37 45,67" />
<polygon fill="#f5fff5" fill-opacity="0.501961" points="183,111 169,118 167,138" />
<polygon fill="#8d0000" fill-opacity="0.501961" points="124,157 127,137 136,132" />
<polygon fill="#795346" fill-opacity="0.501961" points="162,81 158,106 127,106" />
<polygon fill="#dcddce" fill-opacity="0.501961" points="63,136 -9,26 7,124" />
<polygon fill="#bb4502" fill-opacity="0.501961" points="-3,42 36,38 27,63" />
<polygon fill="#000000" fill-opacity="0.501961" points="236,193 235,212 239,200" />
<polygon fill="#e6e8d7" fill-opacity="0.501961" points="175,156 204,132 203,90" />
<polygon fill="#beb477" fill-opacity="0.501961" points="87,7 -16,54 -16,2" />
<polygon fill="#ffffff" fill-opacity="0.501961" points="129,154 136,156 135,137" />
<polygon fill="#485040" fill-opacity="0.501961" points="253,224 248,200 245,231" />
<polygon fill="#a11e10" fill-opacity="0.501961" points="107,126 121,116 98,118" />
<polygon fill="#7a7658" fill-opacity="0.501961" points="243,161 234,187 237,134" />
<polygon fill="#dbd8c6" fill-opacity="0.501961" points="37,48 -4,123 59,122" />
<polygon fill="#601000" fill-opacity="0.501961" points="167,109 156,146 156,121" />
<polygon fill="#ffffff" fill-opacity="0.501961" points="88,113 91,102 95,126" />
<polygon fill="#ecefdd" fill-opacity="0.501961" points="120,136 166,102 155,128" />
<polygon fill="#370000" fill-opacity="0.501961" points="59,109 56,96 60,92" />
<polygon fill="#eff6e6" fill-opacity="0.501961" points="108,162 127,136 103,144" />
<polygon fill="#592211" fill-opacity="0.501961" points="174,123 186,119 185,136" />
<polygon fill="#840000" fill-opacity="0.501961" points="98,161 120,159 106,167" />
<polygon fill="#2f3234" fill-opacity="0.501961" points="119,212 116,220 114,207" />
<polygon fill="#666859" fill-opacity="0.501961" points="118,183 125,192 127,166" />
<polygon fill="#932817" fill-opacity="0.501961" points="78,107 68,108 84,86" />
<polygon fill="#23231c" fill-opacity="0.501961" points="40,185 45,183 48,170" />
<polygon fill="#707572" fill-opacity="0.501961" points="138,235 141,176 148,207" />
<polygon fill="#ece0ca" fill-opacity="0.501961" points="155,136 145,143 147,167" />
<polygon fill="#dad7d5" fill-opacity="0.501961" points="175,41 229,-16 110,21" />
<polygon fill="#eaf6ff" fill-opacity="0.501961" points="253,147 271,216 252,271" />
<polygon fill="#1a0000" fill-opacity="0.501961" points="167,111 181,109 163,117" />
<polygon fill="#761706" fill-opacity="0.501961" points="142,140 147,160 133,159" />
<polygon fill="#ac9252" fill-opacity="0.501961" points="23,271 -16,251 32,232" />
<polygon fill="#5b5f55" fill-opacity="0.501961" points="181,215 176,201 183,184" />
<polygon fill="#d9d6c7" fill-opacity="0.501961" points="122,159 120,201 88,178" />
<polygon fill="#fdfff7" fill-opacity="0.501961" points="65,127 70,135 68,114" />
<polygon fill="#676758" fill-opacity="0.501961" points="166,73 166,46 160,51" />
<polygon fill="#242d30" fill-opacity="0.501961" points="170,222 165,225 166,207" />
<polygon fill="#c3941a" fill-opacity="0.501961" points="105,26 119,23 117,43" />
<polygon fill="#dce8ee" fill-opacity="0.501961" points="236,230 246,263 245,199" />
<polygon fill="#d7dfe5" fill-opacity="0.501961" points="130,271 157,231 159,178" />
<polygon fill="#a7250e" fill-opacity="0.501961" points="102,141 123,130 115,139" />
<polygon fill="#dfdbd4" fill-opacity="0.501961" points="-16,206 80,144 12,137" />
<polygon fill="#f0ee99" fill-opacity="0.501961" points="90,60 126,29 147,55" />
<polygon fill="#202c2a" fill-opacity="0.501961" points="254,68 271,38 254,43" />
<polygon fill="#d1d4cc" fill-opacity="0.501961" points="183,158 213,165 209,263" />
<polygon fill="#fdfff7" fill-opacity="0.501961" points="75,116 82,105 80,117" />
<polygon fill="#8b8f82" fill-opacity="0.501961" points="205,205 201,257 194,225" />
<polygon fill="#868769" fill-opacity="0.501961" points="231,228 240,252 239,202" />
<polygon fill="#dedbce" fill-opacity="0.501961" points="112,42 80,99 136,100" />
<polygon fill="#b7b197" fill-opacity="0.501961" points="194,116 192,39 223,49" />
<polygon fill="#c8c5bd" fill-opacity="0.501961" points="59,271 55,174 23,198" />
<polygon fill="#670b02" fill-opacity="0.501961" points="171,163 190,146 179,163" />
<polygon fill="#7d765c" fill-opacity="0.501961" points="254,103 248,91 249,122" />
<polygon fill="#e5ecec" fill-opacity="0.501961" points="237,196 230,164 227,223" />
<polygon fill="#ebf5ff" fill-opacity="0.501961" points="72,20 88,28 55,30" />
<polygon fill="#dfdacf" fill-opacity="0.501961" points="153,190 173,180 162,135" />
<polygon fill="#7b7c77" fill-opacity="0.501961" points="163,173 164,210 156,201" />
<polygon fill="#4d4a43" fill-opacity="0.501961" points="49,168 43,179 48,154" />
<polygon fill="#f0f2f4" fill-opacity="0.501961" points="247,145 238,163 244,189" />
<polygon fill="#8f1701" fill-opacity="0.501961" points="96,139 72,141 91,134" />
<polygon fill="#810200" fill-opacity="0.501961" points="103,107 96,114 102,124" />
<polygon fill="#cdcdbc" fill-opacity="0.501961" points="8,97 180,79 84,50" />
<polygon fill="#15190f" fill-opacity="0.501961" points="62,256 57,263 61,244" />
<polygon fill="#eef4e5" fill-opacity="0.501961" points="172,113 170,127 162,123" />
<polygon fill="#dce6f1" fill-opacity="0.501961" points="157,229 166,200 164,255" />
<polygon fill="#e2decd" fill-opacity="0.501961" points="103,120 142,68 126,110" />
<polygon fill="#eff1f6" fill-opacity="0.501961" points="271,98 254,163 253,74" />
<polygon fill="#6d0700" fill-opacity="0.501961" points="57,130 66,116 63,132" />
<polygon fill="#91948d" fill-opacity="0.501961" points="165,267 147,224 144,271" />
<polygon fill="#434240" fill-opacity="0.501961" points="-11,268 -16,241 5,204" />
<polygon fill="#6b0900" fill-opacity="0.501961" points="168,129 158,123 151,130" />
<polygon fill="#e1decd" fill-opacity="0.501961" points="203,124 184,124 200,193" />
<polygon fill="#080702" fill-opacity="0.501961" points="239,151 241,160 236,158" />
<polygon fill="#6f6e6b" fill-opacity="0.501961" points="52,185 38,212 49,203" />
<polygon fill="#f0f7ff" fill-opacity="0.501961" points="173,186 180,167 178,201" />
</g>
</svg>