<svg xmlns="http://www.w3.org/2000/svg" version="1.1" width="300" height="300">
<rect x="0" y="0" width="300" height="300" fill="#72544e" />
<g transform="scale(1.171875) translate(0.5 0.5)">
<polygon fill="#ffffbf" fill-opacity="0.501961" points="198,247 205,58 34,88" />
<polygon fill="#000000" fill-opacity="0.501961" points="97,-13 5,271 -16,-1" />
<polygon fill="#040014" fill-opacity="0.501961" points="-6,-6 271,99 271,0" />
<polygon fill="#f4e6a6" fill-opacity="0.501961" points="165,40 157,230 47,77" />
<polygon fill="#cfb77e" fill-opacity="0.501961" points="41,192 271,179 205,112" />
<polygon fill="#000007" fill-opacity="0.501961" points="2,271 92,147 52,119" />
<polygon fill="#53021b" fill-opacity="0.501961" points="-10,252 231,203 271,271" />
<polygon fill="#4d0608" fill-opacity="0.501961" points="124,201 210,137 188,120" />
<polygon fill="#f2ef94" fill-opacity="0.501961" points="214,128 262,149 134,220" />
<polygon fill="#000001" fill-opacity="0.501961" points="108,186 136,221 73,236" />
<polygon fill="#edafa2" fill-opacity="0.501961" points="53,238 58,183 145,140" />
<polygon fill="#30021e" fill-opacity="0.501961" points="36,105 173,-16 -16,18" />
<polygon fill="#000015" fill-opacity="0.501961" points="117,154 38,129 54,180" />
<polygon fill="#f2f0c7" fill-opacity="0.501961" points="158,168 61,129 179,81" />
<polygon fill="#240f3e" fill-opacity="0.501961" points="271,107 180,52 234,140" />
<polygon fill="#391123" fill-opacity="0.501961" points="211,-16 17,35 212,62" />
<polygon fill="#c48a50" fill-opacity="0.501961" points="134,227 235,160 209,225" />
<polygon fill="#fffff4" fill-opacity="0.501961" points="92,147 61,121 58,92" />
<polygon fill="#20001d" fill-opacity="0.501961" points="-16,235 67,125 30,271" />
<polygon fill="#05062c" fill-opacity="0.501961" points="257,270 240,200 191,271" />
<polygon fill="#bd564e" fill-opacity="0.501961" points="115,219 137,252 55,271" />
<polygon fill="#6b2f2c" fill-opacity="0.501961" points="156,189 85,199 140,174" />
<polygon fill="#cfb35a" fill-opacity="0.501961" points="88,56 175,58 201,110" />
<polygon fill="#6ea6d5" fill-opacity="0.501961" points="38,136 49,167 36,167" />
<polygon fill="#00000b" fill-opacity="0.501961" points="153,262 126,226 164,233" />
<polygon fill="#5e2b33" fill-opacity="0.501961" points="53,114 -16,157 90,2" />
<polygon fill="#eee9c3" fill-opacity="0.501961" points="86,115 217,125 134,76" />
<polygon fill="#b79186" fill-opacity="0.501961" points="271,140 244,224 238,132" />
<polygon fill="#c34446" fill-opacity="0.501961" points="36,249 84,233 54,192" />
<polygon fill="#a0c2de" fill-opacity="0.501961" points="230,58 246,51 242,68" />
<polygon fill="#eaeecc" fill-opacity="0.501961" points="67,77 96,56 136,54" />
<polygon fill="#06001e" fill-opacity="0.501961" points="223,132 267,131 203,107" />
<polygon fill="#190022" fill-opacity="0.501961" points="77,158 50,91 41,212" />
<polygon fill="#340518" fill-opacity="0.501961" points="222,187 240,168 242,217" />
<polygon fill="#5b2628" fill-opacity="0.501961" points="166,147 172,174 206,120" />
<polygon fill="#130016" fill-opacity="0.501961" points="81,233 123,215 114,176" />
<polygon fill="#ccc06a" fill-opacity="0.501961" points="131,218 166,224 154,169" />
<polygon fill="#56354d" fill-opacity="0.501961" points="241,126 183,64 233,22" />
<polygon fill="#c9ad58" fill-opacity="0.501961" points="83,124 120,51 74,77" />
<polygon fill="#0f0022" fill-opacity="0.501961" points="271,-7 267,115 221,-13" />
<polygon fill="#cdcea4" fill-opacity="0.501961" points="125,209 111,158 127,137" />
<polygon fill="#e3f2e1" fill-opacity="0.501961" points="202,124 206,98 194,75" />
<polygon fill="#9e3e48" fill-opacity="0.501961" points="148,259 240,210 209,186" />
<polygon fill="#26001c" fill-opacity="0.501961" points="44,122 -16,180 3,270" />
<polygon fill="#1a001b" fill-opacity="0.501961" points="37,188 74,140 112,154" />
<polygon fill="#20001c" fill-opacity="0.501961" points="-8,32 -16,190 56,-16" />
<polygon fill="#eef8e4" fill-opacity="0.501961" points="57,104 68,77 73,134" />
<polygon fill="#eae39c" fill-opacity="0.501961" points="167,210 147,177 214,175" />
<polygon fill="#ddd19e" fill-opacity="0.501961" points="184,145 129,74 171,91" />
<polygon fill="#c4b76d" fill-opacity="0.501961" points="213,123 172,173 213,196" />
<polygon fill="#c4a999" fill-opacity="0.501961" points="124,149 61,181 109,190" />
<polygon fill="#512930" fill-opacity="0.501961" points="81,35 225,72 149,19" />
<polygon fill="#4d292d" fill-opacity="0.501961" points="61,45 -12,107 144,35" />
<polygon fill="#e5e2b3" fill-opacity="0.501961" points="208,119 207,144 241,150" />
<polygon fill="#4c68a2" fill-opacity="0.501961" points="241,109 247,81 258,80" />
<polygon fill="#0b0024" fill-opacity="0.501961" points="230,124 203,115 209,104" />
<polygon fill="#b97568" fill-opacity="0.501961" points="39,216 85,225 66,177" />
<polygon fill="#26001e" fill-opacity="0.501961" points="84,216 89,197 151,230" />
<polygon fill="#58252b" fill-opacity="0.501961" points="194,149 189,119 200,122" />
<polygon fill="#682c20" fill-opacity="0.501961" points="138,177 143,194 121,197" />
<polygon fill="#4e2e42" fill-opacity="0.501961" points="266,245 208,228 238,200" />
<polygon fill="#1c0324" fill-opacity="0.501961" points="36,139 94,163 52,109" />
<polygon fill="#110829" fill-opacity="0.501961" points="271,40 271,126 242,123" />
<polygon fill="#c5ab60" fill-opacity="0.501961" points="88,67 201,99 166,57" />
<polygon fill="#e3e6d2" fill-opacity="0.501961" points="148,54 106,53 124,61" />
<polygon fill="#dad8a0" fill-opacity="0.501961" points="116,170 123,129 170,163" />
<polygon fill="#d8ca9a" fill-opacity="0.501961" points="88,144 72,133 102,86" />
<polygon fill="#ad484f" fill-opacity="0.501961" points="110,192 77,204 116,176" />
<polygon fill="#290c29" fill-opacity="0.501961" points="218,-10 204,90 161,-16" />
<polygon fill="#a18761" fill-opacity="0.501961" points="114,199 174,220 147,231" />
<polygon fill="#66372e" fill-opacity="0.501961" points="166,156 184,167 172,134" />
<polygon fill="#664c5a" fill-opacity="0.501961" points="224,122 239,58 204,95" />
<polygon fill="#572a2f" fill-opacity="0.501961" points="-6,178 96,38 25,87" />
<polygon fill="#100015" fill-opacity="0.501961" points="271,249 198,271 218,239" />
<polygon fill="#902a33" fill-opacity="0.501961" points="72,242 37,254 42,205" />
<polygon fill="#110016" fill-opacity="0.501961" points="140,237 142,257 174,224" />
<polygon fill="#524e72" fill-opacity="0.501961" points="240,40 248,44 249,20" />
<polygon fill="#6894af" fill-opacity="0.501961" points="37,143 51,176 35,156" />
<polygon fill="#1f0016" fill-opacity="0.501961" points="-8,146 35,243 2,271" />
<polygon fill="#dde4d0" fill-opacity="0.501961" points="94,61 66,84 79,65" />
<polygon fill="#a07342" fill-opacity="0.501961" points="166,168 150,162 140,202" />
<polygon fill="#100028" fill-opacity="0.501961" points="253,65 237,69 237,105" />
<polygon fill="#7c3137" fill-opacity="0.501961" points="160,243 226,209 191,256" />
<polygon fill="#d0d2c6" fill-opacity="0.501961" points="140,56 179,65 162,55" />
<polygon fill="#656989" fill-opacity="0.501961" points="232,246 224,225 231,225" />
<polygon fill="#4f2b34" fill-opacity="0.501961" points="230,84 90,26 183,37" />
<polygon fill="#a97d4c" fill-opacity="0.501961" points="155,221 196,217 242,166" />
<polygon fill="#ebecb4" fill-opacity="0.501961" points="123,156 130,184 147,144" />
<polygon fill="#b4ae9e" fill-opacity="0.501961" points="240,132 242,150 271,141" />
<polygon fill="#ece7c4" fill-opacity="0.501961" points="175,133 128,74 97,124" />
<polygon fill="#9f5855" fill-opacity="0.501961" points="92,231 135,246 121,222" />
<polygon fill="#ede0a3" fill-opacity="0.501961" points="150,207 204,173 162,173" />
<polygon fill="#f2efb4" fill-opacity="0.501961" points="227,132 235,141 211,142" />
<polygon fill="#c6ba6c" fill-opacity="0.501961" points="173,216 134,217 134,193" />
<polygon fill="#a54a4e" fill-opacity="0.501961" points="90,199 81,231 79,193" />
<polygon fill="#bcc4c5" fill-opacity="0.501961" points="191,116 211,119 226,136" />
<polygon fill="#180016" fill-opacity="0.501961" points="234,-16 263,-16 236,50" />
<polygon fill="#33244b" fill-opacity="0.501961" points="233,-16 208,0 232,72" />
<polygon fill="#cbcb9e" fill-opacity="0.501961" points="177,156 175,152 170,161" />
<polygon fill="#d4dac4" fill-opacity="0.501961" points="171,60 201,81 185,78" />
</g>
</svg>