<svg xmlns="http://www.w3.org/2000/svg" version="1.1" width="300" height="300">
<rect x="0" y="0" width="300" height="300" fill="#876f54" />
<g transform="scale(1.171875) translate(0.5 0.5)">
<polygon fill="#ffffd7" fill-opacity="0.501961" points="248,-16 78,81 271,112" />
<polygon fill="#020000" fill-opacity="0.501961" points="-16,175 271,250 7,271" />
<polygon fill="#fffff8" fill-opacity="0.501961" points="84,46 184,-16 7,28" />
<polygon fill="#000007" fill-opacity="0.501961" points="253,122 176,265 271,264" />
<polygon fill="#f1e1b6" fill-opacity="0.501961" points="60,141 144,63 -16,102" />
<polygon fill="#fffec8" fill-opacity="0.501961" points="214,128 271,2 166,-16" />
<polygon fill="#000001" fill-opacity="0.501961" points="-16,71 12,95 111,38" />
<polygon fill="#864c19" fill-opacity="0.501961" points="175,58 165,268 7,178" />
<polygon fill="#000005" fill-opacity="0.501961" points="96,9 -16,23 13,-16" />
<polygon fill="#ffffff" fill-opacity="0.501961" points="3,66 -16,38 55,40" />
<polygon fill="#0a0000" fill-opacity="0.501961" points="23,116 -16,162 79,98" />
<polygon fill="#130f21" fill-opacity="0.501961" points="187,-7 104,71 47,66" />
<polygon fill="#f7ff81" fill-opacity="0.501961" points="84,224 92,185 127,209" />
<polygon fill="#fbffe8" fill-opacity="0.501961" points="59,65 90,89 21,99" />
<polygon fill="#4e1817" fill-opacity="0.501961" points="218,114 143,196 87,141" />
<polygon fill="#b97a49" fill-opacity="0.501961" points="238,190 103,266 197,123" />
<polygon fill="#000019" fill-opacity="0.501961" points="263,169 135,271 254,271" />
<polygon fill="#000008" fill-opacity="0.501961" points="208,124 243,138 227,168" />
<polygon fill="#fffff9" fill-opacity="0.501961" points="123,27 85,2 162,-16" />
<polygon fill="#dec353" fill-opacity="0.501961" points="52,117 142,102 132,142" />
<polygon fill="#f5cf8b" fill-opacity="0.501961" points="255,39 247,126 132,67" />
<polygon fill="#fdedb1" fill-opacity="0.501961" points="6,35 98,33 49,7" />
<polygon fill="#796153" fill-opacity="0.501961" points="107,71 157,-16 183,53" />
<polygon fill="#120516" fill-opacity="0.501961" points="-13,176 6,252 113,246" />
<polygon fill="#000012" fill-opacity="0.501961" points="-16,54 -5,1 64,-16" />
<polygon fill="#e8d78a" fill-opacity="0.501961" points="48,154 83,100 -12,183" />
<polygon fill="#24101b" fill-opacity="0.501961" points="73,22 90,3 26,-16" />
<polygon fill="#fffce7" fill-opacity="0.501961" points="174,12 231,-16 186,64" />
<polygon fill="#3e2317" fill-opacity="0.501961" points="58,205 -16,199 51,148" />
<polygon fill="#00021d" fill-opacity="0.501961" points="27,92 75,50 -16,73" />
<polygon fill="#4f000f" fill-opacity="0.501961" points="138,86 96,103 179,97" />
<polygon fill="#e3ff83" fill-opacity="0.501961" points="115,174 139,193 118,196" />
<polygon fill="#cad433" fill-opacity="0.501961" points="164,101 175,127 198,99" />
<polygon fill="#2c1a1f" fill-opacity="0.501961" points="126,122 194,157 152,166" />
<polygon fill="#14111c" fill-opacity="0.501961" points="79,76 57,64 137,42" />
<polygon fill="#a9977b" fill-opacity="0.501961" points="270,76 197,118 271,144" />
<polygon fill="#250400" fill-opacity="0.501961" points="105,18 122,35 108,32" />
<polygon fill="#1a101e" fill-opacity="0.501961" points="122,36 178,-16 177,7" />
<polygon fill="#d2ceb2" fill-opacity="0.501961" points="4,121 78,91 -12,95" />
<polygon fill="#452418" fill-opacity="0.501961" points="66,212 99,132 73,145" />
<polygon fill="#c0b799" fill-opacity="0.501961" points="171,32 134,28 170,82" />
<polygon fill="#3e1519" fill-opacity="0.501961" points="185,54 179,65 174,42" />
<polygon fill="#1f151f" fill-opacity="0.501961" points="124,271 35,233 119,218" />
<polygon fill="#c84624" fill-opacity="0.501961" points="131,139 134,189 157,183" />
<polygon fill="#643030" fill-opacity="0.501961" points="107,269 184,198 187,229" />
<polygon fill="#e5dbb5" fill-opacity="0.501961" points="131,73 62,132 98,70" />
<polygon fill="#cba344" fill-opacity="0.501961" points="162,61 170,83 105,94" />
<polygon fill="#f9f3cb" fill-opacity="0.501961" points="97,36 123,-11 58,30" />
<polygon fill="#ddd462" fill-opacity="0.501961" points="77,185 87,175 121,204" />
<polygon fill="#bc986c" fill-opacity="0.501961" points="213,201 150,203 242,166" />
<polygon fill="#a8884e" fill-opacity="0.501961" points="68,85 38,86 61,101" />
<polygon fill="#503822" fill-opacity="0.501961" points="139,124 190,112 233,134" />
<polygon fill="#bb7038" fill-opacity="0.501961" points="17,139 63,109 -4,189" />
<polygon fill="#190014" fill-opacity="0.501961" points="122,204 147,189 127,215" />
<polygon fill="#0c0e1e" fill-opacity="0.501961" points="29,93 -16,94 -10,54" />
<polygon fill="#b27125" fill-opacity="0.501961" points="65,145 87,169 32,182" />
<polygon fill="#ffffff" fill-opacity="0.501961" points="56,66 69,75 54,84" />
<polygon fill="#291019" fill-opacity="0.501961" points="-14,129 47,116 -16,166" />
<polygon fill="#2f1924" fill-opacity="0.501961" points="57,9 53,-10 -4,26" />
<polygon fill="#3f2624" fill-opacity="0.501961" points="114,138 92,185 133,165" />
<polygon fill="#b18b6c" fill-opacity="0.501961" points="84,44 46,56 35,31" />
<polygon fill="#e4d952" fill-opacity="0.501961" points="103,158 93,148 97,173" />
<polygon fill="#c2ce60" fill-opacity="0.501961" points="72,223 101,197 112,217" />
<polygon fill="#04081c" fill-opacity="0.501961" points="271,144 223,155 212,133" />
<polygon fill="#a22e1d" fill-opacity="0.501961" points="63,247 50,269 40,238" />
<polygon fill="#45322f" fill-opacity="0.501961" points="49,-10 67,20 94,11" />
<polygon fill="#bc8f46" fill-opacity="0.501961" points="223,191 217,138 172,131" />
<polygon fill="#f0ebba" fill-opacity="0.501961" points="-16,34 9,65 38,45" />
<polygon fill="#9b7263" fill-opacity="0.501961" points="269,162 255,151 221,157" />
<polygon fill="#f4d28f" fill-opacity="0.501961" points="173,83 271,29 241,107" />
<polygon fill="#9c3319" fill-opacity="0.501961" points="190,127 166,148 190,157" />
<polygon fill="#390d0a" fill-opacity="0.501961" points="103,95 104,103 124,91" />
<polygon fill="#070116" fill-opacity="0.501961" points="164,19 159,31 146,31" />
<polygon fill="#ece3c5" fill-opacity="0.501961" points="77,89 29,109 52,109" />
<polygon fill="#975334" fill-opacity="0.501961" points="96,91 73,90 58,106" />
<polygon fill="#dfdc5a" fill-opacity="0.501961" points="60,209 64,187 57,200" />
<polygon fill="#101720" fill-opacity="0.501961" points="252,181 271,256 147,258" />
<polygon fill="#f4e8c8" fill-opacity="0.501961" points="190,-16 179,94 231,13" />
<polygon fill="#9b5428" fill-opacity="0.501961" points="96,199 65,218 83,186" />
<polygon fill="#9c7b59" fill-opacity="0.501961" points="137,39 110,74 166,51" />
<polygon fill="#ccc075" fill-opacity="0.501961" points="57,126 25,171 -4,176" />
<polygon fill="#9b6319" fill-opacity="0.501961" points="76,122 56,154 103,131" />
<polygon fill="#16151d" fill-opacity="0.501961" points="100,71 136,37 71,68" />
<polygon fill="#ccae5d" fill-opacity="0.501961" points="162,210 169,172 193,190" />
<polygon fill="#977457" fill-opacity="0.501961" points="135,22 176,-2 144,-16" />
<polygon fill="#746053" fill-opacity="0.501961" points="56,63 115,42 83,65" />
<polygon fill="#baad8e" fill-opacity="0.501961" points="205,121 194,99 271,112" />
<polygon fill="#9f654b" fill-opacity="0.501961" points="219,203 178,197 177,233" />
<polygon fill="#d3bc94" fill-opacity="0.501961" points="104,49 122,39 111,40" />
<polygon fill="#795849" fill-opacity="0.501961" points="252,120 191,126 271,142" />
<polygon fill="#9e7247" fill-opacity="0.501961" points="32,116 34,101 13,104" />
<polygon fill="#f0e6c2" fill-opacity="0.501961" points="141,62 180,65 167,54" />
<polygon fill="#804520" fill-opacity="0.501961" points="248,87 271,130 271,74" />
<polygon fill="#602028" fill-opacity="0.501961" points="117,103 174,100 170,85" />
<polygon fill="#2a2b2b" fill-opacity="0.501961" points="168,111 135,151 169,155" />
<polygon fill="#2f2928" fill-opacity="0.501961" points="75,151 148,152 97,137" />
<polygon fill="#ae7758" fill-opacity="0.501961" points="150,190 129,218 128,255" />
<polygon fill="#c69c3e" fill-opacity="0.501961" points="147,106 97,102 93,137" />
<polygon fill="#ecddb0" fill-opacity="0.501961" points="93,40 24,21 56,11" />
<polygon fill="#ffffe8" fill-opacity="0.501961" points="88,7 141,12 124,24" />
</g>
</svg>