<svg xmlns="http://www.w3.org/2000/svg" version="1.1" width="300" height="300">
<rect x="0" y="0" width="300" height="300" fill="#53413f" />
<g transform="scale(1.171875) translate(0.5 0.5)">
<polygon fill="#b5a290" fill-opacity="0.501961" points="2,10 271,135 271,259" />
<polygon fill="#eacdb4" fill-opacity="0.501961" points="254,127 195,200 271,241" />
<polygon fill="#0d0e20" fill-opacity="0.501961" points="4,260 152,114 -16,90" />
<polygon fill="#110f1a" fill-opacity="0.501961" points="246,111 66,42 268,-16" />
<polygon fill="#e3cc94" fill-opacity="0.501961" points="34,-16 81,17 61,80" />
<polygon fill="#ffca7a" fill-opacity="0.501961" points="155,157 128,190 61,201" />
<polygon fill="#4b3f42" fill-opacity="0.501961" points="266,181 73,42 85,150" />
<polygon fill="#080815" fill-opacity="0.501961" points="189,188 48,271 2,224" />
<polygon fill="#000311" fill-opacity="0.501961" points="169,271 271,241 179,217" />
<polygon fill="#f4ffff" fill-opacity="0.501961" points="270,130 247,116 266,32" />
<polygon fill="#ffd4ac" fill-opacity="0.501961" points="113,78 168,92 99,53" />
<polygon fill="#d0471d" fill-opacity="0.501961" points="138,251 145,220 52,267" />
<polygon fill="#000c26" fill-opacity="0.501961" points="267,127 226,140 226,113" />
<polygon fill="#f8d6b9" fill-opacity="0.501961" points="229,122 184,119 201,101" />
<polygon fill="#ffffff" fill-opacity="0.501961" points="271,133 219,153 241,135" />
<polygon fill="#2e1e22" fill-opacity="0.501961" points="235,-11 72,10 77,65" />
<polygon fill="#a6725d" fill-opacity="0.501961" points="63,50 93,123 143,109" />
<polygon fill="#c1c4b2" fill-opacity="0.501961" points="172,155 188,162 172,103" />
<polygon fill="#443435" fill-opacity="0.501961" points="173,214 222,141 99,195" />
<polygon fill="#b5d3e5" fill-opacity="0.501961" points="228,211 183,195 224,183" />
<polygon fill="#0b0004" fill-opacity="0.501961" points="151,98 112,75 137,108" />
<polygon fill="#26343b" fill-opacity="0.501961" points="219,129 211,196 188,128" />
<polygon fill="#84553b" fill-opacity="0.501961" points="-3,97 51,57 39,-16" />
<polygon fill="#e97b4d" fill-opacity="0.501961" points="158,159 83,202 89,168" />
<polygon fill="#af9a7c" fill-opacity="0.501961" points="210,29 169,17 179,30" />
<polygon fill="#db5516" fill-opacity="0.501961" points="221,183 271,178 233,197" />
<polygon fill="#241a20" fill-opacity="0.501961" points="15,271 15,68 69,76" />
<polygon fill="#1a0b16" fill-opacity="0.501961" points="110,96 90,126 104,72" />
<polygon fill="#f1a66a" fill-opacity="0.501961" points="144,182 157,138 143,143" />
<polygon fill="#ff4f1f" fill-opacity="0.501961" points="50,216 50,205 81,195" />
<polygon fill="#6e8694" fill-opacity="0.501961" points="216,175 187,185 203,230" />
<polygon fill="#edecf2" fill-opacity="0.501961" points="167,105 172,117 173,86" />
<polygon fill="#ffc094" fill-opacity="0.501961" points="117,78 108,112 121,100" />
<polygon fill="#46343d" fill-opacity="0.501961" points="34,125 69,194 159,153" />
<polygon fill="#542c1f" fill-opacity="0.501961" points="140,227 168,95 178,271" />
<polygon fill="#fff3ad" fill-opacity="0.501961" points="152,161 115,179 139,179" />
<polygon fill="#0e040d" fill-opacity="0.501961" points="74,59 114,71 74,38" />
<polygon fill="#fad3a5" fill-opacity="0.501961" points="235,214 271,210 238,169" />
<polygon fill="#fbffff" fill-opacity="0.501961" points="250,172 271,161 237,160" />
<polygon fill="#ec9b91" fill-opacity="0.501961" points="-11,82 10,93 17,77" />
<polygon fill="#2b151a" fill-opacity="0.501961" points="223,254 231,212 271,271" />
<polygon fill="#c1a984" fill-opacity="0.501961" points="44,59 65,-16 72,75" />
<polygon fill="#b8cdd8" fill-opacity="0.501961" points="235,152 219,135 223,169" />
<polygon fill="#9a2e00" fill-opacity="0.501961" points="253,159 237,158 236,142" />
<polygon fill="#d0ba96" fill-opacity="0.501961" points="140,20 141,13 115,12" />
<polygon fill="#000008" fill-opacity="0.501961" points="271,185 271,211 243,168" />
<polygon fill="#86896a" fill-opacity="0.501961" points="216,142 181,141 169,184" />
<polygon fill="#5b5b64" fill-opacity="0.501961" points="234,121 245,67 216,122" />
<polygon fill="#75564f" fill-opacity="0.501961" points="148,51 112,38 162,92" />
<polygon fill="#5a372b" fill-opacity="0.501961" points="45,36 2,-16 -12,100" />
<polygon fill="#ebeff5" fill-opacity="0.501961" points="217,130 215,121 203,128" />
<polygon fill="#2c344a" fill-opacity="0.501961" points="167,102 113,119 175,147" />
<polygon fill="#1d1922" fill-opacity="0.501961" points="234,111 176,88 149,-15" />
<polygon fill="#f3e7d8" fill-opacity="0.501961" points="207,192 232,195 222,218" />
<polygon fill="#aba99c" fill-opacity="0.501961" points="169,157 185,147 144,145" />
<polygon fill="#fcce2e" fill-opacity="0.501961" points="180,256 151,250 159,271" />
<polygon fill="#d59a7d" fill-opacity="0.501961" points="82,63 99,70 89,95" />
<polygon fill="#373c59" fill-opacity="0.501961" points="150,171 120,207 75,208" />
<polygon fill="#b96446" fill-opacity="0.501961" points="11,91 35,94 12,100" />
<polygon fill="#a29573" fill-opacity="0.501961" points="38,15 66,-11 84,41" />
<polygon fill="#35383b" fill-opacity="0.501961" points="197,144 183,181 228,153" />
<polygon fill="#8dd2f5" fill-opacity="0.501961" points="227,171 223,182 244,171" />
<polygon fill="#24262b" fill-opacity="0.501961" points="226,130 171,127 195,140" />
<polygon fill="#d69f89" fill-opacity="0.501961" points="148,75 174,102 89,68" />
<polygon fill="#6b7760" fill-opacity="0.501961" points="211,231 208,191 192,230" />
<polygon fill="#1f1822" fill-opacity="0.501961" points="253,-5 207,17 229,118" />
<polygon fill="#8ebab7" fill-opacity="0.501961" points="128,105 152,106 118,116" />
<polygon fill="#3a2733" fill-opacity="0.501961" points="176,98 173,118 189,111" />
<polygon fill="#211b22" fill-opacity="0.501961" points="64,189 -16,70 6,271" />
<polygon fill="#f7eee1" fill-opacity="0.501961" points="236,220 271,225 257,235" />
<polygon fill="#f6fbe6" fill-opacity="0.501961" points="188,106 197,102 217,113" />
<polygon fill="#1d1b23" fill-opacity="0.501961" points="75,66 125,34 105,-14" />
<polygon fill="#a14928" fill-opacity="0.501961" points="153,201 152,230 176,234" />
<polygon fill="#f2f8e4" fill-opacity="0.501961" points="240,136 271,130 269,175" />
<polygon fill="#5b2b26" fill-opacity="0.501961" points="96,70 123,82 97,91" />
<polygon fill="#1d0c10" fill-opacity="0.501961" points="122,80 139,88 117,94" />
<polygon fill="#b05d34" fill-opacity="0.501961" points="138,181 164,169 148,190" />
<polygon fill="#a6adc4" fill-opacity="0.501961" points="227,132 224,106 219,139" />
<polygon fill="#785944" fill-opacity="0.501961" points="27,74 2,-16 50,1" />
<polygon fill="#6a6f7e" fill-opacity="0.501961" points="122,140 176,118 154,112" />
<polygon fill="#da4d2a" fill-opacity="0.501961" points="111,172 134,164 106,162" />
<polygon fill="#281e20" fill-opacity="0.501961" points="148,174 175,219 199,212" />
<polygon fill="#2b232e" fill-opacity="0.501961" points="223,185 206,160 216,137" />
<polygon fill="#1b1d29" fill-opacity="0.501961" points="83,141 157,136 106,156" />
<polygon fill="#ffc069" fill-opacity="0.501961" points="79,199 115,188 108,180" />
<polygon fill="#c7b193" fill-opacity="0.501961" points="81,3 81,9 95,8" />
<polygon fill="#7d3d32" fill-opacity="0.501961" points="41,62 94,105 86,82" />
<polygon fill="#242e30" fill-opacity="0.501961" points="238,163 247,173 222,168" />
<polygon fill="#d2491e" fill-opacity="0.501961" points="233,197 224,184 246,184" />
<polygon fill="#1c1922" fill-opacity="0.501961" points="132,193 150,195 150,247" />
<polygon fill="#bd785b" fill-opacity="0.501961" points="197,120 209,116 178,98" />
<polygon fill="#973f21" fill-opacity="0.501961" points="245,221 244,214 269,215" />
<polygon fill="#dbe6ec" fill-opacity="0.501961" points="173,126 170,120 186,125" />
<polygon fill="#512c28" fill-opacity="0.501961" points="195,-16 79,2 221,27" />
<polygon fill="#6b474b" fill-opacity="0.501961" points="64,172 114,156 105,184" />
<polygon fill="#7d9990" fill-opacity="0.501961" points="271,123 245,123 242,106" />
<polygon fill="#f6efdb" fill-opacity="0.501961" points="232,205 239,198 243,226" />
<polygon fill="#d2d3c1" fill-opacity="0.501961" points="86,99 68,96 76,100" />
<polygon fill="#e4d1b8" fill-opacity="0.501961" points="205,146 214,148 209,140" />
<polygon fill="#565e55" fill-opacity="0.501961" points="204,130 207,190 182,160" />
</g>
</svg>