<svg xmlns="http://www.w3.org/2000/svg" version="1.1" width="300" height="300">
<rect x="0" y="0" width="300" height="300" fill="#958161" />
<g transform="scale(1.171875) translate(0.5 0.5)">
<polygon fill="#000000" fill-opacity="0.501961" points="95,271 60,196 271,241" />
<polygon fill="#3c0000" fill-opacity="0.501961" points="134,92 8,148 249,200" />
<polygon fill="#ffffe4" fill-opacity="0.501961" points="233,172 271,105 152,100" />
<polygon fill="#000000" fill-opacity="0.501961" points="103,-16 187,108 110,62" />
<polygon fill="#ffffc2" fill-opacity="0.501961" points="202,193 -10,195 67,158" />
<polygon fill="#d2dcb0" fill-opacity="0.501961" points="131,76 6,148 -6,-15" />
<polygon fill="#dee2b5" fill-opacity="0.501961" points="96,271 -16,258 3,129" />
<polygon fill="#140000" fill-opacity="0.501961" points="42,125 177,174 19,162" />
<polygon fill="#000000" fill-opacity="0.501961" points="126,72 96,12 143,-16" />
<polygon fill="#d4b3a7" fill-opacity="0.501961" points="146,72 135,-16 271,55" />
<polygon fill="#ffffa2" fill-opacity="0.501961" points="218,228 271,208 128,176" />
<polygon fill="#d0dbc6" fill-opacity="0.501961" points="70,-2 -16,30 117,43" />
<polygon fill="#f00029" fill-opacity="0.501961" points="194,28 236,-16 215,63" />
<polygon fill="#090310" fill-opacity="0.501961" points="76,220 96,271 271,230" />
<polygon fill="#ffffff" fill-opacity="0.501961" points="243,225 245,173 271,167" />
<polygon fill="#a35407" fill-opacity="0.501961" points="137,91 246,186 49,111" />
<polygon fill="#000000" fill-opacity="0.501961" points="214,70 236,98 207,102" />
<polygon fill="#8b5312" fill-opacity="0.501961" points="213,211 18,187 142,245" />
<polygon fill="#f0cb61" fill-opacity="0.501961" points="57,90 129,69 179,122" />
<polygon fill="#00000b" fill-opacity="0.501961" points="160,98 186,84 113,47" />
<polygon fill="#ffffc5" fill-opacity="0.501961" points="6,194 153,181 61,162" />
<polygon fill="#100300" fill-opacity="0.501961" points="166,145 91,165 206,190" />
<polygon fill="#c7d5ad" fill-opacity="0.501961" points="228,90 237,-16 268,79" />
<polygon fill="#00000b" fill-opacity="0.501961" points="-4,16 31,13 59,-7" />
<polygon fill="#000000" fill-opacity="0.501961" points="239,189 226,177 252,157" />
<polygon fill="#ffffc5" fill-opacity="0.501961" points="189,135 249,93 256,152" />
<polygon fill="#000000" fill-opacity="0.501961" points="93,103 64,118 143,115" />
<polygon fill="#0b010c" fill-opacity="0.501961" points="213,271 253,221 137,251" />
<polygon fill="#ffffd3" fill-opacity="0.501961" points="21,143 104,70 43,100" />
<polygon fill="#c7bfa3" fill-opacity="0.501961" points="230,-16 153,71 131,35" />
<polygon fill="#fffdda" fill-opacity="0.501961" points="47,271 67,207 81,262" />
<polygon fill="#000011" fill-opacity="0.501961" points="139,3 119,69 102,-11" />
<polygon fill="#e2782d" fill-opacity="0.501961" points="164,130 89,114 96,143" />
<polygon fill="#c89928" fill-opacity="0.501961" points="89,192 222,232 160,186" />
<polygon fill="#99a384" fill-opacity="0.501961" points="-16,91 94,2 114,58" />
<polygon fill="#000017" fill-opacity="0.501961" points="241,90 270,76 264,112" />
<polygon fill="#8c3d00" fill-opacity="0.501961" points="181,125 201,188 248,206" />
<polygon fill="#000a1f" fill-opacity="0.501961" points="176,69 180,99 131,77" />
<polygon fill="#b7977a" fill-opacity="0.501961" points="230,33 170,100 182,157" />
<polygon fill="#070000" fill-opacity="0.501961" points="152,4 161,8 155,21" />
<polygon fill="#faf4a9" fill-opacity="0.501961" points="26,189 19,159 103,197" />
<polygon fill="#f7e398" fill-opacity="0.501961" points="210,231 207,184 249,216" />
<polygon fill="#111336" fill-opacity="0.501961" points="223,41 195,40 219,52" />
<polygon fill="#1d0900" fill-opacity="0.501961" points="97,129 76,168 42,143" />
<polygon fill="#f63d5e" fill-opacity="0.501961" points="236,-15 182,-16 208,46" />
<polygon fill="#832c0e" fill-opacity="0.501961" points="153,137 35,122 119,163" />
<polygon fill="#110000" fill-opacity="0.501961" points="112,119 123,107 165,126" />
<polygon fill="#f4ffff" fill-opacity="0.501961" points="245,210 246,174 271,220" />
<polygon fill="#ffffb7" fill-opacity="0.501961" points="77,162 95,165 109,194" />
<polygon fill="#fbe6b1" fill-opacity="0.501961" points="195,113 271,102 222,175" />
<polygon fill="#1e1c23" fill-opacity="0.501961" points="92,271 227,236 69,213" />
<polygon fill="#2c0b17" fill-opacity="0.501961" points="227,71 205,81 212,109" />
<polygon fill="#b85100" fill-opacity="0.501961" points="74,99 45,117 92,104" />
<polygon fill="#cea881" fill-opacity="0.501961" points="268,225 248,271 230,251" />
<polygon fill="#bcb19c" fill-opacity="0.501961" points="176,-16 215,81 181,87" />
<polygon fill="#737669" fill-opacity="0.501961" points="152,246 111,234 158,233" />
<polygon fill="#2d1708" fill-opacity="0.501961" points="190,190 219,157 118,163" />
<polygon fill="#4e0800" fill-opacity="0.501961" points="241,163 244,208 230,197" />
<polygon fill="#00070e" fill-opacity="0.501961" points="109,68 125,30 148,67" />
<polygon fill="#033148" fill-opacity="0.501961" points="112,-12 61,-9 81,9" />
<polygon fill="#f4e8ba" fill-opacity="0.501961" points="222,81 271,67 234,92" />
<polygon fill="#000213" fill-opacity="0.501961" points="-16,109 4,134 5,119" />
<polygon fill="#9e9f7e" fill-opacity="0.501961" points="105,31 -8,169 22,49" />
<polygon fill="#ceaa5a" fill-opacity="0.501961" points="70,101 133,64 129,108" />
<polygon fill="#311902" fill-opacity="0.501961" points="39,169 12,148 100,153" />
<polygon fill="#bdd1d3" fill-opacity="0.501961" points="106,-9 96,20 79,16" />
<polygon fill="#0b282c" fill-opacity="0.501961" points="165,98 148,87 195,90" />
<polygon fill="#fbfdcc" fill-opacity="0.501961" points="92,97 73,83 40,108" />
<polygon fill="#95581d" fill-opacity="0.501961" points="136,196 199,225 65,205" />
<polygon fill="#000f1d" fill-opacity="0.501961" points="249,85 233,104 229,98" />
<polygon fill="#b4700e" fill-opacity="0.501961" points="203,143 148,106 170,151" />
<polygon fill="#edd361" fill-opacity="0.501961" points="129,177 63,196 179,195" />
<polygon fill="#f3e695" fill-opacity="0.501961" points="250,213 204,190 156,198" />
<polygon fill="#acac84" fill-opacity="0.501961" points="70,209 -16,175 -16,268" />
<polygon fill="#675e45" fill-opacity="0.501961" points="260,218 246,264 241,216" />
<polygon fill="#a64814" fill-opacity="0.501961" points="164,156 242,208 230,178" />
<polygon fill="#a3a989" fill-opacity="0.501961" points="211,70 271,75 246,-16" />
<polygon fill="#aabe9b" fill-opacity="0.501961" points="134,41 141,-7 188,81" />
<polygon fill="#aac7c2" fill-opacity="0.501961" points="216,9 209,18 190,9" />
<polygon fill="#d2cbb7" fill-opacity="0.501961" points="-14,18 9,48 79,7" />
<polygon fill="#000018" fill-opacity="0.501961" points="247,-6 271,2 271,38" />
<polygon fill="#5d2626" fill-opacity="0.501961" points="100,114 47,123 8,165" />
<polygon fill="#ece1b5" fill-opacity="0.501961" points="228,98 183,124 245,161" />
<polygon fill="#4f2200" fill-opacity="0.501961" points="35,193 68,196 45,201" />
<polygon fill="#d9d7c2" fill-opacity="0.501961" points="260,214 245,204 200,233" />
<polygon fill="#f6b53b" fill-opacity="0.501961" points="118,123 136,138 142,124" />
<polygon fill="#030e17" fill-opacity="0.501961" points="125,70 139,-15 98,9" />
<polygon fill="#ff6492" fill-opacity="0.501961" points="204,93 207,112 186,115" />
<polygon fill="#813b00" fill-opacity="0.501961" points="150,98 130,106 129,93" />
<polygon fill="#ffffc6" fill-opacity="0.501961" points="114,67 90,75 124,73" />
<polygon fill="#fffd7f" fill-opacity="0.501961" points="108,116 96,117 95,123" />
<polygon fill="#917036" fill-opacity="0.501961" points="219,215 201,226 158,208" />
<polygon fill="#fcffd7" fill-opacity="0.501961" points="30,177 21,164 35,163" />
<polygon fill="#160a11" fill-opacity="0.501961" points="213,73 226,96 209,107" />
<polygon fill="#2f0000" fill-opacity="0.501961" points="261,161 240,166 227,184" />
<polygon fill="#fffee2" fill-opacity="0.501961" points="57,118 61,114 72,118" />
<polygon fill="#e7dd92" fill-opacity="0.501961" points="162,101 127,86 130,74" />
<polygon fill="#843317" fill-opacity="0.501961" points="196,5 184,19 194,-12" />
<polygon fill="#bc8b20" fill-opacity="0.501961" points="96,80 124,76 109,99" />
<polygon fill="#c02828" fill-opacity="0.501961" points="260,106 251,140 268,150" />
</g>
</svg>