<svg xmlns="http://www.w3.org/2000/svg" version="1.1" width="300" height="300">
<rect x="0" y="0" width="300" height="300" fill="#c49353" />
<g transform="scale(1.171875) translate(0.5 0.5)">
<polygon fill="#fae09c" fill-opacity="0.501961" points="223,203 251,2 51,-14" />
<polygon fill="#862800" fill-opacity="0.501961" points="-13,265 0,167 193,271" />
<polygon fill="#a9600e" fill-opacity="0.501961" points="205,77 153,219 101,67" />
<polygon fill="#ebf7ed" fill-opacity="0.501961" points="194,218 44,166 104,228" />
<polygon fill="#791c00" fill-opacity="0.501961" points="3,-16 56,36 -13,99" />
<polygon fill="#ecefe1" fill-opacity="0.501961" points="68,56 168,27 36,128" />
<polygon fill="#411d16" fill-opacity="0.501961" points="59,118 100,188 169,191" />
<polygon fill="#f0f3eb" fill-opacity="0.501961" points="238,128 196,34 202,207" />
<polygon fill="#b06100" fill-opacity="0.501961" points="271,155 267,260 116,263" />
<polygon fill="#ffffff" fill-opacity="0.501961" points="48,159 22,135 93,164" />
<polygon fill="#944512" fill-opacity="0.501961" points="72,166 174,66 117,66" />
<polygon fill="#a45a02" fill-opacity="0.501961" points="35,149 -16,252 104,264" />
<polygon fill="#d99233" fill-opacity="0.501961" points="104,162 113,77 220,123" />
<polygon fill="#8c4d06" fill-opacity="0.501961" points="255,232 270,44 237,136" />
<polygon fill="#e8ab34" fill-opacity="0.501961" points="148,-8 44,-16 3,129" />
<polygon fill="#ece9d8" fill-opacity="0.501961" points="125,231 114,185 172,226" />
<polygon fill="#221f1a" fill-opacity="0.501961" points="109,160 157,208 163,184" />
<polygon fill="#ecebe3" fill-opacity="0.501961" points="80,51 102,98 76,106" />
<polygon fill="#9b8662" fill-opacity="0.501961" points="143,182 82,165 102,206" />
<polygon fill="#c1842a" fill-opacity="0.501961" points="-16,161 55,245 8,62" />
<polygon fill="#fad46e" fill-opacity="0.501961" points="234,-16 249,85 118,22" />
<polygon fill="#a7274c" fill-opacity="0.501961" points="157,79 146,48 182,60" />
<polygon fill="#752a00" fill-opacity="0.501961" points="152,237 94,238 71,215" />
<polygon fill="#aa5b2b" fill-opacity="0.501961" points="137,171 51,137 69,89" />
<polygon fill="#dddfdc" fill-opacity="0.501961" points="179,153 209,203 188,126" />
<polygon fill="#501400" fill-opacity="0.501961" points="17,14 -4,-16 -4,90" />
<polygon fill="#ac5c05" fill-opacity="0.501961" points="60,66 26,-16 1,65" />
<polygon fill="#3f0f06" fill-opacity="0.501961" points="116,67 161,80 104,80" />
<polygon fill="#521900" fill-opacity="0.501961" points="1,178 18,260 -4,259" />
<polygon fill="#f1ecd0" fill-opacity="0.501961" points="88,218 55,184 91,177" />
<polygon fill="#e9e7dc" fill-opacity="0.501961" points="196,75 140,33 197,54" />
<polygon fill="#c9c9b9" fill-opacity="0.501961" points="157,200 177,161 171,218" />
<polygon fill="#75423d" fill-opacity="0.501961" points="192,125 216,115 198,138" />
<polygon fill="#f2f4e5" fill-opacity="0.501961" points="219,79 231,105 179,86" />
<polygon fill="#ebc166" fill-opacity="0.501961" points="78,59 251,-1 49,-16" />
<polygon fill="#d69c34" fill-opacity="0.501961" points="251,186 243,86 214,242" />
<polygon fill="#fffff8" fill-opacity="0.501961" points="41,142 55,160 95,166" />
<polygon fill="#eabd6a" fill-opacity="0.501961" points="33,69 8,137 57,126" />
<polygon fill="#ede3d2" fill-opacity="0.501961" points="83,62 134,43 150,71" />
<polygon fill="#72370c" fill-opacity="0.501961" points="255,136 244,271 271,223" />
<polygon fill="#b4ad99" fill-opacity="0.501961" points="79,103 80,144 114,66" />
<polygon fill="#93102e" fill-opacity="0.501961" points="199,187 164,184 185,171" />
<polygon fill="#7d695c" fill-opacity="0.501961" points="46,169 20,147 89,168" />
<polygon fill="#5d2707" fill-opacity="0.501961" points="107,83 78,155 105,120" />
<polygon fill="#652105" fill-opacity="0.501961" points="50,195 43,169 82,217" />
<polygon fill="#ae7c22" fill-opacity="0.501961" points="253,102 240,-16 271,2" />
<polygon fill="#d48c2d" fill-opacity="0.501961" points="168,177 100,158 135,72" />
<polygon fill="#f1e9cc" fill-opacity="0.501961" points="236,145 204,128 209,203" />
<polygon fill="#ac5c02" fill-opacity="0.501961" points="91,271 96,241 176,225" />
<polygon fill="#351e0e" fill-opacity="0.501961" points="88,163 141,182 107,157" />
<polygon fill="#304f10" fill-opacity="0.501961" points="79,96 63,91 71,103" />
<polygon fill="#95561a" fill-opacity="0.501961" points="-16,124 6,206 6,46" />
<polygon fill="#e2d8bf" fill-opacity="0.501961" points="43,118 49,136 69,82" />
<polygon fill="#b49789" fill-opacity="0.501961" points="176,223 207,202 169,177" />
<polygon fill="#ffffff" fill-opacity="0.501961" points="25,142 57,157 40,141" />
<polygon fill="#453a1e" fill-opacity="0.501961" points="101,186 118,182 82,170" />
<polygon fill="#c18e4e" fill-opacity="0.501961" points="111,44 122,43 135,72" />
<polygon fill="#ba6b0d" fill-opacity="0.501961" points="102,206 96,191 116,199" />
<polygon fill="#58422d" fill-opacity="0.501961" points="93,105 80,110 77,127" />
<polygon fill="#070000" fill-opacity="0.501961" points="189,95 192,91 200,96" />
<polygon fill="#e1d1ad" fill-opacity="0.501961" points="64,196 96,181 48,165" />
<polygon fill="#b05a0a" fill-opacity="0.501961" points="118,132 101,108 87,149" />
<polygon fill="#c6a165" fill-opacity="0.501961" points="194,154 220,157 175,174" />
<polygon fill="#ae9f84" fill-opacity="0.501961" points="140,184 160,217 91,166" />
<polygon fill="#827c26" fill-opacity="0.501961" points="156,216 162,199 149,217" />
<polygon fill="#cf8c32" fill-opacity="0.501961" points="122,76 180,88 97,124" />
<polygon fill="#d0ab6b" fill-opacity="0.501961" points="165,80 208,83 161,59" />
<polygon fill="#f2e9d7" fill-opacity="0.501961" points="84,97 101,56 62,79" />
<polygon fill="#c77f1d" fill-opacity="0.501961" points="103,249 240,214 257,271" />
<polygon fill="#bd2850" fill-opacity="0.501961" points="81,135 53,121 52,143" />
<polygon fill="#eee6c8" fill-opacity="0.501961" points="153,230 182,211 115,228" />
<polygon fill="#ce8a2c" fill-opacity="0.501961" points="24,226 51,196 3,142" />
<polygon fill="#db948e" fill-opacity="0.501961" points="176,191 199,198 211,173" />
<polygon fill="#cf9434" fill-opacity="0.501961" points="239,230 205,209 238,154" />
<polygon fill="#fbf9ef" fill-opacity="0.501961" points="217,106 197,86 202,119" />
<polygon fill="#deb25a" fill-opacity="0.501961" points="240,151 251,26 227,91" />
<polygon fill="#585153" fill-opacity="0.501961" points="33,130 20,151 23,134" />
<polygon fill="#d2c09f" fill-opacity="0.501961" points="85,129 64,123 95,119" />
<polygon fill="#dad8cd" fill-opacity="0.501961" points="181,148 198,150 192,118" />
<polygon fill="#89754d" fill-opacity="0.501961" points="193,101 207,135 190,128" />
<polygon fill="#8b8555" fill-opacity="0.501961" points="163,56 138,41 140,54" />
<polygon fill="#937975" fill-opacity="0.501961" points="72,141 39,140 100,165" />
<polygon fill="#efe8ce" fill-opacity="0.501961" points="180,168 171,165 170,185" />
<polygon fill="#ebe5d7" fill-opacity="0.501961" points="105,75 101,44 127,50" />
<polygon fill="#f3eee0" fill-opacity="0.501961" points="146,39 155,52 171,43" />
<polygon fill="#ffffe4" fill-opacity="0.501961" points="55,145 90,167 47,154" />
<polygon fill="#561f06" fill-opacity="0.501961" points="115,66 106,86 136,73" />
<polygon fill="#6d7e38" fill-opacity="0.501961" points="189,86 209,77 189,77" />
<polygon fill="#d8a44e" fill-opacity="0.501961" points="14,144 11,63 53,110" />
<polygon fill="#d69b41" fill-opacity="0.501961" points="185,64 173,158 138,110" />
<polygon fill="#fbaa90" fill-opacity="0.501961" points="57,134 66,132 72,115" />
<polygon fill="#6b443f" fill-opacity="0.501961" points="173,79 181,88 160,83" />
<polygon fill="#371a03" fill-opacity="0.501961" points="140,176 140,195 168,183" />
<polygon fill="#652b08" fill-opacity="0.501961" points="78,211 91,229 113,230" />
<polygon fill="#fafee8" fill-opacity="0.501961" points="84,94 78,106 74,103" />
<polygon fill="#97775c" fill-opacity="0.501961" points="114,218 101,209 121,211" />
<polygon fill="#eee5cb" fill-opacity="0.501961" points="177,94 202,69 198,57" />
<polygon fill="#d28f2a" fill-opacity="0.501961" points="59,74 3,68 80,54" />
<polygon fill="#824d38" fill-opacity="0.501961" points="166,188 179,201 192,198" />
<polygon fill="#b10011" fill-opacity="0.501961" points="161,52 167,57 151,59" />
</g>
</svg>