<svg xmlns="http://www.w3.org/2000/svg" version="1.1" width="300" height="300">
<rect x="0" y="0" width="300" height="300" fill="#938342" />
<g transform="scale(1.171875) translate(0.5 0.5)">
<polygon fill="#ffff95" fill-opacity="0.501961" points="60,217 225,50 250,161" />
<polygon fill="#000000" fill-opacity="0.501961" points="-5,133 133,-16 1,-2" />
<polygon fill="#000008" fill-opacity="0.501961" points="80,-16 271,-6 262,103" />
<polygon fill="#ffffb7" fill-opacity="0.501961" points="-4,180 76,39 151,24" />
<polygon fill="#feff98" fill-opacity="0.501961" points="254,168 198,260 271,257" />
<polygon fill="#6f1900" fill-opacity="0.501961" points="71,193 45,124 192,93" />
<polygon fill="#f2fa6b" fill-opacity="0.501961" points="218,187 237,27 97,196" />
<polygon fill="#ffe971" fill-opacity="0.501961" points="13,271 80,41 10,130" />
<polygon fill="#5d410c" fill-opacity="0.501961" points="222,223 145,178 98,271" />
<polygon fill="#170016" fill-opacity="0.501961" points="-16,172 20,-16 69,39" />
<polygon fill="#e6ee69" fill-opacity="0.501961" points="136,22 249,131 75,44" />
<polygon fill="#000000" fill-opacity="0.501961" points="258,83 240,169 267,168" />
<polygon fill="#ffffaa" fill-opacity="0.501961" points="233,153 94,175 250,97" />
<polygon fill="#14001a" fill-opacity="0.501961" points="175,58 114,-16 271,4" />
<polygon fill="#460001" fill-opacity="0.501961" points="146,139 166,88 110,78" />
<polygon fill="#a6a914" fill-opacity="0.501961" points="179,140 202,61 238,90" />
<polygon fill="#0e0009" fill-opacity="0.501961" points="16,79 2,194 -16,69" />
<polygon fill="#feffa3" fill-opacity="0.501961" points="27,119 142,41 46,72" />
<polygon fill="#020017" fill-opacity="0.501961" points="32,-16 20,21 156,6" />
<polygon fill="#0e0012" fill-opacity="0.501961" points="234,6 271,-16 251,119" />
<polygon fill="#c1eb2d" fill-opacity="0.501961" points="271,251 190,229 160,260" />
<polygon fill="#eeae4b" fill-opacity="0.501961" points="-3,220 55,271 17,109" />
<polygon fill="#eaff63" fill-opacity="0.501961" points="241,55 192,90 231,32" />
<polygon fill="#e7fd95" fill-opacity="0.501961" points="97,229 74,203 136,138" />
<polygon fill="#d9ff7d" fill-opacity="0.501961" points="220,191 248,271 271,158" />
<polygon fill="#b8cc84" fill-opacity="0.501961" points="63,33 95,21 62,14" />
<polygon fill="#e9ff97" fill-opacity="0.501961" points="194,32 179,44 173,34" />
<polygon fill="#a18217" fill-opacity="0.501961" points="143,38 143,94 39,131" />
<polygon fill="#0b0016" fill-opacity="0.501961" points="110,22 70,46 108,-4" />
<polygon fill="#521711" fill-opacity="0.501961" points="84,105 67,184 43,159" />
<polygon fill="#d6b31f" fill-opacity="0.501961" points="159,152 195,213 138,179" />
<polygon fill="#ffff9f" fill-opacity="0.501961" points="49,79 141,25 94,31" />
<polygon fill="#aec676" fill-opacity="0.501961" points="84,232 27,157 92,204" />
<polygon fill="#7a7417" fill-opacity="0.501961" points="-16,32 35,106 5,21" />
<polygon fill="#3f1620" fill-opacity="0.501961" points="196,219 123,251 160,255" />
<polygon fill="#a51e12" fill-opacity="0.501961" points="22,269 -16,248 -2,187" />
<polygon fill="#c77127" fill-opacity="0.501961" points="134,111 91,119 76,190" />
<polygon fill="#110818" fill-opacity="0.501961" points="151,94 122,140 162,119" />
<polygon fill="#b4b329" fill-opacity="0.501961" points="161,204 271,178 216,160" />
<polygon fill="#120013" fill-opacity="0.501961" points="213,-16 183,25 121,25" />
<polygon fill="#e6f29d" fill-opacity="0.501961" points="172,52 163,83 133,91" />
<polygon fill="#1e0017" fill-opacity="0.501961" points="223,91 251,33 271,73" />
<polygon fill="#faff9c" fill-opacity="0.501961" points="232,92 252,118 172,190" />
<polygon fill="#d3c067" fill-opacity="0.501961" points="58,88 13,116 7,221" />
<polygon fill="#241201" fill-opacity="0.501961" points="97,164 92,190 80,184" />
<polygon fill="#760017" fill-opacity="0.501961" points="118,88 129,113 140,70" />
<polygon fill="#220c1f" fill-opacity="0.501961" points="78,41 35,85 -16,-14" />
<polygon fill="#d2db5f" fill-opacity="0.501961" points="192,136 203,59 163,102" />
<polygon fill="#01000a" fill-opacity="0.501961" points="104,20 83,32 120,26" />
<polygon fill="#27000b" fill-opacity="0.501961" points="270,95 271,169 238,168" />
<polygon fill="#bfdd8e" fill-opacity="0.501961" points="114,20 140,17 137,10" />
<polygon fill="#d2963a" fill-opacity="0.501961" points="14,271 9,228 167,266" />
<polygon fill="#76591f" fill-opacity="0.501961" points="69,242 155,182 109,252" />
<polygon fill="#7f824d" fill-opacity="0.501961" points="190,8 233,-3 202,15" />
<polygon fill="#f6f595" fill-opacity="0.501961" points="62,111 108,47 40,78" />
<polygon fill="#301c1e" fill-opacity="0.501961" points="171,50 209,64 252,-11" />
<polygon fill="#d5d25d" fill-opacity="0.501961" points="119,148 158,158 231,100" />
<polygon fill="#f3fdbc" fill-opacity="0.501961" points="124,157 125,198 96,178" />
<polygon fill="#e1ff9d" fill-opacity="0.501961" points="230,270 271,165 231,216" />
<polygon fill="#d0e66b" fill-opacity="0.501961" points="217,67 233,39 219,41" />
<polygon fill="#250016" fill-opacity="0.501961" points="12,83 3,183 -16,139" />
<polygon fill="#1b0018" fill-opacity="0.501961" points="93,-16 24,15 196,7" />
<polygon fill="#89913b" fill-opacity="0.501961" points="231,168 159,230 246,194" />
<polygon fill="#e4f400" fill-opacity="0.501961" points="250,184 271,166 234,171" />
<polygon fill="#92a56d" fill-opacity="0.501961" points="48,160 26,126 39,183" />
<polygon fill="#aeb552" fill-opacity="0.501961" points="35,196 105,235 103,212" />
<polygon fill="#220518" fill-opacity="0.501961" points="26,106 -1,46 -16,139" />
<polygon fill="#dbdb52" fill-opacity="0.501961" points="217,179 246,111 246,147" />
<polygon fill="#373b24" fill-opacity="0.501961" points="173,230 213,195 198,225" />
<polygon fill="#938f09" fill-opacity="0.501961" points="168,74 178,104 160,120" />
<polygon fill="#40361c" fill-opacity="0.501961" points="151,46 164,34 202,51" />
<polygon fill="#c6be3b" fill-opacity="0.501961" points="88,79 126,59 65,116" />
<polygon fill="#7e570f" fill-opacity="0.501961" points="109,71 149,46 95,104" />
<polygon fill="#c2b21d" fill-opacity="0.501961" points="195,60 158,88 224,66" />
<polygon fill="#fbed7e" fill-opacity="0.501961" points="157,34 141,24 114,43" />
<polygon fill="#b3c13a" fill-opacity="0.501961" points="238,240 181,227 191,266" />
<polygon fill="#ab9100" fill-opacity="0.501961" points="116,40 112,52 106,38" />
<polygon fill="#97812a" fill-opacity="0.501961" points="149,191 211,196 155,244" />
<polygon fill="#a65e37" fill-opacity="0.501961" points="54,271 79,242 34,187" />
<polygon fill="#c7b836" fill-opacity="0.501961" points="36,94 67,121 51,144" />
<polygon fill="#90995d" fill-opacity="0.501961" points="80,10 65,38 59,23" />
<polygon fill="#607121" fill-opacity="0.501961" points="84,101 106,109 65,139" />
<polygon fill="#b1ae28" fill-opacity="0.501961" points="195,97 254,100 210,77" />
<polygon fill="#fffeb0" fill-opacity="0.501961" points="161,155 222,123 210,166" />
<polygon fill="#a59e1b" fill-opacity="0.501961" points="130,190 92,218 134,212" />
<polygon fill="#130012" fill-opacity="0.501961" points="71,24 65,30 81,40" />
<polygon fill="#b8da58" fill-opacity="0.501961" points="95,102 107,109 118,86" />
<polygon fill="#554f31" fill-opacity="0.501961" points="178,65 189,34 205,60" />
<polygon fill="#191118" fill-opacity="0.501961" points="84,181 71,186 57,173" />
<polygon fill="#5a441c" fill-opacity="0.501961" points="143,235 117,201 113,237" />
<polygon fill="#6f863c" fill-opacity="0.501961" points="229,229 194,217 218,195" />
<polygon fill="#e8ec92" fill-opacity="0.501961" points="79,216 141,140 143,187" />
<polygon fill="#5d551b" fill-opacity="0.501961" points="28,108 -2,44 39,91" />
<polygon fill="#c9d87c" fill-opacity="0.501961" points="169,48 130,84 175,71" />
<polygon fill="#502f12" fill-opacity="0.501961" points="133,205 145,185 150,231" />
<polygon fill="#838b57" fill-opacity="0.501961" points="86,18 76,30 111,15" />
<polygon fill="#1e001b" fill-opacity="0.501961" points="52,54 5,-4 72,-11" />
<polygon fill="#c86018" fill-opacity="0.501961" points="139,80 151,85 115,108" />
<polygon fill="#8d4013" fill-opacity="0.501961" points="98,134 125,153 108,164" />
<polygon fill="#1c0016" fill-opacity="0.501961" points="271,20 163,31 271,-13" />
</g>
</svg>