<svg xmlns="http://www.w3.org/2000/svg" version="1.1" width="300" height="300">
<rect x="0" y="0" width="300" height="300" fill="#a48b6e" />
<g transform="scale(1.171875) translate(0.5 0.5)">
<polygon fill="#000000" fill-opacity="0.501961" points="260,-9 116,-16 263,123" />
<polygon fill="#e36800" fill-opacity="0.501961" points="91,18 225,195 65,226" />
<polygon fill="#d4eaeb" fill-opacity="0.501961" points="11,230 -16,51 144,-16" />
<polygon fill="#000000" fill-opacity="0.501961" points="73,262 271,215 188,269" />
<polygon fill="#fffff8" fill-opacity="0.501961" points="79,247 271,180 183,243" />
<polygon fill="#030000" fill-opacity="0.501961" points="217,192 125,228 202,159" />
<polygon fill="#add2e2" fill-opacity="0.501961" points="91,-16 241,222 245,108" />
<polygon fill="#fff5d6" fill-opacity="0.501961" points="-16,211 21,135 102,247" />
<polygon fill="#ffc022" fill-opacity="0.501961" points="78,37 44,199 143,156" />
<polygon fill="#000000" fill-opacity="0.501961" points="40,30 -16,40 -11,-16" />
<polygon fill="#000000" fill-opacity="0.501961" points="24,271 -16,238 17,218" />
<polygon fill="#000016" fill-opacity="0.501961" points="271,2 142,-12 180,68" />
<polygon fill="#640d00" fill-opacity="0.501961" points="130,135 148,100 216,187" />
<polygon fill="#a4c2d1" fill-opacity="0.501961" points="188,80 -16,-10 141,3" />
<polygon fill="#fffff4" fill-opacity="0.501961" points="101,249 179,226 70,222" />
<polygon fill="#2c6791" fill-opacity="0.501961" points="57,123 -16,162 -16,103" />
<polygon fill="#5c0100" fill-opacity="0.501961" points="211,185 161,222 69,220" />
<polygon fill="#fffcda" fill-opacity="0.501961" points="256,212 213,223 213,148" />
<polygon fill="#fffffb" fill-opacity="0.501961" points="-16,166 57,125 55,171" />
<polygon fill="#00000b" fill-opacity="0.501961" points="257,-16 269,118 227,43" />
<polygon fill="#e99412" fill-opacity="0.501961" points="62,74 173,200 103,33" />
<polygon fill="#faf67e" fill-opacity="0.501961" points="52,143 136,141 85,175" />
<polygon fill="#d2354d" fill-opacity="0.501961" points="246,125 192,37 271,104" />
<polygon fill="#faffff" fill-opacity="0.501961" points="166,26 164,47 133,25" />
<polygon fill="#000000" fill-opacity="0.501961" points="155,255 208,268 225,223" />
<polygon fill="#5093c0" fill-opacity="0.501961" points="139,63 207,96 174,126" />
<polygon fill="#de723c" fill-opacity="0.501961" points="54,159 16,169 -10,207" />
<polygon fill="#000000" fill-opacity="0.501961" points="18,220 22,271 -16,239" />
<polygon fill="#a11000" fill-opacity="0.501961" points="146,85 127,51 118,95" />
<polygon fill="#98abb3" fill-opacity="0.501961" points="18,100 139,8 43,-11" />
<polygon fill="#31655d" fill-opacity="0.501961" points="183,137 233,112 223,139" />
<polygon fill="#ffffff" fill-opacity="0.501961" points="65,193 21,227 65,230" />
<polygon fill="#de750b" fill-opacity="0.501961" points="33,191 155,210 211,150" />
<polygon fill="#cbd8f6" fill-opacity="0.501961" points="65,124 64,73 -16,81" />
<polygon fill="#751004" fill-opacity="0.501961" points="87,208 72,173 67,225" />
<polygon fill="#f8ebd3" fill-opacity="0.501961" points="199,198 120,241 271,207" />
<polygon fill="#bcb691" fill-opacity="0.501961" points="246,220 271,155 200,54" />
<polygon fill="#00000f" fill-opacity="0.501961" points="-11,-8 36,24 11,37" />
<polygon fill="#f04650" fill-opacity="0.501961" points="231,-12 228,49 221,17" />
<polygon fill="#9e6135" fill-opacity="0.501961" points="24,223 31,196 70,174" />
<polygon fill="#000009" fill-opacity="0.501961" points="155,29 172,-16 143,14" />
<polygon fill="#98693a" fill-opacity="0.501961" points="182,246 115,250 164,232" />
<polygon fill="#040a16" fill-opacity="0.501961" points="234,-16 164,49 184,65" />
<polygon fill="#4b699d" fill-opacity="0.501961" points="201,261 236,234 271,251" />
<polygon fill="#ffffff" fill-opacity="0.501961" points="40,174 17,219 -16,217" />
<polygon fill="#010509" fill-opacity="0.501961" points="206,169 171,204 217,189" />
<polygon fill="#fffae4" fill-opacity="0.501961" points="206,158 229,153 230,219" />
<polygon fill="#fff3b2" fill-opacity="0.501961" points="182,121 224,88 240,106" />
<polygon fill="#410d00" fill-opacity="0.501961" points="187,202 140,226 106,219" />
<polygon fill="#8c3107" fill-opacity="0.501961" points="202,149 199,190 103,100" />
<polygon fill="#e3b726" fill-opacity="0.501961" points="192,166 113,205 141,156" />
<polygon fill="#57767d" fill-opacity="0.501961" points="168,13 179,-16 177,50" />
<polygon fill="#090604" fill-opacity="0.501961" points="216,232 248,217 271,228" />
<polygon fill="#f0f6dc" fill-opacity="0.501961" points="191,71 146,80 159,58" />
<polygon fill="#ffef71" fill-opacity="0.501961" points="156,102 168,124 157,125" />
<polygon fill="#e58c21" fill-opacity="0.501961" points="110,42 70,149 149,111" />
<polygon fill="#ffffff" fill-opacity="0.501961" points="131,226 106,221 107,246" />
<polygon fill="#b9b0b8" fill-opacity="0.501961" points="58,97 86,119 11,131" />
<polygon fill="#ecd2b8" fill-opacity="0.501961" points="39,160 80,216 -9,146" />
<polygon fill="#31a5dc" fill-opacity="0.501961" points="161,112 224,83 206,105" />
<polygon fill="#c9af7c" fill-opacity="0.501961" points="105,245 23,259 18,222" />
<polygon fill="#6b8277" fill-opacity="0.501961" points="215,141 262,183 207,97" />
<polygon fill="#f7a42d" fill-opacity="0.501961" points="131,47 65,65 71,146" />
<polygon fill="#932700" fill-opacity="0.501961" points="124,78 162,117 130,54" />
<polygon fill="#ff8298" fill-opacity="0.501961" points="191,100 188,84 218,78" />
<polygon fill="#cadae5" fill-opacity="0.501961" points="10,8 14,-16 55,4" />
<polygon fill="#fcffff" fill-opacity="0.501961" points="67,121 41,157 1,156" />
<polygon fill="#264e56" fill-opacity="0.501961" points="-3,148 -16,127 26,142" />
<polygon fill="#e8ffff" fill-opacity="0.501961" points="164,26 166,51 147,26" />
<polygon fill="#b2a961" fill-opacity="0.501961" points="225,165 271,197 246,211" />
<polygon fill="#3d2a19" fill-opacity="0.501961" points="129,247 154,271 50,259" />
<polygon fill="#d25500" fill-opacity="0.501961" points="96,167 103,215 139,157" />
<polygon fill="#d9cd65" fill-opacity="0.501961" points="137,158 155,137 146,171" />
<polygon fill="#cd5120" fill-opacity="0.501961" points="90,205 39,173 75,173" />
<polygon fill="#c55602" fill-opacity="0.501961" points="126,94 87,105 108,131" />
<polygon fill="#919b99" fill-opacity="0.501961" points="86,10 62,74 130,-16" />
<polygon fill="#c52b00" fill-opacity="0.501961" points="106,83 107,72 79,80" />
<polygon fill="#280b09" fill-opacity="0.501961" points="191,169 182,190 217,202" />
<polygon fill="#fd5373" fill-opacity="0.501961" points="267,127 232,121 231,100" />
<polygon fill="#f5fe84" fill-opacity="0.501961" points="106,122 71,105 68,118" />
<polygon fill="#d4f2e4" fill-opacity="0.501961" points="271,120 263,157 241,155" />
<polygon fill="#febf2b" fill-opacity="0.501961" points="89,206 72,153 105,204" />
<polygon fill="#fffffb" fill-opacity="0.501961" points="-16,149 13,150 -4,194" />
<polygon fill="#f2eeaa" fill-opacity="0.501961" points="121,139 86,159 85,175" />
<polygon fill="#d95519" fill-opacity="0.501961" points="96,222 140,187 190,186" />
<polygon fill="#320806" fill-opacity="0.501961" points="77,191 87,220 67,196" />
<polygon fill="#772400" fill-opacity="0.501961" points="169,119 191,160 155,162" />
<polygon fill="#000000" fill-opacity="0.501961" points="13,221 -16,264 25,270" />
<polygon fill="#b2c5d2" fill-opacity="0.501961" points="-16,39 5,113 33,34" />
<polygon fill="#081317" fill-opacity="0.501961" points="24,9 30,28 -16,40" />
<polygon fill="#185262" fill-opacity="0.501961" points="247,171 254,154 241,159" />
<polygon fill="#e2d2bf" fill-opacity="0.501961" points="214,210 210,187 271,219" />
<polygon fill="#391100" fill-opacity="0.501961" points="152,104 154,128 140,150" />
<polygon fill="#b69596" fill-opacity="0.501961" points="239,156 164,114 203,157" />
<polygon fill="#a9636a" fill-opacity="0.501961" points="200,44 195,67 230,64" />
<polygon fill="#86928f" fill-opacity="0.501961" points="69,69 24,74 75,41" />
<polygon fill="#ad956c" fill-opacity="0.501961" points="240,230 210,252 262,232" />
<polygon fill="#000001" fill-opacity="0.501961" points="184,63 178,-16 202,-14" />
<polygon fill="#ffb651" fill-opacity="0.501961" points="73,65 126,53 93,38" />
<polygon fill="#dbb089" fill-opacity="0.501961" points="57,135 60,197 43,193" />
</g>
</svg>