<svg xmlns="http://www.w3.org/2000/svg" version="1.1" width="300" height="300">
<rect x="0" y="0" width="300" height="300" fill="#979167" />
<g transform="scale(1.171875) translate(0.5 0.5)">
<polygon fill="#f8ffff" fill-opacity="0.501961" points="172,-16 -16,93 271,44" />
<polygon fill="#2e0000" fill-opacity="0.501961" points="165,271 -16,253 25,126" />
<polygon fill="#e2b700" fill-opacity="0.501961" points="14,183 153,69 271,225" />
<polygon fill="#000000" fill-opacity="0.501961" points="123,10 19,-16 51,45" />
<polygon fill="#e2f0ff" fill-opacity="0.501961" points="271,254 195,269 249,182" />
<polygon fill="#d5efff" fill-opacity="0.501961" points="111,-16 271,4 124,87" />
<polygon fill="#070000" fill-opacity="0.501961" points="44,271 16,207 142,193" />
<polygon fill="#4d87be" fill-opacity="0.501961" points="141,73 271,161 271,36" />
<polygon fill="#bfcada" fill-opacity="0.501961" points="124,265 130,197 271,262" />
<polygon fill="#163c53" fill-opacity="0.501961" points="3,-16 -16,134 32,118" />
<polygon fill="#fffa6b" fill-opacity="0.501961" points="148,107 61,115 204,173" />
<polygon fill="#220000" fill-opacity="0.501961" points="69,154 8,157 83,121" />
<polygon fill="#570f00" fill-opacity="0.501961" points="145,154 106,164 167,209" />
<polygon fill="#00000b" fill-opacity="0.501961" points="50,41 116,4 37,-16" />
<polygon fill="#000000" fill-opacity="0.501961" points="209,194 232,220 226,185" />
<polygon fill="#c0d1d0" fill-opacity="0.501961" points="-10,63 130,84 194,-3" />
<polygon fill="#2c4a5a" fill-opacity="0.501961" points="250,196 267,121 216,126" />
<polygon fill="#e8f4fe" fill-opacity="0.501961" points="187,-16 179,61 271,26" />
<polygon fill="#e3c11d" fill-opacity="0.501961" points="95,237 111,73 63,170" />
<polygon fill="#c6aa07" fill-opacity="0.501961" points="233,152 197,233 174,88" />
<polygon fill="#f0b3ab" fill-opacity="0.501961" points="63,148 11,209 24,171" />
<polygon fill="#27626d" fill-opacity="0.501961" points="-16,92 112,81 43,122" />
<polygon fill="#1f0d00" fill-opacity="0.501961" points="68,271 -3,271 65,158" />
<polygon fill="#fabc8b" fill-opacity="0.501961" points="-16,157 80,118 13,124" />
<polygon fill="#17455a" fill-opacity="0.501961" points="172,86 124,81 222,57" />
<polygon fill="#b99b00" fill-opacity="0.501961" points="85,178 210,186 222,231" />
<polygon fill="#afc6d3" fill-opacity="0.501961" points="44,28 -13,53 39,11" />
<polygon fill="#97b2bd" fill-opacity="0.501961" points="151,86 254,116 271,53" />
<polygon fill="#d1b613" fill-opacity="0.501961" points="68,116 202,110 125,81" />
<polygon fill="#365650" fill-opacity="0.501961" points="171,-1 175,45 180,20" />
<polygon fill="#bec7ec" fill-opacity="0.501961" points="228,239 238,174 271,221" />
<polygon fill="#000614" fill-opacity="0.501961" points="110,20 26,-16 67,37" />
<polygon fill="#98492c" fill-opacity="0.501961" points="18,271 -16,207 21,126" />
<polygon fill="#d7dbcf" fill-opacity="0.501961" points="69,35 4,88 89,81" />
<polygon fill="#3a1d11" fill-opacity="0.501961" points="48,219 119,239 121,191" />
<polygon fill="#edf9ff" fill-opacity="0.501961" points="113,28 206,-4 115,-16" />
<polygon fill="#395343" fill-opacity="0.501961" points="222,45 216,11 214,30" />
<polygon fill="#000d32" fill-opacity="0.501961" points="3,-14 18,22 -14,36" />
<polygon fill="#ffffff" fill-opacity="0.501961" points="271,-6 271,42 232,-13" />
<polygon fill="#3f5058" fill-opacity="0.501961" points="252,66 247,17 240,59" />
<polygon fill="#799b94" fill-opacity="0.501961" points="56,130 67,79 127,53" />
<polygon fill="#746e04" fill-opacity="0.501961" points="182,125 117,104 149,100" />
<polygon fill="#243a3c" fill-opacity="0.501961" points="-9,145 49,86 -6,93" />
<polygon fill="#6f8eaa" fill-opacity="0.501961" points="28,-16 7,7 33,66" />
<polygon fill="#c2c3cc" fill-opacity="0.501961" points="170,246 261,271 164,207" />
<polygon fill="#bcc9c7" fill-opacity="0.501961" points="98,90 179,60 158,-16" />
<polygon fill="#e8df6f" fill-opacity="0.501961" points="137,106 195,149 67,121" />
<polygon fill="#331401" fill-opacity="0.501961" points="8,182 40,137 84,129" />
<polygon fill="#d7bc17" fill-opacity="0.501961" points="125,136 204,235 194,169" />
<polygon fill="#eed13c" fill-opacity="0.501961" points="216,129 162,84 190,136" />
<polygon fill="#6b3400" fill-opacity="0.501961" points="142,195 110,156 162,166" />
<polygon fill="#a28104" fill-opacity="0.501961" points="200,184 203,233 232,219" />
<polygon fill="#590e00" fill-opacity="0.501961" points="213,147 202,130 219,139" />
<polygon fill="#b1592d" fill-opacity="0.501961" points="110,229 65,251 105,271" />
<polygon fill="#cba903" fill-opacity="0.501961" points="72,203 121,124 111,195" />
<polygon fill="#eef8f4" fill-opacity="0.501961" points="48,66 109,44 118,15" />
<polygon fill="#150e08" fill-opacity="0.501961" points="38,247 98,234 24,186" />
<polygon fill="#1d3e54" fill-opacity="0.501961" points="16,15 49,-11 35,21" />
<polygon fill="#99a58f" fill-opacity="0.501961" points="76,34 -16,104 19,46" />
<polygon fill="#d3ac1f" fill-opacity="0.501961" points="52,138 158,85 102,87" />
<polygon fill="#eff7fc" fill-opacity="0.501961" points="230,-13 245,43 220,49" />
<polygon fill="#7f8670" fill-opacity="0.501961" points="232,165 271,197 235,190" />
<polygon fill="#8d5600" fill-opacity="0.501961" points="80,212 50,198 63,143" />
<polygon fill="#1f0100" fill-opacity="0.501961" points="233,212 217,210 219,184" />
<polygon fill="#788369" fill-opacity="0.501961" points="176,263 127,221 121,271" />
<polygon fill="#223525" fill-opacity="0.501961" points="230,153 271,158 232,170" />
<polygon fill="#d5a08c" fill-opacity="0.501961" points="57,156 43,187 24,168" />
<polygon fill="#f1f8ff" fill-opacity="0.501961" points="252,-16 271,46 248,42" />
<polygon fill="#766806" fill-opacity="0.501961" points="211,178 199,140 201,215" />
<polygon fill="#0b141a" fill-opacity="0.501961" points="75,-16 102,26 36,40" />
<polygon fill="#b35e57" fill-opacity="0.501961" points="82,216 90,229 107,205" />
<polygon fill="#43565e" fill-opacity="0.501961" points="231,-4 246,7 248,18" />
<polygon fill="#e6cac8" fill-opacity="0.501961" points="64,128 26,127 75,115" />
<polygon fill="#294550" fill-opacity="0.501961" points="236,50 203,65 270,54" />
<polygon fill="#92542f" fill-opacity="0.501961" points="84,124 21,136 9,161" />
<polygon fill="#e5cb36" fill-opacity="0.501961" points="85,190 127,131 80,115" />
<polygon fill="#a3b3a0" fill-opacity="0.501961" points="140,16 88,60 187,14" />
<polygon fill="#cdcdd4" fill-opacity="0.501961" points="263,251 205,245 265,182" />
<polygon fill="#e6cb2a" fill-opacity="0.501961" points="206,199 208,233 220,210" />
<polygon fill="#844e00" fill-opacity="0.501961" points="164,90 145,92 139,111" />
<polygon fill="#3f1d00" fill-opacity="0.501961" points="81,130 76,117 58,159" />
<polygon fill="#122b3d" fill-opacity="0.501961" points="81,34 105,-7 115,15" />
<polygon fill="#4e2205" fill-opacity="0.501961" points="60,178 27,191 78,219" />
<polygon fill="#fadd8a" fill-opacity="0.501961" points="131,251 147,222 132,235" />
<polygon fill="#3d5b46" fill-opacity="0.501961" points="6,76 31,64 -6,67" />
<polygon fill="#3d5654" fill-opacity="0.501961" points="31,38 -16,53 -16,77" />
<polygon fill="#bac3bc" fill-opacity="0.501961" points="43,30 0,32 44,17" />
<polygon fill="#cbac15" fill-opacity="0.501961" points="227,147 192,154 233,197" />
<polygon fill="#edde5e" fill-opacity="0.501961" points="147,98 184,99 154,109" />
<polygon fill="#6e8ea2" fill-opacity="0.501961" points="220,136 231,151 271,139" />
<polygon fill="#1e130a" fill-opacity="0.501961" points="105,234 105,197 128,202" />
<polygon fill="#ead7a0" fill-opacity="0.501961" points="118,217 129,207 130,224" />
<polygon fill="#af7b00" fill-opacity="0.501961" points="160,164 128,146 175,214" />
<polygon fill="#baa10c" fill-opacity="0.501961" points="147,191 72,202 61,165" />
<polygon fill="#dfd74e" fill-opacity="0.501961" points="149,145 197,189 186,135" />
<polygon fill="#827700" fill-opacity="0.501961" points="168,123 204,152 184,122" />
<polygon fill="#b3c3d9" fill-opacity="0.501961" points="17,11 6,7 32,-8" />
<polygon fill="#2c5366" fill-opacity="0.501961" points="152,71 139,79 170,91" />
<polygon fill="#babaae" fill-opacity="0.501961" points="264,190 271,170 236,182" />
<polygon fill="#765100" fill-opacity="0.501961" points="221,208 217,232 231,213" />
</g>
</svg>