<svg xmlns="http://www.w3.org/2000/svg" version="1.1" width="300" height="300">
<rect x="0" y="0" width="300" height="300" fill="#baa977" />
<g transform="scale(1.171875) translate(0.5 0.5)">
<polygon fill="#ffffff" fill-opacity="0.501961" points="271,267 211,87 131,243" />
<polygon fill="#0f0000" fill-opacity="0.501961" points="148,33 242,12 212,122" />
<polygon fill="#1a0000" fill-opacity="0.501961" points="149,105 66,41 -16,43" />
<polygon fill="#170000" fill-opacity="0.501961" points="132,248 61,271 157,173" />
<polygon fill="#ffffc4" fill-opacity="0.501961" points="28,22 172,-16 140,85" />
<polygon fill="#fefff5" fill-opacity="0.501961" points="152,136 248,82 175,249" />
<polygon fill="#5a2c08" fill-opacity="0.501961" points="154,132 109,67 152,227" />
<polygon fill="#3c1814" fill-opacity="0.501961" points="250,76 176,9 176,103" />
<polygon fill="#a17b2e" fill-opacity="0.501961" points="75,107 -16,84 4,271" />
<polygon fill="#170009" fill-opacity="0.501961" points="84,53 -16,69 8,40" />
<polygon fill="#eef0a2" fill-opacity="0.501961" points="27,194 133,132 115,228" />
<polygon fill="#cc1d1f" fill-opacity="0.501961" points="208,210 188,199 256,183" />
<polygon fill="#dfcd55" fill-opacity="0.501961" points="154,201 121,255 187,264" />
<polygon fill="#dbc959" fill-opacity="0.501961" points="193,0 256,-10 261,65" />
<polygon fill="#000000" fill-opacity="0.501961" points="153,41 175,90 158,76" />
<polygon fill="#f8fab4" fill-opacity="0.501961" points="172,158 143,24 87,17" />
<polygon fill="#ead750" fill-opacity="0.501961" points="6,44 168,-12 -16,1" />
<polygon fill="#701c00" fill-opacity="0.501961" points="18,271 -16,267 26,212" />
<polygon fill="#feffec" fill-opacity="0.501961" points="152,146 253,271 183,262" />
<polygon fill="#e0d997" fill-opacity="0.501961" points="108,90 32,58 136,172" />
<polygon fill="#875d1d" fill-opacity="0.501961" points="88,127 48,98 106,180" />
<polygon fill="#eadb85" fill-opacity="0.501961" points="4,77 46,60 56,131" />
<polygon fill="#ecea82" fill-opacity="0.501961" points="14,162 -16,156 14,233" />
<polygon fill="#78625c" fill-opacity="0.501961" points="271,195 224,126 271,104" />
<polygon fill="#f8fff6" fill-opacity="0.501961" points="256,151 160,201 155,149" />
<polygon fill="#776237" fill-opacity="0.501961" points="239,13 184,4 154,31" />
<polygon fill="#d4cf73" fill-opacity="0.501961" points="217,101 154,145 141,97" />
<polygon fill="#4e190d" fill-opacity="0.501961" points="-16,97 35,125 18,100" />
<polygon fill="#24070f" fill-opacity="0.501961" points="74,252 137,230 102,271" />
<polygon fill="#664425" fill-opacity="0.501961" points="143,109 135,145 99,61" />
<polygon fill="#60240e" fill-opacity="0.501961" points="48,117 19,169 45,146" />
<polygon fill="#cfd09a" fill-opacity="0.501961" points="270,50 187,135 255,111" />
<polygon fill="#4f2c25" fill-opacity="0.501961" points="238,50 225,97 145,46" />
<polygon fill="#f1e89a" fill-opacity="0.501961" points="52,-14 146,31 216,-14" />
<polygon fill="#7c5836" fill-opacity="0.501961" points="56,87 101,63 75,49" />
<polygon fill="#cdd196" fill-opacity="0.501961" points="-7,112 45,130 20,146" />
<polygon fill="#ffcd1a" fill-opacity="0.501961" points="195,42 210,28 207,43" />
<polygon fill="#61310e" fill-opacity="0.501961" points="80,225 63,234 104,231" />
<polygon fill="#6b260c" fill-opacity="0.501961" points="18,155 -16,163 5,133" />
<polygon fill="#faf7b0" fill-opacity="0.501961" points="154,35 34,34 111,60" />
<polygon fill="#cbb45e" fill-opacity="0.501961" points="114,192 90,131 28,159" />
<polygon fill="#e0de92" fill-opacity="0.501961" points="137,183 24,230 47,163" />
<polygon fill="#4a3128" fill-opacity="0.501961" points="237,26 247,44 246,65" />
<polygon fill="#ebe6d0" fill-opacity="0.501961" points="188,213 237,257 271,189" />
<polygon fill="#ae9d33" fill-opacity="0.501961" points="148,67 192,106 156,102" />
<polygon fill="#391819" fill-opacity="0.501961" points="218,23 152,57 172,22" />
<polygon fill="#613f25" fill-opacity="0.501961" points="58,124 59,100 87,139" />
<polygon fill="#b16337" fill-opacity="0.501961" points="221,71 192,76 207,51" />
<polygon fill="#8c6835" fill-opacity="0.501961" points="159,212 153,144 132,178" />
<polygon fill="#80512c" fill-opacity="0.501961" points="128,89 85,87 100,61" />
<polygon fill="#f5e787" fill-opacity="0.501961" points="202,13 236,35 224,17" />
<polygon fill="#f3ffdd" fill-opacity="0.501961" points="112,112 85,116 121,134" />
<polygon fill="#56301f" fill-opacity="0.501961" points="147,210 123,197 125,246" />
<polygon fill="#fefffa" fill-opacity="0.501961" points="175,63 164,65 170,79" />
<polygon fill="#450e05" fill-opacity="0.501961" points="99,168 108,172 90,174" />
<polygon fill="#2d181b" fill-opacity="0.501961" points="-9,44 -16,77 45,40" />
<polygon fill="#c5484d" fill-opacity="0.501961" points="210,204 251,179 267,189" />
<polygon fill="#473d30" fill-opacity="0.501961" points="163,87 243,79 217,99" />
<polygon fill="#cdb859" fill-opacity="0.501961" points="93,217 66,192 4,271" />
<polygon fill="#dacd7b" fill-opacity="0.501961" points="153,187 175,256 130,271" />
<polygon fill="#f1efba" fill-opacity="0.501961" points="74,43 159,18 139,89" />
<polygon fill="#ecda7b" fill-opacity="0.501961" points="263,43 230,97 256,99" />
<polygon fill="#f1f6cd" fill-opacity="0.501961" points="233,50 232,60 227,41" />
<polygon fill="#1d0c19" fill-opacity="0.501961" points="214,21 222,78 229,50" />
<polygon fill="#dfd275" fill-opacity="0.501961" points="120,-16 72,44 1,35" />
<polygon fill="#e3d36c" fill-opacity="0.501961" points="245,9 271,58 205,-11" />
<polygon fill="#ebde7f" fill-opacity="0.501961" points="174,18 198,10 219,17" />
<polygon fill="#df927d" fill-opacity="0.501961" points="210,226 184,195 193,216" />
<polygon fill="#efebd8" fill-opacity="0.501961" points="239,170 266,170 219,193" />
<polygon fill="#eee781" fill-opacity="0.501961" points="243,66 230,84 237,64" />
<polygon fill="#ae7610" fill-opacity="0.501961" points="101,137 69,122 95,123" />
<polygon fill="#0e0e1d" fill-opacity="0.501961" points="171,77 186,52 220,43" />
<polygon fill="#e7ecc0" fill-opacity="0.501961" points="136,192 114,141 119,193" />
<polygon fill="#c4c6a1" fill-opacity="0.501961" points="183,109 235,134 242,90" />
<polygon fill="#e6d778" fill-opacity="0.501961" points="239,58 246,50 229,23" />
<polygon fill="#e1dea3" fill-opacity="0.501961" points="173,110 148,121 159,167" />
<polygon fill="#3c2a29" fill-opacity="0.501961" points="221,10 229,20 201,7" />
<polygon fill="#813f05" fill-opacity="0.501961" points="108,135 109,153 104,153" />
<polygon fill="#542e23" fill-opacity="0.501961" points="210,18 166,65 184,18" />
<polygon fill="#e6d58e" fill-opacity="0.501961" points="173,265 110,267 143,224" />
<polygon fill="#bb7818" fill-opacity="0.501961" points="18,102 17,91 48,91" />
<polygon fill="#bcbf9a" fill-opacity="0.501961" points="67,60 80,69 82,60" />
<polygon fill="#e5e2aa" fill-opacity="0.501961" points="67,219 81,234 83,216" />
<polygon fill="#734e31" fill-opacity="0.501961" points="118,104 76,49 110,69" />
<polygon fill="#deb0a1" fill-opacity="0.501961" points="251,148 239,175 211,186" />
<polygon fill="#3e281e" fill-opacity="0.501961" points="180,13 190,6 210,9" />
<polygon fill="#b59c5b" fill-opacity="0.501961" points="124,216 104,215 92,239" />
<polygon fill="#f2fae2" fill-opacity="0.501961" points="193,120 169,141 198,218" />
<polygon fill="#8f6432" fill-opacity="0.501961" points="79,236 59,231 53,209" />
<polygon fill="#8c7157" fill-opacity="0.501961" points="242,104 271,148 229,146" />
<polygon fill="#bf9b4a" fill-opacity="0.501961" points="64,118 85,87 91,105" />
<polygon fill="#543e2e" fill-opacity="0.501961" points="244,38 240,24 221,11" />
<polygon fill="#e5da90" fill-opacity="0.501961" points="221,-3 148,19 69,-7" />
<polygon fill="#efefb8" fill-opacity="0.501961" points="49,175 111,192 40,193" />
<polygon fill="#995d25" fill-opacity="0.501961" points="37,155 22,153 14,194" />
<polygon fill="#35273a" fill-opacity="0.501961" points="251,157 243,167 271,164" />
<polygon fill="#90743d" fill-opacity="0.501961" points="141,200 112,192 135,207" />
<polygon fill="#deda7d" fill-opacity="0.501961" points="61,115 34,121 31,93" />
<polygon fill="#462a1d" fill-opacity="0.501961" points="129,114 127,135 138,151" />
<polygon fill="#bea852" fill-opacity="0.501961" points="191,271 167,259 156,210" />
</g>
</svg>