<svg xmlns="http://www.w3.org/2000/svg" version="1.1" width="300" height="300">
<rect x="0" y="0" width="300" height="300" fill="#ae734f" />
<g transform="scale(1.171875) translate(0.5 0.5)">
<polygon fill="#00000f" fill-opacity="0.501961" points="-16,75 4,-16 81,9" />
<polygon fill="#ffd18a" fill-opacity="0.501961" points="271,11 61,34 125,146" />
<polygon fill="#000007" fill-opacity="0.501961" points="103,-16 112,29 271,3" />
<polygon fill="#f6d184" fill-opacity="0.501961" points="26,249 -6,161 242,271" />
<polygon fill="#56131d" fill-opacity="0.501961" points="271,118 59,193 149,230" />
<polygon fill="#920d09" fill-opacity="0.501961" points="72,198 -3,120 95,74" />
<polygon fill="#ffffbb" fill-opacity="0.501961" points="183,162 197,118 143,142" />
<polygon fill="#040000" fill-opacity="0.501961" points="246,175 233,212 184,230" />
<polygon fill="#f8e5c1" fill-opacity="0.501961" points="200,57 75,55 147,15" />
<polygon fill="#7d1a20" fill-opacity="0.501961" points="271,158 237,75 167,117" />
<polygon fill="#010027" fill-opacity="0.501961" points="63,34 -16,61 7,-16" />
<polygon fill="#ffd570" fill-opacity="0.501961" points="103,200 203,170 159,199" />
<polygon fill="#ffdf7f" fill-opacity="0.501961" points="271,238 156,237 269,206" />
<polygon fill="#d9793c" fill-opacity="0.501961" points="271,46 174,112 -16,84" />
<polygon fill="#f7d38c" fill-opacity="0.501961" points="-5,184 -11,101 44,184" />
<polygon fill="#ffffd0" fill-opacity="0.501961" points="120,158 123,184 142,139" />
<polygon fill="#0f000b" fill-opacity="0.501961" points="250,134 181,197 209,148" />
<polygon fill="#2c001a" fill-opacity="0.501961" points="106,21 128,-16 261,8" />
<polygon fill="#ead177" fill-opacity="0.501961" points="149,70 183,108 83,155" />
<polygon fill="#37000a" fill-opacity="0.501961" points="192,101 205,115 141,135" />
<polygon fill="#f2bd56" fill-opacity="0.501961" points="214,206 250,150 153,220" />
<polygon fill="#e5c792" fill-opacity="0.501961" points="-12,74 69,28 125,39" />
<polygon fill="#ffec7e" fill-opacity="0.501961" points="68,144 40,161 63,165" />
<polygon fill="#17000c" fill-opacity="0.501961" points="180,173 166,159 115,192" />
<polygon fill="#c1a070" fill-opacity="0.501961" points="166,23 271,104 253,10" />
<polygon fill="#300000" fill-opacity="0.501961" points="104,32 125,18 128,33" />
<polygon fill="#ffdb94" fill-opacity="0.501961" points="-16,42 13,83 -11,182" />
<polygon fill="#57152d" fill-opacity="0.501961" points="271,241 244,271 203,241" />
<polygon fill="#ffe689" fill-opacity="0.501961" points="196,118 200,143 109,155" />
<polygon fill="#f8d6a9" fill-opacity="0.501961" points="132,17 133,72 189,24" />
<polygon fill="#580000" fill-opacity="0.501961" points="162,121 155,138 115,145" />
<polygon fill="#541322" fill-opacity="0.501961" points="109,223 92,191 123,142" />
<polygon fill="#edc480" fill-opacity="0.501961" points="215,254 183,221 95,268" />
<polygon fill="#c47e4d" fill-opacity="0.501961" points="197,221 131,190 72,199" />
<polygon fill="#d48f40" fill-opacity="0.501961" points="1,202 -16,266 171,265" />
<polygon fill="#680000" fill-opacity="0.501961" points="85,128 91,161 99,152" />
<polygon fill="#e1be8d" fill-opacity="0.501961" points="139,238 18,213 65,189" />
<polygon fill="#300014" fill-opacity="0.501961" points="77,165 40,172 75,183" />
<polygon fill="#3a0012" fill-opacity="0.501961" points="144,205 198,192 213,166" />
<polygon fill="#340013" fill-opacity="0.501961" points="179,223 156,230 120,214" />
<polygon fill="#fffb9b" fill-opacity="0.501961" points="62,59 43,81 74,65" />
<polygon fill="#13000f" fill-opacity="0.501961" points="236,197 205,226 185,224" />
<polygon fill="#b62017" fill-opacity="0.501961" points="64,67 94,82 28,115" />
<polygon fill="#a8544a" fill-opacity="0.501961" points="234,37 220,75 168,64" />
<polygon fill="#751122" fill-opacity="0.501961" points="193,170 182,142 224,143" />
<polygon fill="#2b0000" fill-opacity="0.501961" points="155,148 172,162 141,150" />
<polygon fill="#22012b" fill-opacity="0.501961" points="77,-7 -16,77 -16,-6" />
<polygon fill="#d4994c" fill-opacity="0.501961" points="89,104 195,93 65,152" />
<polygon fill="#7c1017" fill-opacity="0.501961" points="102,152 64,110 7,114" />
<polygon fill="#ebfba6" fill-opacity="0.501961" points="102,154 103,182 92,174" />
<polygon fill="#2a000f" fill-opacity="0.501961" points="88,192 136,187 85,174" />
<polygon fill="#b55036" fill-opacity="0.501961" points="233,214 249,83 271,187" />
<polygon fill="#ecdb60" fill-opacity="0.501961" points="202,117 219,101 219,117" />
<polygon fill="#fdd995" fill-opacity="0.501961" points="165,124 186,124 182,180" />
<polygon fill="#fff2bf" fill-opacity="0.501961" points="152,111 187,104 125,138" />
<polygon fill="#260a22" fill-opacity="0.501961" points="189,23 236,-13 140,15" />
<polygon fill="#b58341" fill-opacity="0.501961" points="94,-16 54,27 115,34" />
<polygon fill="#e5b96a" fill-opacity="0.501961" points="236,11 249,90 271,11" />
<polygon fill="#370017" fill-opacity="0.501961" points="207,218 240,193 244,169" />
<polygon fill="#ba9e79" fill-opacity="0.501961" points="179,6 185,60 216,57" />
<polygon fill="#e3802e" fill-opacity="0.501961" points="62,91 47,135 42,117" />
<polygon fill="#d6711e" fill-opacity="0.501961" points="94,166 83,135 73,206" />
<polygon fill="#5c232e" fill-opacity="0.501961" points="92,192 120,217 102,221" />
<polygon fill="#b12a09" fill-opacity="0.501961" points="30,62 43,79 10,83" />
<polygon fill="#cb9655" fill-opacity="0.501961" points="138,203 216,204 162,223" />
<polygon fill="#c4a584" fill-opacity="0.501961" points="34,44 44,69 6,57" />
<polygon fill="#ce5f1a" fill-opacity="0.501961" points="54,62 85,55 57,42" />
<polygon fill="#df824b" fill-opacity="0.501961" points="198,177 178,186 205,162" />
<polygon fill="#140015" fill-opacity="0.501961" points="213,168 185,167 239,141" />
<polygon fill="#ab2a36" fill-opacity="0.501961" points="130,167 166,173 142,146" />
<polygon fill="#f1ad56" fill-opacity="0.501961" points="27,77 51,95 15,101" />
<polygon fill="#e3be8c" fill-opacity="0.501961" points="125,216 95,227 170,243" />
<polygon fill="#fab25d" fill-opacity="0.501961" points="58,131 63,154 47,158" />
<polygon fill="#3b0010" fill-opacity="0.501961" points="40,147 46,156 59,122" />
<polygon fill="#eacca3" fill-opacity="0.501961" points="185,57 131,19 117,63" />
<polygon fill="#b37c65" fill-opacity="0.501961" points="131,271 89,194 98,267" />
<polygon fill="#eae09b" fill-opacity="0.501961" points="127,185 118,172 132,146" />
<polygon fill="#d35326" fill-opacity="0.501961" points="153,60 225,88 217,64" />
<polygon fill="#5e0817" fill-opacity="0.501961" points="99,-7 156,-16 118,36" />
<polygon fill="#ac2a1d" fill-opacity="0.501961" points="21,92 95,87 57,78" />
<polygon fill="#eab65c" fill-opacity="0.501961" points="229,154 202,187 224,196" />
<polygon fill="#7f2d22" fill-opacity="0.501961" points="29,95 39,172 6,117" />
<polygon fill="#d67042" fill-opacity="0.501961" points="66,108 161,60 112,110" />
<polygon fill="#fae39a" fill-opacity="0.501961" points="75,27 70,58 64,26" />
<polygon fill="#b68461" fill-opacity="0.501961" points="105,214 58,181 20,185" />
<polygon fill="#ffed9d" fill-opacity="0.501961" points="173,146 135,144 191,124" />
<polygon fill="#47031a" fill-opacity="0.501961" points="161,126 209,108 203,95" />
<polygon fill="#e4a455" fill-opacity="0.501961" points="266,255 270,198 222,214" />
<polygon fill="#f3cf94" fill-opacity="0.501961" points="207,123 230,118 215,117" />
<polygon fill="#d29954" fill-opacity="0.501961" points="71,88 79,62 121,59" />
<polygon fill="#7a624a" fill-opacity="0.501961" points="60,-12 76,33 91,31" />
<polygon fill="#52051f" fill-opacity="0.501961" points="134,156 160,180 128,192" />
<polygon fill="#ebc58f" fill-opacity="0.501961" points="49,217 27,183 121,229" />
<polygon fill="#690a1a" fill-opacity="0.501961" points="61,150 61,105 74,139" />
<polygon fill="#dcc06d" fill-opacity="0.501961" points="91,132 165,79 116,144" />
<polygon fill="#150013" fill-opacity="0.501961" points="156,201 176,201 201,177" />
<polygon fill="#bb5e46" fill-opacity="0.501961" points="186,152 178,135 217,154" />
<polygon fill="#e3b765" fill-opacity="0.501961" points="138,191 174,189 202,168" />
<polygon fill="#f4cd87" fill-opacity="0.501961" points="-5,81 19,71 -16,58" />
<polygon fill="#eda053" fill-opacity="0.501961" points="77,121 83,128 71,148" />
</g>
</svg>