<svg xmlns="http://www.w3.org/2000/svg" version="1.1" width="300" height="300">
<rect x="0" y="0" width="300" height="300" fill="#766048" />
<g transform="scale(1.171875) translate(0.5 0.5)">
<polygon fill="#ffffff" fill-opacity="0.501961" points="-16,56 19,-16 271,20" />
<polygon fill="#051005" fill-opacity="0.501961" points="258,247 271,22 62,49" />
<polygon fill="#f5743f" fill-opacity="0.501961" points="17,84 49,200 256,133" />
<polygon fill="#20210b" fill-opacity="0.501961" points="139,213 117,69 213,203" />
<polygon fill="#d2e7d8" fill-opacity="0.501961" points="171,46 -16,5 252,-16" />
<polygon fill="#ffffbe" fill-opacity="0.501961" points="122,187 30,193 136,152" />
<polygon fill="#502408" fill-opacity="0.501961" points="2,271 64,158 -11,72" />
<polygon fill="#ff7b5b" fill-opacity="0.501961" points="59,69 -8,168 131,115" />
<polygon fill="#091a16" fill-opacity="0.501961" points="271,-2 102,138 245,110" />
<polygon fill="#00272c" fill-opacity="0.501961" points="-12,102 -9,55 137,38" />
<polygon fill="#2a1608" fill-opacity="0.501961" points="15,191 107,199 131,271" />
<polygon fill="#fffabd" fill-opacity="0.501961" points="271,97 254,136 243,99" />
<polygon fill="#bba761" fill-opacity="0.501961" points="175,271 227,201 107,225" />
<polygon fill="#ffffff" fill-opacity="0.501961" points="104,38 -8,25 -16,56" />
<polygon fill="#397f6b" fill-opacity="0.501961" points="189,32 159,86 113,48" />
<polygon fill="#dd6a27" fill-opacity="0.501961" points="158,124 98,161 261,138" />
<polygon fill="#ffd875" fill-opacity="0.501961" points="88,169 44,196 29,174" />
<polygon fill="#060800" fill-opacity="0.501961" points="271,140 252,271 217,159" />
<polygon fill="#8e2f17" fill-opacity="0.501961" points="42,116 -4,181 106,164" />
<polygon fill="#768a7c" fill-opacity="0.501961" points="271,24 252,-10 183,18" />
<polygon fill="#fca17b" fill-opacity="0.501961" points="129,114 100,91 72,161" />
<polygon fill="#ff976e" fill-opacity="0.501961" points="83,74 17,131 42,73" />
<polygon fill="#2e2a19" fill-opacity="0.501961" points="253,193 194,146 92,193" />
<polygon fill="#ffffff" fill-opacity="0.501961" points="144,18 184,1 211,10" />
<polygon fill="#292c18" fill-opacity="0.501961" points="-16,247 30,233 6,84" />
<polygon fill="#fe772f" fill-opacity="0.501961" points="50,210 31,218 66,271" />
<polygon fill="#ffffff" fill-opacity="0.501961" points="158,19 110,41 215,28" />
<polygon fill="#2f0700" fill-opacity="0.501961" points="130,244 125,271 46,250" />
<polygon fill="#d16f38" fill-opacity="0.501961" points="-16,136 37,156 5,176" />
<polygon fill="#c7a16f" fill-opacity="0.501961" points="133,223 101,247 73,247" />
<polygon fill="#1f4d89" fill-opacity="0.501961" points="115,61 81,87 105,94" />
<polygon fill="#e35c3b" fill-opacity="0.501961" points="55,76 134,158 71,159" />
<polygon fill="#687560" fill-opacity="0.501961" points="164,24 183,17 140,18" />
<polygon fill="#395343" fill-opacity="0.501961" points="110,42 197,31 170,127" />
<polygon fill="#e9fffd" fill-opacity="0.501961" points="61,196 40,189 83,190" />
<polygon fill="#9b3f14" fill-opacity="0.501961" points="163,124 248,117 271,145" />
<polygon fill="#c2ffff" fill-opacity="0.501961" points="127,111 119,125 117,107" />
<polygon fill="#c1c4af" fill-opacity="0.501961" points="16,35 119,40 -9,-16" />
<polygon fill="#000300" fill-opacity="0.501961" points="117,210 65,223 82,204" />
<polygon fill="#121f1c" fill-opacity="0.501961" points="132,40 83,90 79,53" />
<polygon fill="#4f2417" fill-opacity="0.501961" points="70,168 30,172 31,128" />
<polygon fill="#000000" fill-opacity="0.501961" points="113,220 102,236 72,230" />
<polygon fill="#1a1709" fill-opacity="0.501961" points="111,126 168,112 118,142" />
<polygon fill="#08150d" fill-opacity="0.501961" points="12,85 34,90 35,64" />
<polygon fill="#53987d" fill-opacity="0.501961" points="151,78 144,45 183,40" />
<polygon fill="#fdedbb" fill-opacity="0.501961" points="120,180 77,193 123,157" />
<polygon fill="#ffffff" fill-opacity="0.501961" points="53,46 9,34 -12,54" />
<polygon fill="#53895a" fill-opacity="0.501961" points="142,17 164,-16 167,4" />
<polygon fill="#0a0904" fill-opacity="0.501961" points="263,81 144,123 228,117" />
<polygon fill="#10221f" fill-opacity="0.501961" points="-16,165 10,94 28,109" />
<polygon fill="#337186" fill-opacity="0.501961" points="41,83 36,58 65,57" />
<polygon fill="#a43325" fill-opacity="0.501961" points="73,119 90,104 48,75" />
<polygon fill="#f6895d" fill-opacity="0.501961" points="55,134 90,109 129,153" />
<polygon fill="#995626" fill-opacity="0.501961" points="56,269 -10,252 70,220" />
<polygon fill="#f2774d" fill-opacity="0.501961" points="27,100 30,161 14,148" />
<polygon fill="#8f5019" fill-opacity="0.501961" points="33,181 50,190 72,188" />
<polygon fill="#ffa756" fill-opacity="0.501961" points="126,194 138,197 138,211" />
<polygon fill="#917f4a" fill-opacity="0.501961" points="167,271 218,198 235,222" />
<polygon fill="#9ba58d" fill-opacity="0.501961" points="27,34 -16,16 31,-16" />
<polygon fill="#d58516" fill-opacity="0.501961" points="121,174 77,172 104,181" />
<polygon fill="#ffba8a" fill-opacity="0.501961" points="72,71 56,74 90,99" />
<polygon fill="#dbd8ca" fill-opacity="0.501961" points="130,37 33,48 95,-16" />
<polygon fill="#361b09" fill-opacity="0.501961" points="44,269 131,259 124,234" />
<polygon fill="#4f6ba6" fill-opacity="0.501961" points="97,92 103,61 113,88" />
<polygon fill="#a4b79f" fill-opacity="0.501961" points="168,75 188,69 191,75" />
<polygon fill="#ffca80" fill-opacity="0.501961" points="41,212 53,228 32,220" />
<polygon fill="#64482b" fill-opacity="0.501961" points="57,231 97,191 42,197" />
<polygon fill="#364234" fill-opacity="0.501961" points="128,118 124,67 193,109" />
<polygon fill="#ffac80" fill-opacity="0.501961" points="19,91 22,104 57,95" />
<polygon fill="#121c16" fill-opacity="0.501961" points="43,71 117,49 97,71" />
<polygon fill="#818777" fill-opacity="0.501961" points="271,25 202,14 214,-16" />
<polygon fill="#2c3529" fill-opacity="0.501961" points="216,47 271,98 152,57" />
<polygon fill="#161f17" fill-opacity="0.501961" points="119,108 184,83 114,90" />
<polygon fill="#ffd6b1" fill-opacity="0.501961" points="244,102 267,142 271,100" />
<polygon fill="#534e23" fill-opacity="0.501961" points="213,271 233,218 271,267" />
<polygon fill="#bb5649" fill-opacity="0.501961" points="73,225 99,224 111,212" />
<polygon fill="#ffffff" fill-opacity="0.501961" points="179,17 210,3 148,11" />
<polygon fill="#2a2c1c" fill-opacity="0.501961" points="46,195 19,239 -16,169" />
<polygon fill="#ffa478" fill-opacity="0.501961" points="88,90 70,101 115,100" />
<polygon fill="#243526" fill-opacity="0.501961" points="19,70 52,69 52,82" />
<polygon fill="#0f120e" fill-opacity="0.501961" points="271,94 262,23 211,29" />
<polygon fill="#b7946f" fill-opacity="0.501961" points="120,207 120,234 100,244" />
<polygon fill="#94471b" fill-opacity="0.501961" points="133,163 145,136 116,134" />
<polygon fill="#4c250c" fill-opacity="0.501961" points="69,167 112,159 94,169" />
<polygon fill="#3f2d19" fill-opacity="0.501961" points="173,201 266,137 129,159" />
<polygon fill="#f4ff85" fill-opacity="0.501961" points="1,63 -16,62 3,75" />
<polygon fill="#fc916a" fill-opacity="0.501961" points="37,80 33,133 61,89" />
<polygon fill="#151c19" fill-opacity="0.501961" points="202,107 178,37 205,30" />
<polygon fill="#a43621" fill-opacity="0.501961" points="67,157 20,162 95,124" />
<polygon fill="#5d1b00" fill-opacity="0.501961" points="124,228 133,217 128,195" />
<polygon fill="#867f70" fill-opacity="0.501961" points="175,58 147,63 148,79" />
<polygon fill="#ffffff" fill-opacity="0.501961" points="200,29 136,36 165,22" />
<polygon fill="#f6d582" fill-opacity="0.501961" points="33,182 72,187 83,170" />
<polygon fill="#000404" fill-opacity="0.501961" points="-14,147 17,126 15,141" />
<polygon fill="#b09c6a" fill-opacity="0.501961" points="163,233 134,217 225,205" />
<polygon fill="#ea962e" fill-opacity="0.501961" points="31,186 59,176 44,169" />
<polygon fill="#c6442a" fill-opacity="0.501961" points="20,120 72,110 25,136" />
<polygon fill="#bdbaac" fill-opacity="0.501961" points="143,-16 115,23 156,25" />
<polygon fill="#eae0bd" fill-opacity="0.501961" points="101,164 134,166 111,184" />
<polygon fill="#434033" fill-opacity="0.501961" points="240,41 216,93 200,37" />
</g>
</svg>