<svg xmlns="http://www.w3.org/2000/svg" version="1.1" width="300" height="300">
<rect x="0" y="0" width="300" height="300" fill="#756a57" />
<g transform="scale(1.171875) translate(0.5 0.5)">
<polygon fill="#fffffa" fill-opacity="0.501961" points="82,271 46,170 160,202" />
<polygon fill="#eecb87" fill-opacity="0.501961" points="268,149 21,135 109,50" />
<polygon fill="#000508" fill-opacity="0.501961" points="52,214 -15,271 5,-16" />
<polygon fill="#000000" fill-opacity="0.501961" points="249,271 271,135 179,171" />
<polygon fill="#000810" fill-opacity="0.501961" points="139,-16 190,96 262,10" />
<polygon fill="#000001" fill-opacity="0.501961" points="-16,71 104,112 83,49" />
<polygon fill="#ffedc3" fill-opacity="0.501961" points="91,187 27,271 64,141" />
<polygon fill="#fdffff" fill-opacity="0.501961" points="169,177 228,104 233,139" />
<polygon fill="#dee8d6" fill-opacity="0.501961" points="146,84 35,46 36,6" />
<polygon fill="#ffffff" fill-opacity="0.501961" points="238,38 240,89 271,29" />
<polygon fill="#ffffc9" fill-opacity="0.501961" points="46,93 25,125 135,129" />
<polygon fill="#945313" fill-opacity="0.501961" points="116,200 60,183 197,51" />
<polygon fill="#eae0e8" fill-opacity="0.501961" points="158,228 69,220 156,172" />
<polygon fill="#4f1400" fill-opacity="0.501961" points="94,232 162,226 144,271" />
<polygon fill="#111c1e" fill-opacity="0.501961" points="152,43 65,57 86,9" />
<polygon fill="#fffcc0" fill-opacity="0.501961" points="85,50 113,128 141,55" />
<polygon fill="#000005" fill-opacity="0.501961" points="271,142 227,132 239,87" />
<polygon fill="#f9fffa" fill-opacity="0.501961" points="60,218 41,269 -2,263" />
<polygon fill="#edc464" fill-opacity="0.501961" points="104,219 25,131 42,93" />
<polygon fill="#000000" fill-opacity="0.501961" points="55,232 73,217 65,266" />
<polygon fill="#f4fdf6" fill-opacity="0.501961" points="37,6 89,7 123,-16" />
<polygon fill="#5e290a" fill-opacity="0.501961" points="190,187 209,271 129,134" />
<polygon fill="#d9dcf5" fill-opacity="0.501961" points="168,157 242,142 197,121" />
<polygon fill="#6c4117" fill-opacity="0.501961" points="106,132 52,125 106,201" />
<polygon fill="#ecab00" fill-opacity="0.501961" points="122,141 147,88 118,73" />
<polygon fill="#000710" fill-opacity="0.501961" points="4,-16 -13,50 33,13" />
<polygon fill="#0b1722" fill-opacity="0.501961" points="102,-7 154,-5 57,39" />
<polygon fill="#e7ebdc" fill-opacity="0.501961" points="262,61 198,60 263,39" />
<polygon fill="#2b3233" fill-opacity="0.501961" points="206,127 165,-3 237,89" />
<polygon fill="#a37147" fill-opacity="0.501961" points="140,69 166,271 191,172" />
<polygon fill="#fffbd3" fill-opacity="0.501961" points="70,269 77,228 133,263" />
<polygon fill="#181c18" fill-opacity="0.501961" points="52,161 41,232 26,137" />
<polygon fill="#191f1f" fill-opacity="0.501961" points="221,141 209,271 271,237" />
<polygon fill="#90927a" fill-opacity="0.501961" points="11,34 -13,46 50,70" />
<polygon fill="#fffff2" fill-opacity="0.501961" points="151,78 190,98 175,83" />
<polygon fill="#1a211f" fill-opacity="0.501961" points="81,50 29,55 108,118" />
<polygon fill="#d2d4e1" fill-opacity="0.501961" points="28,212 64,189 150,233" />
<polygon fill="#f0f0e4" fill-opacity="0.501961" points="157,79 94,50 76,67" />
<polygon fill="#fdffff" fill-opacity="0.501961" points="113,11 109,28 126,9" />
<polygon fill="#ccd6d4" fill-opacity="0.501961" points="153,42 166,53 110,68" />
<polygon fill="#fffffd" fill-opacity="0.501961" points="63,30 84,7 33,38" />
<polygon fill="#b79d66" fill-opacity="0.501961" points="236,231 211,247 192,207" />
<polygon fill="#2b2d1f" fill-opacity="0.501961" points="44,175 36,236 53,210" />
<polygon fill="#efeffb" fill-opacity="0.501961" points="55,155 48,188 88,236" />
<polygon fill="#f2b353" fill-opacity="0.501961" points="177,218 197,271 154,270" />
<polygon fill="#823c14" fill-opacity="0.501961" points="130,99 138,185 157,78" />
<polygon fill="#edece1" fill-opacity="0.501961" points="230,105 229,129 210,104" />
<polygon fill="#131616" fill-opacity="0.501961" points="136,67 244,14 213,56" />
<polygon fill="#747c76" fill-opacity="0.501961" points="94,32 180,8 171,-16" />
<polygon fill="#0f1918" fill-opacity="0.501961" points="223,113 210,124 186,113" />
<polygon fill="#fdfff2" fill-opacity="0.501961" points="264,92 271,80 232,81" />
<polygon fill="#202322" fill-opacity="0.501961" points="102,29 111,57 155,41" />
<polygon fill="#5a310c" fill-opacity="0.501961" points="119,226 95,235 144,271" />
<polygon fill="#ffffee" fill-opacity="0.501961" points="246,23 246,29 234,28" />
<polygon fill="#fff7e1" fill-opacity="0.501961" points="31,100 65,97 30,111" />
<polygon fill="#edead5" fill-opacity="0.501961" points="40,40 52,53 87,47" />
<polygon fill="#13181b" fill-opacity="0.501961" points="192,177 219,243 226,142" />
<polygon fill="#131514" fill-opacity="0.501961" points="-2,197 18,252 44,148" />
<polygon fill="#251709" fill-opacity="0.501961" points="182,224 186,190 218,270" />
<polygon fill="#94a4a2" fill-opacity="0.501961" points="149,68 197,66 191,78" />
<polygon fill="#b39a69" fill-opacity="0.501961" points="199,205 146,96 187,108" />
<polygon fill="#c7c6b4" fill-opacity="0.501961" points="188,100 217,90 214,81" />
<polygon fill="#e1e0f1" fill-opacity="0.501961" points="195,116 211,155 184,164" />
<polygon fill="#330300" fill-opacity="0.501961" points="164,226 171,192 157,202" />
<polygon fill="#453219" fill-opacity="0.501961" points="157,161 142,146 110,201" />
<polygon fill="#c88507" fill-opacity="0.501961" points="77,172 95,204 70,188" />
<polygon fill="#191a18" fill-opacity="0.501961" points="137,34 196,-1 248,18" />
<polygon fill="#6d7983" fill-opacity="0.501961" points="41,149 36,117 5,114" />
<polygon fill="#242d2d" fill-opacity="0.501961" points="35,16 77,10 61,4" />
<polygon fill="#f1c975" fill-opacity="0.501961" points="194,188 213,231 199,228" />
<polygon fill="#d3c0a6" fill-opacity="0.501961" points="135,241 160,216 145,173" />
<polygon fill="#061013" fill-opacity="0.501961" points="-1,48 43,32 19,34" />
<polygon fill="#845c26" fill-opacity="0.501961" points="190,96 139,77 190,119" />
<polygon fill="#1d180b" fill-opacity="0.501961" points="-16,72 29,56 41,100" />
<polygon fill="#efcf59" fill-opacity="0.501961" points="45,64 39,56 28,70" />
<polygon fill="#071c2d" fill-opacity="0.501961" points="170,71 155,76 200,91" />
<polygon fill="#fffffd" fill-opacity="0.501961" points="239,12 241,-16 235,-3" />
<polygon fill="#f3f3f7" fill-opacity="0.501961" points="87,106 44,94 80,116" />
<polygon fill="#030808" fill-opacity="0.501961" points="69,242 78,271 20,269" />
<polygon fill="#ece5e4" fill-opacity="0.501961" points="76,201 118,199 72,249" />
<polygon fill="#010d15" fill-opacity="0.501961" points="151,60 151,73 132,64" />
<polygon fill="#dfa40b" fill-opacity="0.501961" points="40,118 57,167 65,152" />
<polygon fill="#efc46d" fill-opacity="0.501961" points="132,120 101,63 118,141" />
<polygon fill="#ffffe3" fill-opacity="0.501961" points="171,10 183,3 168,6" />
<polygon fill="#e9e9ce" fill-opacity="0.501961" points="3,265 31,235 60,244" />
<polygon fill="#131f22" fill-opacity="0.501961" points="126,15 149,20 132,31" />
<polygon fill="#c2c2b0" fill-opacity="0.501961" points="40,-8 26,22 70,-15" />
<polygon fill="#d2d7d1" fill-opacity="0.501961" points="16,31 40,31 61,13" />
<polygon fill="#ece1cf" fill-opacity="0.501961" points="103,55 82,49 111,116" />
<polygon fill="#f7f7c7" fill-opacity="0.501961" points="82,172 104,202 90,193" />
<polygon fill="#dec78d" fill-opacity="0.501961" points="12,95 -3,97 -4,106" />
<polygon fill="#decb9b" fill-opacity="0.501961" points="54,156 42,130 23,134" />
<polygon fill="#23231f" fill-opacity="0.501961" points="139,38 254,28 212,58" />
<polygon fill="#e1e8e4" fill-opacity="0.501961" points="165,66 153,78 152,69" />
<polygon fill="#282a22" fill-opacity="0.501961" points="232,74 244,124 207,75" />
<polygon fill="#e3e3d7" fill-opacity="0.501961" points="79,12 72,-1 117,-11" />
<polygon fill="#dcd39a" fill-opacity="0.501961" points="232,98 270,106 271,95" />
<polygon fill="#1a1c1c" fill-opacity="0.501961" points="220,145 187,186 271,161" />
<polygon fill="#111619" fill-opacity="0.501961" points="51,231 75,222 64,239" />
<polygon fill="#f2f5e2" fill-opacity="0.501961" points="232,72 226,65 219,71" />
</g>
</svg>