<svg xmlns="http://www.w3.org/2000/svg" version="1.1" width="300" height="300">
<rect x="0" y="0" width="300" height="300" fill="#987e56" />
<g transform="scale(1.171875) translate(0.5 0.5)">
<polygon fill="#e8df74" fill-opacity="0.501961" points="53,88 227,208 256,23" />
<polygon fill="#1e001d" fill-opacity="0.501961" points="-16,66 113,-16 208,8" />
<polygon fill="#4a0000" fill-opacity="0.501961" points="8,88 128,182 -16,176" />
<polygon fill="#00000e" fill-opacity="0.501961" points="59,75 -16,58 8,-16" />
<polygon fill="#a3bdbc" fill-opacity="0.501961" points="79,268 211,227 -16,204" />
<polygon fill="#520e27" fill-opacity="0.501961" points="204,209 163,144 140,216" />
<polygon fill="#d29f00" fill-opacity="0.501961" points="268,93 197,50 246,-16" />
<polygon fill="#e2e9d7" fill-opacity="0.501961" points="180,87 213,138 68,81" />
<polygon fill="#c78904" fill-opacity="0.501961" points="148,209 156,114 45,103" />
<polygon fill="#c3bec1" fill-opacity="0.501961" points="55,45 11,-6 80,1" />
<polygon fill="#95a4b0" fill-opacity="0.501961" points="271,107 204,271 193,160" />
<polygon fill="#d1812d" fill-opacity="0.501961" points="41,72 205,92 135,19" />
<polygon fill="#3c0000" fill-opacity="0.501961" points="218,48 210,-16 198,54" />
<polygon fill="#7c0b2a" fill-opacity="0.501961" points="114,129 53,119 115,195" />
<polygon fill="#3c0615" fill-opacity="0.501961" points="185,135 233,147 230,162" />
<polygon fill="#001717" fill-opacity="0.501961" points="254,121 271,84 233,91" />
<polygon fill="#d6fff3" fill-opacity="0.501961" points="241,251 271,215 202,261" />
<polygon fill="#231530" fill-opacity="0.501961" points="75,193 4,207 -14,187" />
<polygon fill="#10001b" fill-opacity="0.501961" points="1,-16 -16,44 48,38" />
<polygon fill="#dcd9a5" fill-opacity="0.501961" points="155,232 110,191 43,180" />
<polygon fill="#511b28" fill-opacity="0.501961" points="56,39 172,44 191,-13" />
<polygon fill="#d2b31b" fill-opacity="0.501961" points="28,140 71,94 33,174" />
<polygon fill="#2f3e65" fill-opacity="0.501961" points="108,261 -16,227 13,271" />
<polygon fill="#000000" fill-opacity="0.501961" points="229,259 246,271 270,230" />
<polygon fill="#d3c695" fill-opacity="0.501961" points="203,32 158,97 196,-16" />
<polygon fill="#656274" fill-opacity="0.501961" points="271,179 113,271 220,250" />
<polygon fill="#602a2f" fill-opacity="0.501961" points="174,225 35,164 73,144" />
<polygon fill="#e8d17e" fill-opacity="0.501961" points="132,50 43,36 85,57" />
<polygon fill="#d1e3a2" fill-opacity="0.501961" points="152,133 211,207 231,169" />
<polygon fill="#d5ca38" fill-opacity="0.501961" points="116,181 119,108 167,186" />
<polygon fill="#462b3e" fill-opacity="0.501961" points="186,171 202,214 148,232" />
<polygon fill="#e4b974" fill-opacity="0.501961" points="162,33 112,34 124,23" />
<polygon fill="#d4c609" fill-opacity="0.501961" points="219,-16 238,91 271,69" />
<polygon fill="#794f45" fill-opacity="0.501961" points="83,81 58,3 -4,65" />
<polygon fill="#aba245" fill-opacity="0.501961" points="67,64 54,124 -16,84" />
<polygon fill="#b7c3ad" fill-opacity="0.501961" points="54,241 59,200 143,250" />
<polygon fill="#330b22" fill-opacity="0.501961" points="172,25 87,-16 74,17" />
<polygon fill="#d0c6a5" fill-opacity="0.501961" points="106,111 178,87 34,77" />
<polygon fill="#320e2d" fill-opacity="0.501961" points="19,188 28,139 -16,137" />
<polygon fill="#dff1e7" fill-opacity="0.501961" points="194,41 162,42 183,55" />
<polygon fill="#5e6069" fill-opacity="0.501961" points="102,206 8,218 47,189" />
<polygon fill="#a67743" fill-opacity="0.501961" points="151,79 127,77 145,163" />
<polygon fill="#cfdbb0" fill-opacity="0.501961" points="208,112 188,139 111,81" />
<polygon fill="#b3beb4" fill-opacity="0.501961" points="237,158 183,233 215,217" />
<polygon fill="#783423" fill-opacity="0.501961" points="110,215 129,236 149,235" />
<polygon fill="#d6cbb2" fill-opacity="0.501961" points="57,29 50,49 41,-6" />
<polygon fill="#cb9333" fill-opacity="0.501961" points="173,81 223,35 194,110" />
<polygon fill="#6d2910" fill-opacity="0.501961" points="198,56 206,-15 232,-10" />
<polygon fill="#200e28" fill-opacity="0.501961" points="189,36 189,27 168,35" />
<polygon fill="#c2c395" fill-opacity="0.501961" points="14,186 71,191 41,176" />
<polygon fill="#cdd08a" fill-opacity="0.501961" points="198,87 252,134 218,57" />
<polygon fill="#675558" fill-opacity="0.501961" points="271,195 208,239 255,155" />
<polygon fill="#861715" fill-opacity="0.501961" points="139,174 129,171 127,140" />
<polygon fill="#8b9d81" fill-opacity="0.501961" points="81,256 -16,226 18,198" />
<polygon fill="#e14044" fill-opacity="0.501961" points="240,30 254,-16 271,25" />
<polygon fill="#717116" fill-opacity="0.501961" points="20,86 -16,109 52,104" />
<polygon fill="#b05323" fill-opacity="0.501961" points="51,84 125,76 71,58" />
<polygon fill="#bcc766" fill-opacity="0.501961" points="172,175 230,173 184,138" />
<polygon fill="#ccd126" fill-opacity="0.501961" points="158,124 79,103 86,125" />
<polygon fill="#ddcc30" fill-opacity="0.501961" points="161,163 135,206 160,108" />
<polygon fill="#dab358" fill-opacity="0.501961" points="82,46 238,61 215,97" />
<polygon fill="#9f302c" fill-opacity="0.501961" points="158,149 173,154 148,200" />
<polygon fill="#ccb175" fill-opacity="0.501961" points="105,193 170,228 132,231" />
<polygon fill="#f2f7cd" fill-opacity="0.501961" points="176,82 156,82 185,134" />
<polygon fill="#2c0524" fill-opacity="0.501961" points="-1,32 59,53 0,-16" />
<polygon fill="#b7a07a" fill-opacity="0.501961" points="106,111 43,72 -16,77" />
<polygon fill="#ddf5dc" fill-opacity="0.501961" points="32,14 20,5 55,2" />
<polygon fill="#cb8868" fill-opacity="0.501961" points="107,159 109,147 69,139" />
<polygon fill="#b17e0d" fill-opacity="0.501961" points="223,-16 230,59 209,54" />
<polygon fill="#720e0a" fill-opacity="0.501961" points="81,141 53,130 71,112" />
<polygon fill="#5b031e" fill-opacity="0.501961" points="24,104 -16,123 43,129" />
<polygon fill="#2c2237" fill-opacity="0.501961" points="180,177 167,197 205,201" />
<polygon fill="#431f2b" fill-opacity="0.501961" points="121,44 114,1 62,36" />
<polygon fill="#ceac8e" fill-opacity="0.501961" points="175,189 173,179 149,179" />
<polygon fill="#cad6d4" fill-opacity="0.501961" points="219,182 206,201 182,171" />
<polygon fill="#c19851" fill-opacity="0.501961" points="206,-16 184,1 198,74" />
<polygon fill="#eddb13" fill-opacity="0.501961" points="222,-16 271,-15 239,15" />
<polygon fill="#2b0b19" fill-opacity="0.501961" points="270,127 271,101 238,109" />
<polygon fill="#f6ffef" fill-opacity="0.501961" points="76,-1 76,11 69,18" />
<polygon fill="#b0b6a2" fill-opacity="0.501961" points="175,265 226,236 191,245" />
<polygon fill="#c1a056" fill-opacity="0.501961" points="41,85 64,41 86,39" />
<polygon fill="#464950" fill-opacity="0.501961" points="59,40 46,74 17,70" />
<polygon fill="#e5f47f" fill-opacity="0.501961" points="137,117 130,131 140,159" />
<polygon fill="#250c1e" fill-opacity="0.501961" points="185,18 164,-16 148,21" />
<polygon fill="#ab973a" fill-opacity="0.501961" points="236,105 190,161 222,145" />
<polygon fill="#896b2c" fill-opacity="0.501961" points="118,114 139,106 174,124" />
<polygon fill="#846130" fill-opacity="0.501961" points="209,102 188,109 188,90" />
<polygon fill="#5f3a3f" fill-opacity="0.501961" points="62,24 51,20 53,-16" />
<polygon fill="#ccb721" fill-opacity="0.501961" points="68,106 45,145 48,101" />
<polygon fill="#b3b9a3" fill-opacity="0.501961" points="242,113 271,130 229,149" />
<polygon fill="#84070d" fill-opacity="0.501961" points="144,158 141,138 147,134" />
<polygon fill="#000020" fill-opacity="0.501961" points="255,242 271,260 212,271" />
<polygon fill="#482437" fill-opacity="0.501961" points="63,192 80,209 110,214" />
<polygon fill="#955e19" fill-opacity="0.501961" points="48,99 23,159 37,182" />
<polygon fill="#cbd1ab" fill-opacity="0.501961" points="104,213 129,213 79,189" />
<polygon fill="#d7e3b6" fill-opacity="0.501961" points="230,61 235,77 219,88" />
<polygon fill="#c3d9bc" fill-opacity="0.501961" points="211,140 169,126 204,107" />
<polygon fill="#e3e3bf" fill-opacity="0.501961" points="82,80 103,103 121,82" />
<polygon fill="#779529" fill-opacity="0.501961" points="164,134 187,147 167,119" />
<polygon fill="#898885" fill-opacity="0.501961" points="135,2 156,5 136,9" />
</g>
</svg>