<svg xmlns="http://www.w3.org/2000/svg" version="1.1" width="300" height="300">
<rect x="0" y="0" width="300" height="300" fill="#afa590" />
<g transform="scale(1.171875) translate(0.5 0.5)">
<polygon fill="#030000" fill-opacity="0.501961" points="214,170 271,95 250,271" />
<polygon fill="#e0e0e3" fill-opacity="0.501961" points="-16,-3 222,36 13,197" />
<polygon fill="#441900" fill-opacity="0.501961" points="118,237 50,230 197,148" />
<polygon fill="#3b0400" fill-opacity="0.501961" points="133,-16 269,1 271,52" />
<polygon fill="#79370b" fill-opacity="0.501961" points="53,159 44,221 99,245" />
<polygon fill="#7f3704" fill-opacity="0.501961" points="203,115 147,79 205,85" />
<polygon fill="#ced997" fill-opacity="0.501961" points="112,215 213,105 77,147" />
<polygon fill="#5e646d" fill-opacity="0.501961" points="30,143 -6,246 28,228" />
<polygon fill="#781800" fill-opacity="0.501961" points="50,172 86,142 66,182" />
<polygon fill="#bac3c2" fill-opacity="0.501961" points="239,51 167,205 212,218" />
<polygon fill="#be8a35" fill-opacity="0.501961" points="271,258 202,268 209,199" />
<polygon fill="#4e3818" fill-opacity="0.501961" points="205,118 169,188 179,137" />
<polygon fill="#d4cfc5" fill-opacity="0.501961" points="135,-16 9,49 261,95" />
<polygon fill="#38171f" fill-opacity="0.501961" points="221,206 257,118 264,252" />
<polygon fill="#a16913" fill-opacity="0.501961" points="172,82 94,141 144,122" />
<polygon fill="#d8dcac" fill-opacity="0.501961" points="61,197 96,212 98,124" />
<polygon fill="#878e90" fill-opacity="0.501961" points="11,94 9,171 43,108" />
<polygon fill="#ab9f50" fill-opacity="0.501961" points="271,46 166,0 271,98" />
<polygon fill="#afb371" fill-opacity="0.501961" points="169,171 55,185 95,214" />
<polygon fill="#532c22" fill-opacity="0.501961" points="81,220 175,178 108,239" />
<polygon fill="#c6d2e2" fill-opacity="0.501961" points="21,236 10,195 22,164" />
<polygon fill="#4e3428" fill-opacity="0.501961" points="1,198 9,170 10,228" />
<polygon fill="#e6eed3" fill-opacity="0.501961" points="175,98 195,109 135,132" />
<polygon fill="#bdb8a1" fill-opacity="0.501961" points="237,146 271,102 144,-16" />
<polygon fill="#676439" fill-opacity="0.501961" points="12,14 12,-16 36,4" />
<polygon fill="#5b0b1a" fill-opacity="0.501961" points="58,198 55,217 95,218" />
<polygon fill="#d5cec2" fill-opacity="0.501961" points="52,248 27,248 34,154" />
<polygon fill="#e4eaf6" fill-opacity="0.501961" points="-16,152 7,77 8,165" />
<polygon fill="#b7c0cf" fill-opacity="0.501961" points="235,147 227,164 230,186" />
<polygon fill="#ced1d5" fill-opacity="0.501961" points="158,244 160,219 113,243" />
<polygon fill="#58331b" fill-opacity="0.501961" points="218,25 143,-16 271,3" />
<polygon fill="#800000" fill-opacity="0.501961" points="67,178 77,175 73,164" />
<polygon fill="#0a0f22" fill-opacity="0.501961" points="226,148 226,160 241,134" />
<polygon fill="#c4b490" fill-opacity="0.501961" points="245,29 228,82 176,23" />
<polygon fill="#d1d5af" fill-opacity="0.501961" points="130,107 116,143 147,186" />
<polygon fill="#cfccc4" fill-opacity="0.501961" points="116,94 34,191 40,-16" />
<polygon fill="#646634" fill-opacity="0.501961" points="73,-8 57,16 89,-1" />
<polygon fill="#642f25" fill-opacity="0.501961" points="153,164 183,163 173,182" />
<polygon fill="#e9e5e3" fill-opacity="0.501961" points="13,164 14,128 28,132" />
<polygon fill="#b17e35" fill-opacity="0.501961" points="161,81 187,97 138,106" />
<polygon fill="#664b2f" fill-opacity="0.501961" points="11,143 3,175 12,167" />
<polygon fill="#452f27" fill-opacity="0.501961" points="8,194 2,239 13,226" />
<polygon fill="#b49d5f" fill-opacity="0.501961" points="9,271 140,250 91,233" />
<polygon fill="#555e2e" fill-opacity="0.501961" points="271,9 255,67 243,39" />
<polygon fill="#c0b28c" fill-opacity="0.501961" points="128,270 215,251 220,171" />
<polygon fill="#c2c2b9" fill-opacity="0.501961" points="126,121 180,59 27,101" />
<polygon fill="#b0b7b6" fill-opacity="0.501961" points="193,219 181,161 269,63" />
<polygon fill="#cdd3e9" fill-opacity="0.501961" points="1,232 -16,156 4,174" />
<polygon fill="#8b5c29" fill-opacity="0.501961" points="86,140 136,115 117,135" />
<polygon fill="#a77841" fill-opacity="0.501961" points="232,271 220,203 270,271" />
<polygon fill="#a2a4a6" fill-opacity="0.501961" points="229,194 230,177 238,204" />
<polygon fill="#564f43" fill-opacity="0.501961" points="29,177 20,184 27,216" />
<polygon fill="#a0a564" fill-opacity="0.501961" points="102,213 146,188 93,191" />
<polygon fill="#d2cfca" fill-opacity="0.501961" points="36,124 112,-16 163,14" />
<polygon fill="#d6d7c2" fill-opacity="0.501961" points="130,130 72,194 81,149" />
<polygon fill="#3f171c" fill-opacity="0.501961" points="181,161 183,139 198,127" />
<polygon fill="#813b25" fill-opacity="0.501961" points="204,121 179,85 192,82" />
<polygon fill="#bfbf86" fill-opacity="0.501961" points="111,123 175,163 185,129" />
<polygon fill="#d3d4ba" fill-opacity="0.501961" points="195,112 153,103 165,138" />
<polygon fill="#ac722b" fill-opacity="0.501961" points="48,171 45,205 72,175" />
<polygon fill="#181928" fill-opacity="0.501961" points="226,150 221,176 230,201" />
<polygon fill="#973d1e" fill-opacity="0.501961" points="157,112 130,123 139,111" />
<polygon fill="#948d57" fill-opacity="0.501961" points="143,224 113,237 156,195" />
<polygon fill="#6a8492" fill-opacity="0.501961" points="32,105 37,125 17,126" />
<polygon fill="#846e5b" fill-opacity="0.501961" points="17,96 10,106 11,76" />
<polygon fill="#d2cdc8" fill-opacity="0.501961" points="14,122 71,14 13,75" />
<polygon fill="#8c8f7b" fill-opacity="0.501961" points="20,140 27,178 32,136" />
<polygon fill="#912b29" fill-opacity="0.501961" points="262,203 246,157 271,117" />
<polygon fill="#8d9685" fill-opacity="0.501961" points="206,93 194,139 208,138" />
<polygon fill="#a8833f" fill-opacity="0.501961" points="241,35 195,21 258,22" />
<polygon fill="#c6bba8" fill-opacity="0.501961" points="233,48 140,-9 172,83" />
<polygon fill="#aab2b3" fill-opacity="0.501961" points="12,201 11,240 26,244" />
<polygon fill="#662e31" fill-opacity="0.501961" points="65,215 126,208 69,233" />
<polygon fill="#c8b39c" fill-opacity="0.501961" points="-15,-16 0,53 29,15" />
<polygon fill="#adb07f" fill-opacity="0.501961" points="163,159 151,183 86,187" />
<polygon fill="#c2c596" fill-opacity="0.501961" points="87,212 117,206 66,193" />
<polygon fill="#b9ab54" fill-opacity="0.501961" points="146,102 190,87 175,82" />
<polygon fill="#c9c0b1" fill-opacity="0.501961" points="78,113 30,215 29,158" />
<polygon fill="#592c2b" fill-opacity="0.501961" points="178,159 129,204 158,192" />
<polygon fill="#9ca792" fill-opacity="0.501961" points="156,190 182,177 142,215" />
<polygon fill="#d1cfc8" fill-opacity="0.501961" points="136,110 90,109 60,156" />
<polygon fill="#c3a931" fill-opacity="0.501961" points="166,-3 168,9 195,17" />
<polygon fill="#a2903f" fill-opacity="0.501961" points="63,225 51,231 47,190" />
<polygon fill="#b8bad3" fill-opacity="0.501961" points="59,22 62,-16 32,-1" />
<polygon fill="#3d2425" fill-opacity="0.501961" points="248,132 253,225 232,169" />
<polygon fill="#7b3d29" fill-opacity="0.501961" points="54,173 77,175 75,153" />
<polygon fill="#969865" fill-opacity="0.501961" points="87,197 122,205 128,181" />
<polygon fill="#021327" fill-opacity="0.501961" points="198,87 190,81 189,85" />
<polygon fill="#cdccc8" fill-opacity="0.501961" points="9,173 22,205 21,131" />
<polygon fill="#c5c7cb" fill-opacity="0.501961" points="203,134 208,177 186,220" />
<polygon fill="#a7381e" fill-opacity="0.501961" points="164,103 155,91 170,101" />
<polygon fill="#d9d59c" fill-opacity="0.501961" points="97,180 60,195 66,182" />
<polygon fill="#463a41" fill-opacity="0.501961" points="29,200 27,228 22,217" />
<polygon fill="#d7d9db" fill-opacity="0.501961" points="7,163 -16,159 8,105" />
<polygon fill="#7e793c" fill-opacity="0.501961" points="94,198 99,179 103,184" />
<polygon fill="#a8a58a" fill-opacity="0.501961" points="192,220 226,210 213,164" />
<polygon fill="#9c9664" fill-opacity="0.501961" points="213,103 211,87 196,83" />
<polygon fill="#3c2e2d" fill-opacity="0.501961" points="106,228 146,205 125,228" />
<polygon fill="#7d6c54" fill-opacity="0.501961" points="7,126 12,124 11,144" />
<polygon fill="#a3a6ac" fill-opacity="0.501961" points="230,159 239,138 239,148" />
</g>
</svg>