<svg xmlns="http://www.w3.org/2000/svg" version="1.1" width="300" height="300">
<rect x="0" y="0" width="300" height="300" fill="#c48554" />
<g transform="scale(1.171875) translate(0.5 0.5)">
<polygon fill="#3f1809" fill-opacity="0.501961" points="7,271 64,82 -16,127" />
<polygon fill="#ffac89" fill-opacity="0.501961" points="271,114 6,44 250,-16" />
<polygon fill="#39611c" fill-opacity="0.501961" points="134,271 18,109 136,170" />
<polygon fill="#f4672a" fill-opacity="0.501961" points="239,138 166,197 134,16" />
<polygon fill="#5e240b" fill-opacity="0.501961" points="-16,228 119,254 -6,271" />
<polygon fill="#ece282" fill-opacity="0.501961" points="57,99 141,131 186,218" />
<polygon fill="#fff7e2" fill-opacity="0.501961" points="249,128 234,191 252,223" />
<polygon fill="#617031" fill-opacity="0.501961" points="55,69 156,222 110,260" />
<polygon fill="#f7f1ba" fill-opacity="0.501961" points="184,18 237,-16 81,0" />
<polygon fill="#cb4a3e" fill-opacity="0.501961" points="56,149 58,249 -16,57" />
<polygon fill="#ef763b" fill-opacity="0.501961" points="29,64 194,47 167,152" />
<polygon fill="#d3de81" fill-opacity="0.501961" points="46,101 125,118 59,139" />
<polygon fill="#e8dc88" fill-opacity="0.501961" points="271,165 271,2 208,18" />
<polygon fill="#fce2b5" fill-opacity="0.501961" points="98,175 115,128 120,162" />
<polygon fill="#fffff3" fill-opacity="0.501961" points="29,72 12,61 44,52" />
<polygon fill="#7b0800" fill-opacity="0.501961" points="190,163 213,211 197,214" />
<polygon fill="#ff364c" fill-opacity="0.501961" points="227,128 228,58 197,13" />
<polygon fill="#ecba6b" fill-opacity="0.501961" points="237,271 271,226 189,152" />
<polygon fill="#f5e9cb" fill-opacity="0.501961" points="216,70 196,77 186,10" />
<polygon fill="#000700" fill-opacity="0.501961" points="126,183 102,214 142,201" />
<polygon fill="#fb2638" fill-opacity="0.501961" points="53,37 116,27 41,61" />
<polygon fill="#e8fbad" fill-opacity="0.501961" points="130,34 97,85 142,47" />
<polygon fill="#ff001a" fill-opacity="0.501961" points="117,48 131,33 106,25" />
<polygon fill="#ebe8c5" fill-opacity="0.501961" points="81,239 68,199 55,220" />
<polygon fill="#c0000c" fill-opacity="0.501961" points="117,241 74,232 82,218" />
<polygon fill="#db1a0a" fill-opacity="0.501961" points="220,100 206,162 238,113" />
<polygon fill="#fc2232" fill-opacity="0.501961" points="236,52 173,59 208,42" />
<polygon fill="#eae37a" fill-opacity="0.501961" points="140,200 200,204 134,171" />
<polygon fill="#ff0024" fill-opacity="0.501961" points="244,173 229,188 222,158" />
<polygon fill="#553011" fill-opacity="0.501961" points="-16,268 5,111 28,271" />
<polygon fill="#ae987c" fill-opacity="0.501961" points="34,246 13,147 56,229" />
<polygon fill="#f4f8d9" fill-opacity="0.501961" points="180,44 228,36 186,26" />
<polygon fill="#e9c76d" fill-opacity="0.501961" points="112,136 68,83 65,11" />
<polygon fill="#c8cb5e" fill-opacity="0.501961" points="64,160 99,167 79,138" />
<polygon fill="#ff1e46" fill-opacity="0.501961" points="248,201 211,207 235,221" />
<polygon fill="#684029" fill-opacity="0.501961" points="194,229 156,234 194,206" />
<polygon fill="#bc4817" fill-opacity="0.501961" points="140,161 145,94 123,128" />
<polygon fill="#ff063f" fill-opacity="0.501961" points="160,29 174,12 184,39" />
<polygon fill="#cbdba3" fill-opacity="0.501961" points="181,201 140,236 134,271" />
<polygon fill="#fafad5" fill-opacity="0.501961" points="229,159 247,177 238,140" />
<polygon fill="#7d534e" fill-opacity="0.501961" points="100,23 132,8 171,15" />
<polygon fill="#ffffff" fill-opacity="0.501961" points="176,10 145,22 155,29" />
<polygon fill="#f0e18f" fill-opacity="0.501961" points="159,102 203,120 196,135" />
<polygon fill="#000e01" fill-opacity="0.501961" points="103,197 104,174 126,163" />
<polygon fill="#fffffd" fill-opacity="0.501961" points="88,48 109,48 103,31" />
<polygon fill="#6a5022" fill-opacity="0.501961" points="-16,148 78,98 52,74" />
<polygon fill="#e03c1c" fill-opacity="0.501961" points="112,113 68,63 135,103" />
<polygon fill="#f8ffe7" fill-opacity="0.501961" points="229,85 221,96 240,111" />
<polygon fill="#dab86a" fill-opacity="0.501961" points="59,26 165,-8 -16,-13" />
<polygon fill="#e8d9a6" fill-opacity="0.501961" points="47,183 76,216 56,171" />
<polygon fill="#e6ffe4" fill-opacity="0.501961" points="230,50 242,81 220,64" />
<polygon fill="#e21021" fill-opacity="0.501961" points="42,195 83,202 22,208" />
<polygon fill="#ff0c2a" fill-opacity="0.501961" points="10,94 11,59 24,73" />
<polygon fill="#f0fc9e" fill-opacity="0.501961" points="140,148 147,167 168,137" />
<polygon fill="#a9844e" fill-opacity="0.501961" points="137,243 86,185 101,271" />
<polygon fill="#dfdd8a" fill-opacity="0.501961" points="152,61 128,73 112,111" />
<polygon fill="#e43113" fill-opacity="0.501961" points="190,67 175,104 146,83" />
<polygon fill="#f11f40" fill-opacity="0.501961" points="139,52 137,20 158,32" />
<polygon fill="#ca0812" fill-opacity="0.501961" points="45,184 62,157 21,176" />
<polygon fill="#f11b31" fill-opacity="0.501961" points="71,243 55,222 40,248" />
<polygon fill="#dff187" fill-opacity="0.501961" points="156,90 172,54 183,62" />
<polygon fill="#e0eed2" fill-opacity="0.501961" points="132,34 143,17 116,24" />
<polygon fill="#ea0200" fill-opacity="0.501961" points="159,172 172,139 155,155" />
<polygon fill="#ff2253" fill-opacity="0.501961" points="220,12 191,20 206,33" />
<polygon fill="#e4f09d" fill-opacity="0.501961" points="219,217 193,159 219,190" />
<polygon fill="#d3be66" fill-opacity="0.501961" points="173,91 149,131 113,144" />
<polygon fill="#ccd390" fill-opacity="0.501961" points="240,220 179,234 213,213" />
<polygon fill="#fcfae6" fill-opacity="0.501961" points="230,48 209,36 219,14" />
<polygon fill="#ff0522" fill-opacity="0.501961" points="206,80 219,93 235,75" />
<polygon fill="#f5f4eb" fill-opacity="0.501961" points="254,110 244,94 250,134" />
<polygon fill="#b40301" fill-opacity="0.501961" points="149,129 133,84 134,121" />
<polygon fill="#c50400" fill-opacity="0.501961" points="178,175 169,188 194,191" />
<polygon fill="#e63915" fill-opacity="0.501961" points="144,46 101,88 134,76" />
<polygon fill="#ca9341" fill-opacity="0.501961" points="-8,-16 -13,81 74,16" />
<polygon fill="#435b1a" fill-opacity="0.501961" points="66,141 85,127 108,143" />
<polygon fill="#e7da8e" fill-opacity="0.501961" points="182,95 211,94 198,45" />
<polygon fill="#f7ecce" fill-opacity="0.501961" points="41,77 51,55 61,54" />
<polygon fill="#564015" fill-opacity="0.501961" points="136,241 114,242 165,208" />
<polygon fill="#b7ab70" fill-opacity="0.501961" points="24,125 31,169 42,160" />
<polygon fill="#d9ba5d" fill-opacity="0.501961" points="188,123 152,202 187,162" />
<polygon fill="#f8ffe4" fill-opacity="0.501961" points="202,-1 172,13 190,22" />
<polygon fill="#fdffdb" fill-opacity="0.501961" points="245,173 253,207 232,190" />
<polygon fill="#2d1f0d" fill-opacity="0.501961" points="86,171 105,175 76,193" />
<polygon fill="#dfb456" fill-opacity="0.501961" points="271,-16 271,170 215,-5" />
<polygon fill="#f00316" fill-opacity="0.501961" points="173,57 143,43 162,64" />
<polygon fill="#ed9e83" fill-opacity="0.501961" points="55,96 18,85 27,70" />
<polygon fill="#ef1933" fill-opacity="0.501961" points="25,88 43,78 42,56" />
<polygon fill="#eeffc5" fill-opacity="0.501961" points="131,104 131,119 122,109" />
<polygon fill="#121608" fill-opacity="0.501961" points="51,127 43,100 34,124" />
<polygon fill="#c5aa47" fill-opacity="0.501961" points="271,271 242,213 157,247" />
<polygon fill="#fb152e" fill-opacity="0.501961" points="186,73 190,54 174,38" />
<polygon fill="#e30815" fill-opacity="0.501961" points="68,200 80,187 83,214" />
<polygon fill="#eed3ac" fill-opacity="0.501961" points="162,31 197,43 145,44" />
<polygon fill="#e2291b" fill-opacity="0.501961" points="189,106 153,124 153,145" />
<polygon fill="#903c13" fill-opacity="0.501961" points="-14,136 21,92 -16,91" />
<polygon fill="#b6c0ac" fill-opacity="0.501961" points="72,39 84,16 49,33" />
<polygon fill="#d79e48" fill-opacity="0.501961" points="245,173 254,107 271,235" />
<polygon fill="#cdd6a6" fill-opacity="0.501961" points="46,249 37,251 40,236" />
<polygon fill="#f3f8c7" fill-opacity="0.501961" points="143,42 130,34 113,56" />
<polygon fill="#7b704f" fill-opacity="0.501961" points="210,211 160,227 150,260" />
</g>
</svg>