<svg xmlns="http://www.w3.org/2000/svg" version="1.1" width="300" height="300">
<rect x="0" y="0" width="300" height="300" fill="#87756e" />
<g transform="scale(1.171875) translate(0.5 0.5)">
<polygon fill="#fffffd" fill-opacity="0.501961" points="271,85 14,136 105,4" />
<polygon fill="#0d0013" fill-opacity="0.501961" points="-4,165 271,253 -2,271" />
<polygon fill="#000000" fill-opacity="0.501961" points="269,0 77,-7 255,65" />
<polygon fill="#d1bf98" fill-opacity="0.501961" points="271,174 134,248 25,42" />
<polygon fill="#000000" fill-opacity="0.501961" points="87,29 6,-16 -16,68" />
<polygon fill="#000000" fill-opacity="0.501961" points="267,259 55,271 271,193" />
<polygon fill="#f9fff5" fill-opacity="0.501961" points="24,55 271,101 138,18" />
<polygon fill="#d2ece6" fill-opacity="0.501961" points="161,237 247,191 271,71" />
<polygon fill="#070012" fill-opacity="0.501961" points="43,271 3,44 -16,258" />
<polygon fill="#c2b3a8" fill-opacity="0.501961" points="16,171 140,242 45,223" />
<polygon fill="#734a2f" fill-opacity="0.501961" points="56,226 170,209 245,105" />
<polygon fill="#ffffd3" fill-opacity="0.501961" points="100,116 124,176 74,192" />
<polygon fill="#e7fff3" fill-opacity="0.501961" points="160,209 174,230 87,237" />
<polygon fill="#ba9460" fill-opacity="0.501961" points="138,211 105,111 271,63" />
<polygon fill="#050009" fill-opacity="0.501961" points="-16,260 188,271 -16,199" />
<polygon fill="#0e0019" fill-opacity="0.501961" points="194,233 248,271 271,165" />
<polygon fill="#120011" fill-opacity="0.501961" points="271,3 110,-16 203,48" />
<polygon fill="#d4a489" fill-opacity="0.501961" points="107,95 5,120 55,168" />
<polygon fill="#1d000f" fill-opacity="0.501961" points="76,-16 -16,11 11,73" />
<polygon fill="#5d0009" fill-opacity="0.501961" points="46,205 62,157 88,229" />
<polygon fill="#934c58" fill-opacity="0.501961" points="69,38 51,-7 154,12" />
<polygon fill="#dae6c4" fill-opacity="0.501961" points="66,229 25,159 25,194" />
<polygon fill="#895039" fill-opacity="0.501961" points="101,112 203,160 131,177" />
<polygon fill="#27295a" fill-opacity="0.501961" points="10,63 -16,126 50,105" />
<polygon fill="#b7d4c6" fill-opacity="0.501961" points="40,104 222,83 26,53" />
<polygon fill="#e8e39c" fill-opacity="0.501961" points="271,125 248,67 154,27" />
<polygon fill="#0b0011" fill-opacity="0.501961" points="56,123 33,158 4,169" />
<polygon fill="#c15866" fill-opacity="0.501961" points="97,114 48,94 75,195" />
<polygon fill="#2f1521" fill-opacity="0.501961" points="190,203 154,191 140,216" />
<polygon fill="#dacfae" fill-opacity="0.501961" points="151,152 193,147 235,79" />
<polygon fill="#1a001c" fill-opacity="0.501961" points="248,212 263,271 63,254" />
<polygon fill="#e5ffd5" fill-opacity="0.501961" points="73,149 50,165 43,138" />
<polygon fill="#faffef" fill-opacity="0.501961" points="4,130 -16,150 12,138" />
<polygon fill="#e5fbe7" fill-opacity="0.501961" points="128,22 43,48 271,100" />
<polygon fill="#48313f" fill-opacity="0.501961" points="177,175 239,131 243,95" />
<polygon fill="#c1cab8" fill-opacity="0.501961" points="160,180 230,204 271,135" />
<polygon fill="#0f000d" fill-opacity="0.501961" points="157,125 174,129 171,112" />
<polygon fill="#b0bdbb" fill-opacity="0.501961" points="86,237 131,227 53,222" />
<polygon fill="#32001a" fill-opacity="0.501961" points="-10,-16 84,33 -8,62" />
<polygon fill="#320b1e" fill-opacity="0.501961" points="105,200 125,223 73,225" />
<polygon fill="#c8d1c9" fill-opacity="0.501961" points="149,237 147,208 208,217" />
<polygon fill="#becaba" fill-opacity="0.501961" points="132,105 9,59 89,34" />
<polygon fill="#c5b0a8" fill-opacity="0.501961" points="61,4 63,21 114,32" />
<polygon fill="#801527" fill-opacity="0.501961" points="69,206 79,160 39,166" />
<polygon fill="#210018" fill-opacity="0.501961" points="163,3 251,-16 271,48" />
<polygon fill="#1e001d" fill-opacity="0.501961" points="112,266 0,185 -7,261" />
<polygon fill="#b5844b" fill-opacity="0.501961" points="232,78 205,41 270,71" />
<polygon fill="#d2e7aa" fill-opacity="0.501961" points="67,98 10,120 33,143" />
<polygon fill="#c19b77" fill-opacity="0.501961" points="210,142 143,87 235,105" />
<polygon fill="#bf5254" fill-opacity="0.501961" points="56,174 93,103 92,156" />
<polygon fill="#6b6f84" fill-opacity="0.501961" points="29,56 -3,61 55,110" />
<polygon fill="#f8fffa" fill-opacity="0.501961" points="129,89 101,29 167,37" />
<polygon fill="#3f2627" fill-opacity="0.501961" points="181,178 184,153 208,142" />
<polygon fill="#2a0f27" fill-opacity="0.501961" points="-16,159 -16,128 43,187" />
<polygon fill="#cec086" fill-opacity="0.501961" points="144,208 131,187 164,161" />
<polygon fill="#b9b08e" fill-opacity="0.501961" points="129,86 131,141 210,78" />
<polygon fill="#47050b" fill-opacity="0.501961" points="133,209 119,178 132,190" />
<polygon fill="#c7ac86" fill-opacity="0.501961" points="147,147 114,197 75,194" />
<polygon fill="#b4a765" fill-opacity="0.501961" points="21,181 24,158 47,180" />
<polygon fill="#c5a468" fill-opacity="0.501961" points="77,205 60,211 97,215" />
<polygon fill="#482123" fill-opacity="0.501961" points="141,159 163,156 140,175" />
<polygon fill="#733d49" fill-opacity="0.501961" points="146,7 61,-8 123,23" />
<polygon fill="#631736" fill-opacity="0.501961" points="246,68 205,31 271,34" />
<polygon fill="#e3edc1" fill-opacity="0.501961" points="96,105 123,192 90,172" />
<polygon fill="#4f1d23" fill-opacity="0.501961" points="38,208 67,188 104,204" />
<polygon fill="#0f0022" fill-opacity="0.501961" points="43,29 -16,18 62,-16" />
<polygon fill="#d1ddd4" fill-opacity="0.501961" points="237,80 271,100 271,189" />
<polygon fill="#bdc4ba" fill-opacity="0.501961" points="144,235 128,203 123,237" />
<polygon fill="#19001a" fill-opacity="0.501961" points="23,228 201,249 56,271" />
<polygon fill="#66421b" fill-opacity="0.501961" points="133,121 102,115 117,132" />
<polygon fill="#ddeec9" fill-opacity="0.501961" points="53,131 65,154 41,142" />
<polygon fill="#d8e2b3" fill-opacity="0.501961" points="187,122 206,135 154,139" />
<polygon fill="#b4bdb6" fill-opacity="0.501961" points="182,183 271,165 206,152" />
<polygon fill="#bcae5e" fill-opacity="0.501961" points="170,204 188,179 152,161" />
<polygon fill="#d6e2d8" fill-opacity="0.501961" points="50,204 24,179 31,204" />
<polygon fill="#e1ebdb" fill-opacity="0.501961" points="237,186 210,215 164,222" />
<polygon fill="#4f3752" fill-opacity="0.501961" points="271,147 271,243 238,210" />
<polygon fill="#d0e2cc" fill-opacity="0.501961" points="161,71 88,90 114,113" />
<polygon fill="#ccd8cc" fill-opacity="0.501961" points="55,209 71,226 40,214" />
<polygon fill="#b0b5ad" fill-opacity="0.501961" points="77,231 119,240 99,222" />
<polygon fill="#bcc5c2" fill-opacity="0.501961" points="221,58 239,57 236,52" />
<polygon fill="#471b34" fill-opacity="0.501961" points="149,-16 187,39 94,-6" />
<polygon fill="#150a29" fill-opacity="0.501961" points="60,215 80,226 109,219" />
<polygon fill="#2a0718" fill-opacity="0.501961" points="154,195 165,199 139,217" />
<polygon fill="#270c24" fill-opacity="0.501961" points="162,113 165,125 181,126" />
<polygon fill="#73502c" fill-opacity="0.501961" points="190,198 152,187 173,209" />
<polygon fill="#8a939d" fill-opacity="0.501961" points="69,108 27,51 29,102" />
<polygon fill="#d5c18d" fill-opacity="0.501961" points="193,57 165,41 216,47" />
<polygon fill="#2c0f24" fill-opacity="0.501961" points="0,76 10,128 -16,140" />
<polygon fill="#b27c5b" fill-opacity="0.501961" points="164,119 153,160 105,138" />
<polygon fill="#541b1d" fill-opacity="0.501961" points="-16,65 89,32 32,24" />
<polygon fill="#b89b8a" fill-opacity="0.501961" points="82,4 123,21 89,39" />
<polygon fill="#790e16" fill-opacity="0.501961" points="146,138 153,153 136,139" />
<polygon fill="#a73533" fill-opacity="0.501961" points="88,131 63,143 97,146" />
<polygon fill="#acb9aa" fill-opacity="0.501961" points="70,54 123,80 81,39" />
<polygon fill="#b44f2e" fill-opacity="0.501961" points="209,106 204,97 183,121" />
<polygon fill="#7b3626" fill-opacity="0.501961" points="240,112 228,94 240,96" />
<polygon fill="#000005" fill-opacity="0.501961" points="47,134 54,126 49,127" />
<polygon fill="#d3c48c" fill-opacity="0.501961" points="169,31 131,15 144,28" />
<polygon fill="#391e27" fill-opacity="0.501961" points="-3,144 27,146 45,165" />
</g>
</svg>