<svg xmlns="http://www.w3.org/2000/svg" version="1.1" width="300" height="300">
<rect x="0" y="0" width="300" height="300" fill="#80772e" />
<g transform="scale(1.171875) translate(0.5 0.5)">
<polygon fill="#ffbf4b" fill-opacity="0.501961" points="175,242 -16,225 143,44" />
<polygon fill="#6a0000" fill-opacity="0.501961" points="2,-16 -16,137 195,24" />
<polygon fill="#edffff" fill-opacity="0.501961" points="125,59 271,100 258,46" />
<polygon fill="#003600" fill-opacity="0.501961" points="148,157 253,271 271,80" />
<polygon fill="#00ff09" fill-opacity="0.501961" points="-16,222 172,254 -7,271" />
<polygon fill="#fff72b" fill-opacity="0.501961" points="21,239 207,233 172,174" />
<polygon fill="#005f1f" fill-opacity="0.501961" points="231,56 109,48 267,-16" />
<polygon fill="#c1d0c5" fill-opacity="0.501961" points="169,129 168,49 69,87" />
<polygon fill="#00ba17" fill-opacity="0.501961" points="99,271 265,201 257,269" />
<polygon fill="#ae5e10" fill-opacity="0.501961" points="138,105 39,246 -16,108" />
<polygon fill="#007a0b" fill-opacity="0.501961" points="172,72 271,183 260,98" />
<polygon fill="#c10003" fill-opacity="0.501961" points="24,-16 120,55 -16,86" />
<polygon fill="#5eff93" fill-opacity="0.501961" points="195,10 238,57 271,22" />
<polygon fill="#330604" fill-opacity="0.501961" points="133,185 128,148 214,154" />
<polygon fill="#010900" fill-opacity="0.501961" points="100,38 218,57 66,-16" />
<polygon fill="#fffcd1" fill-opacity="0.501961" points="271,105 216,81 255,17" />
<polygon fill="#fdd02b" fill-opacity="0.501961" points="-5,210 -3,144 68,194" />
<polygon fill="#d2e900" fill-opacity="0.501961" points="250,71 206,52 271,57" />
<polygon fill="#d48d5a" fill-opacity="0.501961" points="224,122 202,157 216,217" />
<polygon fill="#fdfff6" fill-opacity="0.501961" points="124,168 132,189 88,203" />
<polygon fill="#fffd00" fill-opacity="0.501961" points="77,-2 16,-16 75,20" />
<polygon fill="#afd1ff" fill-opacity="0.501961" points="218,55 131,53 271,103" />
<polygon fill="#233300" fill-opacity="0.501961" points="116,194 99,155 81,176" />
<polygon fill="#00dd01" fill-opacity="0.501961" points="-2,263 -16,212 109,271" />
<polygon fill="#ffda24" fill-opacity="0.501961" points="119,194 17,229 109,245" />
<polygon fill="#00021e" fill-opacity="0.501961" points="178,0 271,24 271,-16" />
<polygon fill="#033200" fill-opacity="0.501961" points="70,106 -16,93 63,70" />
<polygon fill="#00ff12" fill-opacity="0.501961" points="212,0 247,26 222,48" />
<polygon fill="#00b839" fill-opacity="0.501961" points="192,271 66,248 250,233" />
<polygon fill="#000000" fill-opacity="0.501961" points="54,214 81,205 43,201" />
<polygon fill="#942513" fill-opacity="0.501961" points="141,133 50,136 84,97" />
<polygon fill="#007106" fill-opacity="0.501961" points="270,128 191,267 258,255" />
<polygon fill="#006a0f" fill-opacity="0.501961" points="271,187 182,79 271,102" />
<polygon fill="#fcd24d" fill-opacity="0.501961" points="191,185 149,251 149,172" />
<polygon fill="#000000" fill-opacity="0.501961" points="17,210 29,204 43,224" />
<polygon fill="#b3ae71" fill-opacity="0.501961" points="95,87 123,42 197,96" />
<polygon fill="#0e3200" fill-opacity="0.501961" points="99,81 108,55 48,80" />
<polygon fill="#a0b899" fill-opacity="0.501961" points="235,143 186,112 194,96" />
<polygon fill="#c4e37e" fill-opacity="0.501961" points="92,116 88,166 109,148" />
<polygon fill="#290000" fill-opacity="0.501961" points="213,226 199,126 189,206" />
<polygon fill="#9a6f66" fill-opacity="0.501961" points="208,14 188,42 131,-16" />
<polygon fill="#f1ffff" fill-opacity="0.501961" points="153,202 166,219 172,204" />
<polygon fill="#ff6d10" fill-opacity="0.501961" points="73,203 37,149 86,155" />
<polygon fill="#000000" fill-opacity="0.501961" points="107,256 72,244 105,244" />
<polygon fill="#c76c00" fill-opacity="0.501961" points="127,61 143,52 85,27" />
<polygon fill="#74650c" fill-opacity="0.501961" points="0,102 49,69 30,202" />
<polygon fill="#4c0004" fill-opacity="0.501961" points="4,-16 -12,57 38,52" />
<polygon fill="#e4b46a" fill-opacity="0.501961" points="83,112 52,106 40,135" />
<polygon fill="#02240c" fill-opacity="0.501961" points="190,55 183,19 228,52" />
<polygon fill="#fb9d69" fill-opacity="0.501961" points="197,125 190,141 159,118" />
<polygon fill="#dcdf00" fill-opacity="0.501961" points="271,71 212,61 230,50" />
<polygon fill="#254812" fill-opacity="0.501961" points="109,107 134,112 110,135" />
<polygon fill="#ffffff" fill-opacity="0.501961" points="261,72 262,25 244,20" />
<polygon fill="#f1ffff" fill-opacity="0.501961" points="111,207 91,191 117,198" />
<polygon fill="#dad5aa" fill-opacity="0.501961" points="156,76 118,110 68,89" />
<polygon fill="#004300" fill-opacity="0.501961" points="-15,223 37,238 -16,205" />
<polygon fill="#080000" fill-opacity="0.501961" points="140,154 150,184 128,177" />
<polygon fill="#dba146" fill-opacity="0.501961" points="203,192 209,153 221,209" />
<polygon fill="#10f871" fill-opacity="0.501961" points="116,243 82,271 199,254" />
<polygon fill="#003800" fill-opacity="0.501961" points="124,235 160,248 146,253" />
<polygon fill="#864010" fill-opacity="0.501961" points="204,10 139,37 219,41" />
<polygon fill="#fbd52c" fill-opacity="0.501961" points="139,233 75,182 78,244" />
<polygon fill="#fefacd" fill-opacity="0.501961" points="32,174 68,192 53,193" />
<polygon fill="#f4be11" fill-opacity="0.501961" points="-14,165 -4,221 34,147" />
<polygon fill="#4b1a0f" fill-opacity="0.501961" points="169,180 217,139 159,125" />
<polygon fill="#664c00" fill-opacity="0.501961" points="161,89 156,104 139,90" />
<polygon fill="#fcd2ac" fill-opacity="0.501961" points="109,148 146,150 125,134" />
<polygon fill="#0b0000" fill-opacity="0.501961" points="172,103 166,118 186,115" />
<polygon fill="#f9b61a" fill-opacity="0.501961" points="209,220 172,202 167,244" />
<polygon fill="#00f50f" fill-opacity="0.501961" points="-16,214 73,260 -9,255" />
<polygon fill="#f66400" fill-opacity="0.501961" points="79,111 81,77 64,85" />
<polygon fill="#baccf0" fill-opacity="0.501961" points="129,64 219,82 153,49" />
<polygon fill="#250003" fill-opacity="0.501961" points="147,9 163,13 169,58" />
<polygon fill="#00d131" fill-opacity="0.501961" points="245,267 213,224 169,248" />
<polygon fill="#e7b200" fill-opacity="0.501961" points="-15,192 72,246 17,230" />
<polygon fill="#c2d7c6" fill-opacity="0.501961" points="145,125 139,104 124,124" />
<polygon fill="#006e12" fill-opacity="0.501961" points="44,243 74,236 85,255" />
<polygon fill="#160000" fill-opacity="0.501961" points="191,191 212,127 195,118" />
<polygon fill="#00f634" fill-opacity="0.501961" points="246,42 231,6 204,23" />
<polygon fill="#afa9a7" fill-opacity="0.501961" points="132,5 164,11 196,-12" />
<polygon fill="#006107" fill-opacity="0.501961" points="164,82 211,81 254,106" />
<polygon fill="#092204" fill-opacity="0.501961" points="86,24 166,54 69,-16" />
<polygon fill="#120400" fill-opacity="0.501961" points="48,83 76,100 44,111" />
<polygon fill="#005a06" fill-opacity="0.501961" points="3,87 -12,116 28,79" />
<polygon fill="#001404" fill-opacity="0.501961" points="204,11 271,-2 162,-16" />
<polygon fill="#d6a069" fill-opacity="0.501961" points="163,147 158,169 146,115" />
<polygon fill="#5f371b" fill-opacity="0.501961" points="212,139 249,148 225,210" />
<polygon fill="#522308" fill-opacity="0.501961" points="109,23 155,-16 84,5" />
<polygon fill="#ff8500" fill-opacity="0.501961" points="242,44 258,43 240,37" />
<polygon fill="#ffffff" fill-opacity="0.501961" points="231,51 271,62 243,43" />
<polygon fill="#35080c" fill-opacity="0.501961" points="82,119 90,136 59,126" />
<polygon fill="#cdefe9" fill-opacity="0.501961" points="227,135 222,141 212,125" />
<polygon fill="#e0d7f6" fill-opacity="0.501961" points="206,56 210,82 271,81" />
<polygon fill="#f3d136" fill-opacity="0.501961" points="31,200 74,228 60,243" />
<polygon fill="#cb0708" fill-opacity="0.501961" points="56,42 -16,19 75,21" />
<polygon fill="#000000" fill-opacity="0.501961" points="169,248 154,245 181,239" />
<polygon fill="#ae9400" fill-opacity="0.501961" points="171,-5 214,19 201,25" />
<polygon fill="#00ff40" fill-opacity="0.501961" points="91,260 66,240 53,257" />
<polygon fill="#006108" fill-opacity="0.501961" points="188,236 267,221 266,181" />
<polygon fill="#903307" fill-opacity="0.501961" points="165,39 147,11 118,28" />
</g>
</svg>