<svg xmlns="http://www.w3.org/2000/svg" version="1.1" width="300" height="300">
<rect x="0" y="0" width="300" height="300" fill="#a1907a" />
<g transform="scale(1.171875) translate(0.5 0.5)">
<polygon fill="#270400" fill-opacity="0.501961" points="271,98 253,271 15,192" />
<polygon fill="#ffffff" fill-opacity="0.501961" points="244,131 -16,4 270,-16" />
<polygon fill="#fcffff" fill-opacity="0.501961" points="107,271 -16,114 2,245" />
<polygon fill="#eef2ff" fill-opacity="0.501961" points="-14,75 263,-1 -16,0" />
<polygon fill="#342d04" fill-opacity="0.501961" points="271,191 131,271 10,156" />
<polygon fill="#b27a33" fill-opacity="0.501961" points="91,206 215,158 -16,61" />
<polygon fill="#f9fee8" fill-opacity="0.501961" points="271,-5 161,152 127,112" />
<polygon fill="#000500" fill-opacity="0.501961" points="50,95 101,78 147,100" />
<polygon fill="#6e6080" fill-opacity="0.501961" points="148,85 33,21 88,18" />
<polygon fill="#a4872e" fill-opacity="0.501961" points="267,70 253,129 172,123" />
<polygon fill="#d9dde5" fill-opacity="0.501961" points="69,271 4,99 -16,234" />
<polygon fill="#12261f" fill-opacity="0.501961" points="84,230 87,141 26,173" />
<polygon fill="#000000" fill-opacity="0.501961" points="188,35 178,46 217,44" />
<polygon fill="#ffffff" fill-opacity="0.501961" points="6,-16 -16,75 53,54" />
<polygon fill="#c9a883" fill-opacity="0.501961" points="80,248 117,170 94,161" />
<polygon fill="#4d3010" fill-opacity="0.501961" points="271,118 81,231 219,269" />
<polygon fill="#4a361b" fill-opacity="0.501961" points="28,80 27,175 48,115" />
<polygon fill="#000000" fill-opacity="0.501961" points="33,271 -11,265 -5,233" />
<polygon fill="#ffecb9" fill-opacity="0.501961" points="89,118 60,98 150,102" />
<polygon fill="#c12753" fill-opacity="0.501961" points="147,34 150,7 129,9" />
<polygon fill="#cbac79" fill-opacity="0.501961" points="25,130 77,181 76,118" />
<polygon fill="#fbffff" fill-opacity="0.501961" points="160,37 232,35 196,-16" />
<polygon fill="#ba7f38" fill-opacity="0.501961" points="-16,75 121,53 22,124" />
<polygon fill="#e6e7ee" fill-opacity="0.501961" points="53,27 73,78 92,42" />
<polygon fill="#f8fbff" fill-opacity="0.501961" points="261,82 164,50 271,43" />
<polygon fill="#2a291a" fill-opacity="0.501961" points="109,271 98,204 139,150" />
<polygon fill="#1b33ce" fill-opacity="0.501961" points="85,21 70,20 80,54" />
<polygon fill="#e36f28" fill-opacity="0.501961" points="168,231 119,208 160,244" />
<polygon fill="#cf9444" fill-opacity="0.501961" points="181,199 183,170 207,209" />
<polygon fill="#faeaaf" fill-opacity="0.501961" points="107,63 145,107 106,26" />
<polygon fill="#201716" fill-opacity="0.501961" points="173,255 228,230 146,174" />
<polygon fill="#d7ad45" fill-opacity="0.501961" points="157,154 189,130 97,125" />
<polygon fill="#763600" fill-opacity="0.501961" points="148,97 148,81 123,62" />
<polygon fill="#dc9137" fill-opacity="0.501961" points="219,248 255,233 243,211" />
<polygon fill="#dfdbc2" fill-opacity="0.501961" points="193,61 213,111 109,128" />
<polygon fill="#da6823" fill-opacity="0.501961" points="228,144 235,186 257,185" />
<polygon fill="#5e1600" fill-opacity="0.501961" points="95,137 88,115 51,108" />
<polygon fill="#ff9e5e" fill-opacity="0.501961" points="197,164 208,174 211,133" />
<polygon fill="#63481b" fill-opacity="0.501961" points="84,97 94,35 106,53" />
<polygon fill="#d72ac9" fill-opacity="0.501961" points="158,28 163,67 173,51" />
<polygon fill="#211e4d" fill-opacity="0.501961" points="45,35 49,49 64,51" />
<polygon fill="#293bb7" fill-opacity="0.501961" points="36,19 51,30 87,20" />
<polygon fill="#0a3202" fill-opacity="0.501961" points="89,96 90,73 141,101" />
<polygon fill="#dcdbd8" fill-opacity="0.501961" points="-12,103 31,126 -16,229" />
<polygon fill="#3f2523" fill-opacity="0.501961" points="53,149 89,171 97,152" />
<polygon fill="#e5c8aa" fill-opacity="0.501961" points="58,125 51,145 113,144" />
<polygon fill="#efdfef" fill-opacity="0.501961" points="143,77 224,68 104,42" />
<polygon fill="#c9c8d2" fill-opacity="0.501961" points="103,238 71,271 6,188" />
<polygon fill="#ffe383" fill-opacity="0.501961" points="175,168 154,165 165,178" />
<polygon fill="#0c1e10" fill-opacity="0.501961" points="54,200 104,194 30,160" />
<polygon fill="#2c3144" fill-opacity="0.501961" points="221,16 237,8 247,15" />
<polygon fill="#a14a10" fill-opacity="0.501961" points="145,155 91,173 119,128" />
<polygon fill="#271c0d" fill-opacity="0.501961" points="271,153 186,114 244,163" />
<polygon fill="#cdc09a" fill-opacity="0.501961" points="192,109 140,66 270,89" />
<polygon fill="#1c1a1b" fill-opacity="0.501961" points="266,201 173,159 234,217" />
<polygon fill="#0a0600" fill-opacity="0.501961" points="256,240 271,264 171,271" />
<polygon fill="#201c28" fill-opacity="0.501961" points="214,46 179,41 212,36" />
<polygon fill="#ebcc97" fill-opacity="0.501961" points="84,198 101,214 91,224" />
<polygon fill="#ebe2bc" fill-opacity="0.501961" points="96,193 109,174 96,168" />
<polygon fill="#f9e9b2" fill-opacity="0.501961" points="240,189 237,179 252,193" />
<polygon fill="#803910" fill-opacity="0.501961" points="71,79 84,96 38,105" />
<polygon fill="#f9fff8" fill-opacity="0.501961" points="25,31 75,28 75,42" />
<polygon fill="#bb7835" fill-opacity="0.501961" points="138,109 110,127 93,107" />
<polygon fill="#663806" fill-opacity="0.501961" points="240,98 244,120 229,113" />
<polygon fill="#cab546" fill-opacity="0.501961" points="216,271 200,242 167,268" />
<polygon fill="#e9ede8" fill-opacity="0.501961" points="149,136 183,101 124,103" />
<polygon fill="#b16f26" fill-opacity="0.501961" points="216,223 232,224 217,191" />
<polygon fill="#000e00" fill-opacity="0.501961" points="40,151 28,135 26,153" />
<polygon fill="#d8b282" fill-opacity="0.501961" points="77,50 54,59 87,100" />
<polygon fill="#143603" fill-opacity="0.501961" points="120,78 110,92 134,99" />
<polygon fill="#ffffff" fill-opacity="0.501961" points="52,111 53,105 40,108" />
<polygon fill="#979714" fill-opacity="0.501961" points="168,252 106,271 127,238" />
<polygon fill="#552c23" fill-opacity="0.501961" points="76,108 41,122 9,113" />
<polygon fill="#f7f9f8" fill-opacity="0.501961" points="9,-16 131,10 29,21" />
<polygon fill="#fffffa" fill-opacity="0.501961" points="79,54 97,36 86,30" />
<polygon fill="#151a00" fill-opacity="0.501961" points="162,166 133,150 149,150" />
<polygon fill="#dd8c43" fill-opacity="0.501961" points="82,65 92,49 120,56" />
<polygon fill="#ca9d39" fill-opacity="0.501961" points="41,68 9,116 -13,93" />
<polygon fill="#1f2a19" fill-opacity="0.501961" points="31,166 98,236 59,155" />
<polygon fill="#ad9334" fill-opacity="0.501961" points="224,179 194,174 208,164" />
<polygon fill="#e8c16e" fill-opacity="0.501961" points="136,107 88,139 98,156" />
<polygon fill="#d0af79" fill-opacity="0.501961" points="17,133 19,173 37,183" />
<polygon fill="#eef3f3" fill-opacity="0.501961" points="108,53 90,-16 145,53" />
<polygon fill="#73902b" fill-opacity="0.501961" points="137,204 147,149 122,193" />
<polygon fill="#9b3d2e" fill-opacity="0.501961" points="217,128 232,168 189,140" />
<polygon fill="#b18bb4" fill-opacity="0.501961" points="173,65 130,12 142,46" />
<polygon fill="#221a10" fill-opacity="0.501961" points="201,198 235,247 184,222" />
<polygon fill="#423a1c" fill-opacity="0.501961" points="154,172 131,194 197,270" />
<polygon fill="#c36c0a" fill-opacity="0.501961" points="125,73 148,82 120,57" />
<polygon fill="#f9fdfe" fill-opacity="0.501961" points="205,10 226,-16 271,9" />
<polygon fill="#814267" fill-opacity="0.501961" points="-16,74 49,59 -5,88" />
<polygon fill="#343319" fill-opacity="0.501961" points="90,188 111,246 146,240" />
<polygon fill="#bc6f27" fill-opacity="0.501961" points="259,227 235,219 236,254" />
<polygon fill="#b08d51" fill-opacity="0.501961" points="245,132 227,82 263,114" />
<polygon fill="#ac6134" fill-opacity="0.501961" points="97,157 76,117 84,157" />
<polygon fill="#e7d9ac" fill-opacity="0.501961" points="188,204 197,205 184,190" />
<polygon fill="#1c1114" fill-opacity="0.501961" points="247,220 247,180 270,236" />
<polygon fill="#919daa" fill-opacity="0.501961" points="39,109 16,125 34,121" />
<polygon fill="#334b1a" fill-opacity="0.501961" points="183,123 188,116 213,136" />
<polygon fill="#dfdb97" fill-opacity="0.501961" points="113,83 127,71 92,72" />
</g>
</svg>